<?xml version="1.0" encoding="utf-8"?>
<!-- Generator: Adobe Illustrator 16.0.0, SVG Export Plug-In . SVG Version: 6.00 Build 0)  -->
<!DOCTYPE svg PUBLIC "-//W3C//DTD SVG 1.1//EN" "http://www.w3.org/Graphics/SVG/1.1/DTD/svg11.dtd">
<svg version="1.1" id="图层_1" xmlns="http://www.w3.org/2000/svg" xmlns:xlink="http://www.w3.org/1999/xlink" x="0px" y="0px"
	 width="256px" height="256px" viewBox="0 0 256 256" enable-background="new 0 0 256 256" xml:space="preserve">
<g>
	<path fill="#FC3F3A" d="M1,1h256v256H1V1z"/>
</g>
<path fill="#FFFFFF" d="M114.369,116.471v46.451c0,0-1.081,8.372-3.511,9.452c0,0,7.022,3.511,10.263-8.103v-47.8H114.369z"/>
<path fill="#FFFFFF" d="M144.075,127.627c8.103,0.54,10.263,7.832,10.263,7.832v26.29h-5.62v-3.063
	c-1.838,1.619-5.723,3.51-11.934,2.971c-6.212-0.541-8.103-6.752-6.482-11.883c1.621-5.133,9.453-7.293,14.854-7.293
	c5.4,0,4.052-6.211,0-9.183c-4.051-2.971-14.854,0-14.854,0S135.975,127.087,144.075,127.627z M138.943,147.902
	c-5.4,2.431-5.672,6.481-4.86,8.103s4.051,2.972,8.103,2.16c4.051-0.81,5.131-3.78,5.131-3.78v-6.482
	C147.316,147.902,144.346,145.473,138.943,147.902z"/>
<polygon fill="#FFFFFF" points="158.891,128.895 170.813,161.749 178.373,161.749 189.716,128.895 181.613,128.895 174.305,152.93 
	166.49,128.895 "/>
<path fill="#FFFFFF" d="M207,127.627c8.104,0.54,10.264,7.832,10.264,7.832v26.29h-5.621v-3.063
	c-1.838,1.619-5.723,3.51-11.934,2.971c-6.212-0.541-8.104-6.752-6.482-11.883c1.621-5.133,9.453-7.293,14.854-7.293
	s4.052-6.211,0-9.183c-4.052-2.971-14.854,0-14.854,0S198.898,127.087,207,127.627z M201.869,147.902
	c-5.401,2.431-5.672,6.481-4.861,8.103s4.051,2.972,8.102,2.16c4.053-0.81,5.133-3.78,5.133-3.78v-6.482
	C210.241,147.902,207.271,145.473,201.869,147.902z"/>
<g enable-background="new    ">
	<path fill="#FFFFFF" d="M219.834,127.761h5.496v0.874h-2.235v5.834h-1.015v-5.834h-2.246V127.761z"/>
	<path fill="#FFFFFF" d="M226.139,127.761h1.212l2.339,5.374h0.029l2.33-5.374h1.211v6.708h-1.023v-4.791h-0.037l-2.059,4.791
		h-0.883l-2.058-4.791h-0.038v4.791h-1.023V127.761z"/>
</g>
<path fill="#FFFFFF" d="M67.107,69.75c0,0,5.131,8.372-7.562,18.634c-12.693,10.263-20.795,16.917-14.854,25.473
	c5.941,8.555,11.883,11.526,11.883,11.526s-4.861-6.287-6.481-13.811c-1.62-7.524,2.971-12.115,6.751-14.005
	c3.781-1.89,12.693-9.182,14.043-16.744C72.239,73.261,68.458,69.75,67.107,69.75z"/>
<path fill="#FFFFFF" d="M81.151,91.895c0,0-9.183,4.591-12.153,7.832c-2.971,3.241-6.482,8.026-4.591,11.845
	c1.891,3.819,7.021,4.899,4.861,11.111c-2.161,6.211-7.292,8.102-7.292,8.102s4.861-7.021,0-11.612
	c-4.861-4.591-5.75-8.912-5.036-12.153c0.715-3.241,4.643-8.372,11.996-11.612C76.29,92.165,81.151,91.895,81.151,91.895z"/>
<path fill="#FFFFFF" d="M42.706,127.594c0,0-13.678,5.081-3.686,5.621c9.993,0.54,35.378,0,39.43-2.431
	c0,0-1.081,4.591-28.627,6.212c-27.546,1.619-21.605-6.212-21.605-6.212S30.998,128.453,42.706,127.594z"/>
<path fill="#FFFFFF" d="M83.311,127.594c0,0,13.503,1.741,7.292,9.622c-6.211,7.882-9.452,9.772-9.452,9.772
	s14.313-5.941,15.124-11.344C97.084,130.244,90.873,125.482,83.311,127.594z"/>
<path fill="#FFFFFF" d="M38.75,140.236c0,0,6.211,5.898,19.445,4.436c13.233-1.465,8.912-2.102,8.912-2.102s6.751-4.34,6.481,2.334
	c0,0-4.591,2.354-13.773,2.084c-9.182-0.271-17.824,1.258-21.065-1.668C35.51,142.396,38.75,140.236,38.75,140.236z"/>
<path fill="#FFFFFF" d="M42.706,151.311c0,0,9.008,5.67,19.81,2.43c0,0,10.263-3.24,9.993,2.16c0,0-6.024,4.052-17.055,4.322
	c-11.032,0.27-15.893-4.457-15.893-4.457S35.589,151.311,42.706,151.311z"/>
<path fill="#FFFFFF" d="M34.16,160.232c0,0-16.203,2.688-6.481,4.58c9.722,1.891,32.688,2.699,44.835,0
	c12.148-2.701,19.709-4.58,19.709-4.58s-7.292,7.551-27.006,8.9c-19.714,1.35-40.239-0.271-42.94-1.891
	c-2.701-1.621-5.941-3.428-1.621-5.494C24.978,159.682,30.919,157.813,34.16,160.232z"/>
<path fill="#FFFFFF" d="M33.35,171.023c0,0,49.564,5.314,62.996-6.66c0,0,1.891,9.631-31.498,10.98
	C31.459,176.693,33.35,171.023,33.35,171.023z"/>
</svg>
