<?xml version="1.0" encoding="utf-8"?>
<!-- Generator: Adobe Illustrator 16.0.0, SVG Export Plug-In . SVG Version: 6.00 Build 0)  -->
<!DOCTYPE svg PUBLIC "-//W3C//DTD SVG 1.1//EN" "http://www.w3.org/Graphics/SVG/1.1/DTD/svg11.dtd">
<svg version="1.1" id="图层_1" xmlns="http://www.w3.org/2000/svg" xmlns:xlink="http://www.w3.org/1999/xlink" x="0px" y="0px"
	 width="256px" height="272px" viewBox="0 0 256 272" enable-background="new 0 0 256 272" xml:space="preserve">
<rect fill="#E0FFAE" width="256" height="272"/>
<g>
	<path d="M134.631,126.671c0-8.488,0-16.404,0-24.962c3.732,2.118,6.889,3.822,9.924,5.717c0.535,0.333,0.793,1.473,0.797,2.242
		c0.045,13.527,0.07,27.055-0.052,40.579c-0.009,1.048-0.893,2.491-1.802,3.06c-4.296,2.684-8.709,5.188-13.167,7.596
		c-0.769,0.414-2.149,0.406-2.917-0.012c-4.522-2.453-8.996-5.006-13.363-7.725c-0.84-0.521-1.577-1.906-1.61-2.919
		c-0.162-4.913-0.015-9.836-0.093-14.753c-0.026-1.593,0.552-2.548,1.925-3.313c4.09-2.279,8.163-4.595,12.16-7.029
		c1.706-1.039,3.159-1.305,4.844-0.022C132.066,125.73,133.113,125.992,134.631,126.671z M134.648,142.779
		c0.117-0.098,0.233-0.198,0.35-0.297c-0.614-1.237-0.971-2.752-1.914-3.637c-1.127-1.056-2.688-1.912-4.191-2.232
		c-2.059-0.442-5.761,3.195-5.665,5.306c0.068,1.481-0.159,3.416,0.659,4.323c1.201,1.332,3.233,2.668,4.884,2.637
		c1.768-0.035,3.694-1.429,5.168-2.684C134.639,145.6,134.439,143.951,134.648,142.779z"/>
	<path d="M178.709,145.332c0-1.781-0.074-2.764,0.018-3.732c0.153-1.666-0.516-2.648-2.004-3.469
		c-3.918-2.16-4.822-2.196-8.349,0.612c-0.461,0.366-0.804,1.092-0.878,1.688c-0.139,1.137,0.033,2.307-0.064,3.45
		c-0.121,1.397,0.383,2.236,1.647,2.929c4.104,2.248,8.139,4.623,12.192,6.965c0.648,0.375,1.26,0.815,2.391,1.557
		c-1.871,1.113-3.514,1.863-4.885,2.952c-3.821,3.036-7.373,3.057-11.322,0.022c-2.65-2.037-5.788-3.461-8.766-5.049
		c-1.455-0.775-2.115-1.744-2.084-3.449c0.096-4.836,0.066-9.678,0.006-14.518c-0.021-1.449,0.371-2.447,1.703-3.198
		c4.479-2.525,8.875-5.205,13.388-7.665c0.765-0.416,2.149-0.396,2.92,0.026c4.442,2.432,8.812,5,13.151,7.61
		c2.578,1.549,2.617,6.432,0.063,8.004C185.061,141.779,182.188,143.337,178.709,145.332z"/>
	<path d="M56.108,157.859c-3.482-2.055-6.649-3.848-9.708-5.81c-0.463-0.298-0.578-1.372-0.593-2.093
		c-0.062-2.84,0.023-5.682-0.029-8.521c-0.063-3.465-4.535-5.925-7.698-4.514c-2.76,1.234-3.967,2.991-3.609,6.061
		c0.257,2.197,0.265,4.479-0.044,6.662c-0.166,1.18-0.975,2.599-1.939,3.27c-2.382,1.656-5.018,2.949-7.563,4.369
		c-0.176,0.099-0.443,0.035-0.958,0.063c-0.091-0.634-0.256-1.266-0.26-1.898c-0.031-6.834-0.006-13.666-0.07-20.5
		c-0.014-1.578,0.592-2.558,1.951-3.32c4.283-2.4,8.483-4.953,12.807-7.274c0.849-0.456,2.33-0.553,3.146-0.118
		c4.462,2.386,8.847,4.926,13.159,7.576c0.823,0.506,1.687,1.734,1.704,2.643c0.134,7.215,0.071,14.433,0.054,21.651
		C56.458,156.473,56.318,156.844,56.108,157.859z"/>
</g>
<polygon fill="#84CD28" points="101.319,150.952 84.654,160.6 67.965,150.992 67.942,131.735 84.607,122.087 101.296,131.696 "/>
<polygon fill="#84CD28" points="176.162,144.441 172.825,146.287 169.561,144.318 169.631,140.506 172.969,138.662 176.236,140.631 
	"/>
<path fill="#84CD28" d="M229.751,132.918c0,0-0.117-0.797-0.271-1.061c-0.145-0.249-0.728-0.737-0.728-0.737l-15.323-8.822
	c0,0-0.64-0.247-0.908-0.247c-0.295,0-1.043,0.3-1.043,0.3l-15.148,8.771c0,0-0.656,0.525-0.809,0.791
	c-0.187,0.321-0.248,1.302-0.248,1.302l0.021,17.174c0,0,0.017,0.836,0.172,1.107c0.128,0.219,0.708,0.65,0.708,0.65l5.557,3.197
	c0.17-0.078,0.342-0.143,0.518-0.188c0.182-0.395,0.479-0.736,0.877-0.956c0.252-0.14,0.496-0.289,0.741-0.438l-5.261-3.025
	c0,0-0.574-0.336-0.701-0.555c-0.104-0.177-0.174-0.761-0.174-0.761l-0.02-15.486c0,0,0.08-0.562,0.18-0.734
	c0.094-0.165,0.479-0.442,0.479-0.442l13.428-7.774c0,0,0.521-0.245,0.727-0.245c0.19,0,0.644,0.218,0.644,0.218l13.367,7.697
	c0,0,0.493,0.352,0.606,0.546c0.133,0.228,0.176,0.956,0.176,0.956l0.019,15.181c0,0-0.03,0.604-0.138,0.788
	c-0.094,0.162-0.506,0.444-0.506,0.444l-13.414,7.765c0,0-0.541,0.281-0.754,0.282c-0.236,0-0.801-0.33-0.801-0.33l-3.359-1.934
	c-0.045,0.015-0.086,0.037-0.133,0.051c-0.037,0.01-0.666,0.248-0.279,0.062c-0.131,0.06-0.258,0.125-0.387,0.194
	c-0.254,0.143-0.5,0.291-0.744,0.451c-0.317,0.207-0.635,0.414-0.957,0.615l5.727,3.295c0,0,0.656,0.355,0.934,0.355
	c0.303,0,1.072-0.411,1.072-0.411l15.324-8.87c0,0,0.536-0.514,0.659-0.729c0.159-0.277,0.192-1.053,0.192-1.053L229.751,132.918z"
	/>
<path fill="#84CD28" d="M204.98,135.06v17.359c0,0-1.314,1.228-2.774,0.388c-1.461-0.842-0.384,2.592-0.384,2.592
	s5.227,1.896,5.447-2.83V135.06H204.98z"/>
<g enable-background="new    ">
	<path fill="#84CD28" d="M224.448,138.582h-2.121c-0.239-1.061-0.755-1.836-1.546-2.326c-0.84-0.549-2.098-0.824-3.775-0.824
		c-1.39,0-2.504,0.226-3.343,0.677c-0.862,0.472-1.294,1.079-1.294,1.825c0,0.766,0.551,1.384,1.653,1.855
		c0.743,0.294,2.05,0.646,3.919,1.059c2.276,0.472,3.883,0.943,4.817,1.414c1.485,0.746,2.229,1.766,2.229,3.061
		c0,3.082-2.518,4.623-7.551,4.623c-4.77,0-7.369-1.737-7.801-5.211h2.121c0.215,1.334,0.791,2.296,1.726,2.885
		c0.862,0.529,2.157,0.795,3.883,0.795c3.595,0,5.393-1.001,5.393-3.003c0-0.923-0.611-1.629-1.833-2.12
		c-0.672-0.273-2.05-0.627-4.135-1.059c-2.182-0.472-3.691-0.923-4.53-1.355c-1.414-0.686-2.121-1.658-2.121-2.914
		c0-1.236,0.671-2.227,2.014-2.973c1.271-0.726,2.899-1.089,4.89-1.089C221.452,133.901,223.921,135.461,224.448,138.582z"/>
</g>
<g enable-background="new    ">
	<path fill="#84CD28" d="M232.615,123.621h2.676v0.247h-1.199v3.02h-0.279v-3.02h-1.197V123.621z"/>
	<path fill="#84CD28" d="M235.707,123.621h0.371l1.28,2.914h0.014l1.272-2.914h0.37v3.267h-0.279v-2.805h-0.014l-1.226,2.805h-0.271
		l-1.222-2.805h-0.018v2.805h-0.279V123.621z"/>
</g>
</svg>
