<?xml version="1.0" encoding="utf-8"?>
<!-- Generator: Adobe Illustrator 16.0.0, SVG Export Plug-In . SVG Version: 6.00 Build 0)  -->
<!DOCTYPE svg PUBLIC "-//W3C//DTD SVG 1.1//EN" "http://www.w3.org/Graphics/SVG/1.1/DTD/svg11.dtd">
<svg version="1.1" id="图层_1" xmlns="http://www.w3.org/2000/svg" xmlns:xlink="http://www.w3.org/1999/xlink" x="0px" y="0px"
	 width="256px" height="256px" viewBox="0 0 256 256" enable-background="new 0 0 256 256" xml:space="preserve">
<g>
	<g>
		<path fill="#204666" d="M0,0h257v257H0V0z"/>
	</g>
</g>
<g>
	<path fill-rule="evenodd" clip-rule="evenodd" fill="#FFFFFF" d="M62.925,148.835c0.641,6.86-0.793,8.913-6.92,10.125
		c-2.086,0.412-4.296,0.832-6.366,0.575c-8.183-1.016-9.626-2.786-9.642-10.986c-0.024-12.443-0.024-12.443,12.812-12.437
		c8.882,0.004,11.769-2.187,12.077-9.154c0.044-0.984,0.141-1.966,0.21-2.895c6.585-1.333,9.028,0.116,10.091,6.416
		c0.471,2.793,0.509,5.765,0.137,8.574c-0.818,6.172-2.827,7.721-9.088,7.736c-4.738,0.013-9.477,0.002-14.216,0.002
		c-0.006,0.515-0.012,1.029-0.019,1.545C55.575,148.5,59.149,148.663,62.925,148.835z"/>
	<path fill-rule="evenodd" clip-rule="evenodd" fill="#FFFFFF" d="M120.589,156.809c5.542-1.518,10.587-3.326,9.315-10.885
		c-2.437,0.329-4.895,0.878-7.368,0.952c-5.507,0.164-8.274-2.564-8.358-8.028c-0.062-4.023,0.063-8.052-0.055-12.073
		c-0.073-2.534,0.803-3.785,3.965-3.337c0,4.833-0.128,9.686,0.036,14.527c0.166,4.905,3.58,7.261,8.2,5.914
		c2.28-0.665,3.601-1.807,3.477-4.565c-0.23-5.142-0.066-10.302-0.066-15.478c2.663-0.971,4.163-0.699,4.105,2.3
		c-0.152,7.9-0.004,15.819-0.476,23.701C132.998,155.974,126.662,159.591,120.589,156.809z"/>
	<path fill-rule="evenodd" clip-rule="evenodd" fill="#FFFFFF" d="M93.542,145.476c0,4.545,0,8.39,0,12.235
		c-0.375,0.243-0.75,0.485-1.126,0.729c-0.837-1.155-2.372-2.295-2.401-3.47c-0.217-8.884-0.155-17.774-0.12-26.663
		c0.003-0.797,0.229-1.75,0.7-2.363c4.146-5.394,15.464-4.272,17.857,2.047c1.213,3.202,1.7,7.046,1.252,10.434
		c-0.936,7.072-6.355,9.987-13.276,7.857C95.626,146.036,94.812,145.829,93.542,145.476z M93.651,134.686
		c0,0.998,0.122,2.017-0.022,2.993c-0.552,3.747,0.787,6.006,4.733,6.449c3.884,0.438,6.227-1.638,6.64-5.094
		c0.395-3.298,0.159-6.818-0.578-10.064c-0.761-3.352-3.683-3.999-6.837-3.45c-3.004,0.523-4.466,2.12-3.957,5.32
		C93.83,132.093,93.663,133.402,93.651,134.686z"/>
	<path fill-rule="evenodd" clip-rule="evenodd" fill="#FFFFFF" d="M153.632,145.833c0-10.933-0.081-21.709,0.103-32.48
		c0.022-1.349,1.438-2.674,2.209-4.01c0.449,0.175,0.897,0.351,1.346,0.526c0,4.931,0,9.862,0,14.924
		c3.062-0.6,5.644-1.413,8.261-1.548c4.079-0.209,6.629,2.013,6.866,6.076c0.283,4.872,0.256,9.778,0.02,14.653
		c-0.048,0.976-1.642,1.877-2.523,2.813c-0.457-0.265-0.914-0.529-1.371-0.795c0-4.545-0.01-9.092,0.003-13.637
		c0.008-3.27-0.542-6.257-4.627-6.397c-3.998-0.137-6.383,2.509-6.401,6.709c-0.018,3.596-0.097,7.192,0.006,10.785
		C157.595,145.999,156.663,146.9,153.632,145.833z"/>
	<path fill-rule="evenodd" clip-rule="evenodd" fill="#FFFFFF" d="M197.47,134.341c0.055,7.683-3.906,12.483-10.39,12.593
		c-6.571,0.111-10.786-4.62-10.825-12.153c-0.038-7.158,4.182-12.108,10.4-12.2C193.096,122.486,197.418,127.186,197.47,134.341z
		 M193.322,134.369c-0.034-0.366-0.033-1.239-0.205-2.075c-0.739-3.603-2.17-6.913-6.456-6.786
		c-4.242,0.126-5.689,3.296-6.015,7.092c-0.072,0.855-0.194,1.718-0.152,2.569c0.288,5.838,2.625,9.202,6.373,9.244
		C190.849,144.459,193.281,140.858,193.322,134.369z"/>
	<path fill-rule="evenodd" clip-rule="evenodd" fill="#FFFFFF" d="M215.955,145.856c0-4.895,0.086-9.754-0.025-14.608
		c-0.103-4.468-3.209-6.779-7.491-5.725c-2.299,0.566-3.65,1.682-3.529,4.465c0.229,5.273,0.066,10.564,0.066,15.754
		c-2.546,1.064-3.906,0.823-3.873-2.025c0.056-5.017-0.003-10.036-0.007-15.054c0-0.429-0.025-0.877,0.083-1.285
		c0.681-2.598,6.926-5.154,11.64-4.787c4.192,0.327,6.861,2.509,6.968,6.11c0.149,5.014-0.021,10.036,0.05,15.053
		C219.877,146.719,218.33,146.613,215.955,145.856z"/>
	<path fill-rule="evenodd" clip-rule="evenodd" fill="#FFFFFF" d="M144.569,126.361c0,3.256-0.039,6.399,0.009,9.542
		c0.06,3.888-1.13,8.331,5.079,9.62c-4.953,2.221-8.486,0.273-8.779-4.186c-0.234-3.565,0.09-7.17-0.192-10.729
		c-0.169-2.117-1.029-4.179-1.619-6.414c0.47-1.489,0.932-3.484,1.735-5.33c0.559-1.282,1.585-2.36,2.404-3.53
		c0.395,0.178,0.789,0.356,1.185,0.534c0.113,2.217,0.226,4.436,0.345,6.772c1.446,0.428,2.834,0.839,4.223,1.251
		c0.037,0.337,0.074,0.675,0.111,1.012C147.749,125.33,146.429,125.758,144.569,126.361z"/>
</g>
<path fill-rule="evenodd" clip-rule="evenodd" fill="#FFFFFF" d="M39.024,120.976c-0.643-6.732,0.795-8.748,6.939-9.936
	c2.092-0.404,4.31-0.817,6.385-0.565c8.207,0.997,9.654,2.734,9.669,10.783c0.025,12.211,0.025,12.211-12.85,12.204
	c-8.908-0.004-11.803,2.146-12.112,8.984c-0.043,0.966-0.14,1.931-0.21,2.841c-6.605,1.308-9.055-0.112-10.121-6.295
	c-0.473-2.741-0.511-5.658-0.137-8.415c0.82-6.058,2.834-7.578,9.114-7.592c4.751-0.013,9.504-0.002,14.257-0.002
	c0.006-0.505,0.012-1.01,0.019-1.517C46.395,121.305,42.81,121.146,39.024,120.976z"/>
</svg>
