<?xml version="1.0" encoding="utf-8"?>
<!-- Generator: Adobe Illustrator 16.0.0, SVG Export Plug-In . SVG Version: 6.00 Build 0)  -->
<!DOCTYPE svg PUBLIC "-//W3C//DTD SVG 1.1//EN" "http://www.w3.org/Graphics/SVG/1.1/DTD/svg11.dtd">
<svg version="1.1" id="图层_1" xmlns="http://www.w3.org/2000/svg" xmlns:xlink="http://www.w3.org/1999/xlink" x="0px" y="0px"
	 width="256px" height="272px" viewBox="0 0 256 272" enable-background="new 0 0 256 272" xml:space="preserve">
<rect fill="#152740" width="256" height="272"/>
<g>
	<path fill="#FFFFFF" d="M16.182,118.527h26.622v4.232H31.973v28.26h-4.915v-28.26H16.182V118.527z"/>
	<path fill="#FFFFFF" d="M43.759,127.492h5.233l6.462,17.156l6.189-17.156h5.278L54.135,160.03h-5.143l4.096-9.557L43.759,127.492z"
		/>
	<path fill="#FFFFFF" d="M89.812,130.541c1.82,2.275,2.73,5.219,2.73,8.828c0,3.43-0.896,6.296-2.685,8.602
		c-1.912,2.457-4.566,3.686-7.964,3.686c-2.883,0-5.279-1.365-7.19-4.096v12.47H69.88v-32.538h4.505v2.821
		c1.639-2.305,4.065-3.458,7.281-3.458C85.094,126.855,87.81,128.084,89.812,130.541z M76.068,133.271
		c-1.001,1.456-1.502,3.398-1.502,5.825v0.409c0,2.549,0.622,4.582,1.866,6.099c1.092,1.426,2.548,2.139,4.368,2.139
		c2.367,0,4.111-0.773,5.233-2.321c1.031-1.485,1.548-3.504,1.548-6.053c0-2.518-0.471-4.534-1.411-6.052
		c-1.123-1.699-2.867-2.549-5.233-2.549C78.813,130.769,77.19,131.604,76.068,133.271z"/>
	<path fill="#FFFFFF" d="M115.841,130.769c1.851,2.397,2.791,5.674,2.822,9.83h-17.839c0.182,2.336,0.804,4.096,1.865,5.278
		c1.122,1.214,2.624,1.82,4.506,1.82c1.668,0,3.033-0.394,4.096-1.183c0.758-0.576,1.471-1.593,2.139-3.049h4.823
		c-0.576,2.245-1.653,4.08-3.23,5.506c-2.063,1.79-4.657,2.685-7.782,2.685c-3.489,0-6.234-1.076-8.236-3.23
		c-2.185-2.275-3.276-5.34-3.276-9.192c0-3.52,1.03-6.446,3.094-8.783c2.003-2.396,4.748-3.595,8.237-3.595
		C110.941,126.855,113.869,128.16,115.841,130.769z M102.872,132.407c-1.032,1.092-1.684,2.609-1.957,4.551h12.696
		c-0.455-4.096-2.594-6.144-6.416-6.144C105.375,130.814,103.934,131.346,102.872,132.407z"/>
</g>
<g>
	<path fill="#FFFFFF" d="M143.48,120.484c2.153,1.729,3.367,4.278,3.641,7.645h-2.776c-0.364-2.518-1.319-4.444-2.867-5.779
		c-1.517-1.304-3.701-1.957-6.553-1.957c-2.609,0-4.673,0.455-6.188,1.365c-1.7,0.971-2.549,2.503-2.549,4.596
		c0,1.79,1.016,3.231,3.049,4.323c1.092,0.516,3.17,1.213,6.234,2.093c4.217,1.213,7.009,2.245,8.373,3.094
		c2.7,1.609,4.051,3.884,4.051,6.826c0,2.792-1.169,5.006-3.504,6.645c-2.215,1.547-5.173,2.32-8.874,2.32
		c-3.731,0-6.675-0.849-8.829-2.548c-2.457-1.941-3.822-4.885-4.095-8.828h2.73c0.333,3.064,1.396,5.34,3.185,6.825
		c1.669,1.336,3.99,2.003,6.963,2.003c2.821,0,5.143-0.562,6.963-1.684c1.759-1.153,2.64-2.686,2.64-4.597
		c0-2.214-1.108-3.943-3.322-5.188c-1.214-0.697-3.595-1.532-7.145-2.503c-3.884-1.092-6.371-1.957-7.463-2.594
		c-2.488-1.395-3.731-3.428-3.731-6.098c0-2.821,1.167-4.975,3.504-6.462c2.063-1.395,4.762-2.093,8.1-2.093
		C138.565,117.891,141.387,118.755,143.48,120.484z"/>
	<path fill="#FFFFFF" d="M169.055,128.903c1.789,1.365,2.866,3.458,3.23,6.28h-2.73c-0.304-1.972-1.092-3.458-2.366-4.459
		c-1.274-1.001-2.942-1.502-5.006-1.502c-2.487,0-4.459,0.956-5.916,2.867c-1.426,1.79-2.139,4.232-2.139,7.327
		c0,3.003,0.683,5.399,2.048,7.189s3.353,2.685,5.962,2.685c4.368,0,6.886-2.229,7.554-6.689h2.685
		c-0.455,2.974-1.577,5.233-3.367,6.78c-1.76,1.518-4.05,2.275-6.871,2.275c-3.489,0-6.189-1.183-8.101-3.549
		c-1.79-2.154-2.685-5.052-2.685-8.691c0-3.58,0.925-6.523,2.775-8.829c1.941-2.487,4.626-3.731,8.055-3.731
		C165.004,126.855,167.295,127.538,169.055,128.903z"/>
	<path fill="#FFFFFF" d="M190.033,127.356v2.776c-1.123-0.333-2.321-0.5-3.596-0.5c-2.154,0-3.853,0.941-5.097,2.821
		c-1.244,1.7-1.865,3.748-1.865,6.143v12.424h-2.73v-23.527h2.73v4.505c0.637-1.486,1.501-2.654,2.594-3.504
		c1.274-1.092,2.791-1.638,4.551-1.638C188.076,126.855,189.214,127.022,190.033,127.356z"/>
	<path fill="#FFFFFF" d="M197.495,119.711c0.455,0.364,0.683,0.895,0.683,1.593c0,0.607-0.243,1.153-0.728,1.638
		c-0.486,0.425-1.018,0.637-1.593,0.637c-0.668,0-1.214-0.212-1.639-0.637c-0.455-0.455-0.683-1.001-0.683-1.638
		c0-0.698,0.228-1.229,0.683-1.593c0.425-0.455,0.971-0.683,1.639-0.683C196.494,119.028,197.04,119.256,197.495,119.711z
		 M194.492,127.493h2.73v23.527h-2.73V127.493z"/>
	<path fill="#FFFFFF" d="M223.115,130.632c1.729,2.275,2.594,5.173,2.594,8.692c0,3.429-0.85,6.296-2.548,8.601
		c-1.942,2.488-4.566,3.731-7.873,3.731c-3.762,0-6.508-1.85-8.236-5.552v13.926h-2.73v-32.538h2.594v4.642
		c1.729-3.519,4.489-5.279,8.282-5.279C218.534,126.855,221.174,128.115,223.115,130.632z M208.917,132.18
		c-1.305,1.76-1.957,4.081-1.957,6.963v0.5c0,2.853,0.698,5.173,2.094,6.963c1.426,1.82,3.337,2.73,5.733,2.73
		c2.64,0,4.702-0.971,6.189-2.912c1.274-1.79,1.911-4.156,1.911-7.1c0-2.942-0.622-5.309-1.865-7.099
		c-1.457-2.032-3.505-3.049-6.144-3.049C212.33,129.176,210.343,130.177,208.917,132.18z"/>
	<path fill="#FFFFFF" d="M236.221,119.893v7.6h6.143v2.366h-6.143v15.927c0,1.032,0.182,1.774,0.546,2.229
		c0.364,0.426,1.047,0.638,2.048,0.638h2.958v2.366h-3.322c-1.82,0-3.125-0.47-3.914-1.411c-0.698-0.788-1.046-2.063-1.046-3.822
		v-15.927h-5.006v-2.366h5.006v-6.462L236.221,119.893z"/>
</g>
</svg>
