<svg preserveAspectRatio="none" xmlns="http://www.w3.org/2000/svg" xmlns:xlink="http://www.w3.org/1999/xlink" viewBox="20 -20 300 100" style="margin-bottom: -8px;" xml:space="preserve">
                      <path id="path01" class="u-fill-white" opacity=".4" d="M30.913 43.944C30.913 43.944 27.55293 13.51533 87.73377 24.55286C171.262 39.87246 219.7065 24.26388 253.0405 21.48688C301.6945 17.43088 335.001 41.242 359.6149 43.742L359.6149 98.138L30.913 95.638L30.913 43.944Z" transform="matrix(0.923,0,0,0.906,-28.947,11.644)" xmlns="http://www.w3.org/2000/svg">
</path>
                      <path id="path01" class="u-fill-white" opacity=".4" d="M-60.62057 48.61157C-60.62057 48.61157 56.64943 8.360324 112.3803 26.143C193.2836 51.95771 190.5071 26.62052 223.8421 23.84352C272.4951 19.78852 268.421 41.926 268.421 41.926L268.1698 100.0005L-60.25767 100.0005L-60.62057 48.61157Z" transform="matrix(0.921,0,0,0.906,55.404,8.12)" xmlns="http://www.w3.org/2000/svg">
</path>
                      <path id="path01" class="u-fill-white" opacity=".4" d="M29.69731 90.27736C29.69731 90.27736 21.54602 36.93219 82.39606 36.93219C148.282 36.93219 271.6422 97.2218 293.7696 96.38847L293.0388 103.2672L30.27961 104.1662L29.69731 90.27736Z" transform="matrix(1.148,0,0,0.906,-34.825,4.595)" xmlns="http://www.w3.org/2000/svg">
</path>
                      <path id="path01" class="u-fill-white" d="M-52.48803 69.76923C-52.48803 69.76923 64.18289 11.28373 128.4989 29.11173C210.3339 51.79473 243.3497 44.00151 278.6357 33.0975C331.7057 16.69851 349.6144 54.49146 349.6144 54.49146L349.1927 96.77578L-51.60136 96.43591L-52.48803 69.76923Z" transform="matrix(0.754,0,0,0.906,38.815,10.847)" xmlns="http://www.w3.org/2000/svg">
</path>
                    </svg>