<?xml version="1.0" encoding="utf-8"?>
<!-- Generator: Adobe Illustrator 16.0.0, SVG Export Plug-In . SVG Version: 6.00 Build 0)  -->
<!DOCTYPE svg PUBLIC "-//W3C//DTD SVG 1.1//EN" "http://www.w3.org/Graphics/SVG/1.1/DTD/svg11.dtd">
<svg version="1.1" id="图层_1" xmlns="http://www.w3.org/2000/svg" xmlns:xlink="http://www.w3.org/1999/xlink" x="0px" y="0px"
	 width="500px" height="364px" viewBox="0 68.5 500 364" enable-background="new 0 68.5 500 364" xml:space="preserve">
<linearGradient id="SVGID_1_" gradientUnits="userSpaceOnUse" x1="774.1953" y1="34.572" x2="774.1953" y2="34.572" gradientTransform="matrix(1 0 0 -1 -14.1953 362.5737)">
	<stop  offset="0" style="stop-color:#808080;stop-opacity:0.25"/>
	<stop  offset="0.54" style="stop-color:#808080;stop-opacity:0.12"/>
	<stop  offset="1" style="stop-color:#808080;stop-opacity:0.1"/>
</linearGradient>
<path fill="url(#SVGID_1_)" d="M760,328.002"/>
<g>
	<g>
		
			<linearGradient id="SVGID_2_" gradientUnits="userSpaceOnUse" x1="260.4893" y1="279.2292" x2="265.1027" y2="20.212" gradientTransform="matrix(1 0 0 -1 -14.1953 362.5737)">
			<stop  offset="0" style="stop-color:#85DDFB"/>
			<stop  offset="1" style="stop-color:#FFFFFF;stop-opacity:0"/>
		</linearGradient>
		<polygon fill="url(#SVGID_2_)" points="50.727,306.357 50.068,199.586 121.908,196.291 124.544,154.11 162.771,153.451 
			162.112,113.248 185.839,88.203 249.77,86.226 249.77,123.792 268.223,123.792 269.541,181.132 286.02,181.132 287.336,161.36 
			363.791,162.678 363.132,138.292 394.768,136.315 393.449,86.226 446.835,139.61 438.926,307.016 		"/>
		
			<linearGradient id="SVGID_3_" gradientUnits="userSpaceOnUse" x1="263.7861" y1="271.3943" x2="268.3995" y2="12.3761" gradientTransform="matrix(1 0 0 -1 -14.1953 362.5737)">
			<stop  offset="0" style="stop-color:#85DDFB"/>
			<stop  offset="1" style="stop-color:#FFFFFF;stop-opacity:0"/>
		</linearGradient>
		<polygon fill="url(#SVGID_3_)" points="54.022,314.192 53.364,207.422 125.203,204.127 127.839,161.946 166.066,161.287 
			165.407,121.083 189.134,96.038 253.064,94.061 253.064,131.628 271.52,131.628 272.837,188.969 289.313,188.969 290.632,169.195 
			367.086,170.514 366.428,146.128 398.063,144.15 396.745,94.061 450.131,147.446 442.222,314.852 		"/>
	</g>
	<path fill="#9BE2FD" d="M463.536,343.838l-409.509,1.76c0,0,37.788,49.211,136.21,57.119c0,0,73.816,48.332,121.27-3.516
		c0,0,64.149,14.938,84.361-22.409c0,0,32.515,7.472,55.363-20.211C451.232,356.581,460.461,356.58,463.536,343.838z"/>
	
		<linearGradient id="SVGID_4_" gradientUnits="userSpaceOnUse" x1="81.9912" y1="4.1052" x2="270.9279" y2="31.7866" gradientTransform="matrix(1 0 0 -1 -14.1953 362.5737)">
		<stop  offset="0" style="stop-color:#36C2F8"/>
		<stop  offset="1" style="stop-color:#FFFFFF;stop-opacity:0.3"/>
	</linearGradient>
	<path fill="url(#SVGID_4_)" d="M32.496,328.021c0,0,28.122,48.331,96.666,40.862c0,0,45.695,22.409,78.649-2.195
		c0,0,69.425-11.863,87.88-39.106L32.496,328.021z"/>
	<g>
		
			<linearGradient id="SVGID_5_" gradientUnits="userSpaceOnUse" x1="263.6904" y1="59.9934" x2="262.3724" y2="-48.9754" gradientTransform="matrix(1 0 0 -1 -14.1953 362.5737)">
			<stop  offset="0" style="stop-color:#00D2FF"/>
			<stop  offset="0" style="stop-color:#6DD5FA"/>
			<stop  offset="0.2759" style="stop-color:#72D6FA;stop-opacity:0.969"/>
			<stop  offset="1" style="stop-color:#FFFFFF;stop-opacity:0.1"/>
		</linearGradient>
		<path fill="url(#SVGID_5_)" d="M22.832,315.288l453.007,0.879c0,0-14.5,29.879-65.908,22.409c0,0-32.074,27.241-63.271,24.166
			c0,0-29.438,21.97-53.165,12.742c0,0-34.711,27.242-78.65,0c0,0-53.604,10.984-73.817-16.697c0,0-26.802,1.319-43.059-18.893
			C97.967,339.895,30.3,340.333,22.832,315.288z"/>
	</g>
	<g>
		<g>
			<circle cx="338.698" cy="283.094" r="4.297"/>
			<path opacity="0.05" enable-background="new    " d="M338.819,286.077c-0.66,0-1.193,0.536-1.193,1.194v0.407
				c0.774,0.252,1.611,0.252,2.387,0v-0.407C340.013,286.613,339.479,286.077,338.819,286.077z"/>
			<circle fill="#FDA57D" cx="338.819" cy="283.929" r="3.819"/>
			<path opacity="0.05" enable-background="new    " d="M335,283.757c0,0,0.954,0.245,1.49-0.84
				c0.537-1.085,0.957-1.677,3.163-1.037c2.209,0.642,2.65,0.723,2.759,0.115c0.073-0.415-0.712-1.421-1.218-2.019
				c-0.245-0.289-0.647-0.463-1.075-0.463h-2.493l-1.493,0.688L335,281.19l-0.239,1.334L335,283.757z"/>
			<path d="M335,283.637c0,0,0.954,0.243,1.49-0.84c0.537-1.084,0.957-1.678,3.163-1.036c2.209,0.643,2.65,0.72,2.759,0.112
				c0.073-0.413-0.712-1.421-1.218-2.017c-0.245-0.291-0.647-0.464-1.075-0.464h-2.493l-1.493,0.689L335,281.071l-0.239,1.332
				L335,283.637z"/>
			<ellipse fill="#FDA57D" cx="335.388" cy="283.631" rx="0.39" ry="0.775"/>
			<path d="M340.204,277.842c0.229,0.184,0.312,0.499,0.501,0.727c0.224,0.263,0.571,0.376,0.873,0.541
				c0.763,0.43,1.271,1.207,1.349,2.08c0.009,0.13,0,0.283-0.108,0.352c-0.066,0.032-0.144,0.047-0.219,0.04
				c-1.525-0.022-3.056-0.044-4.573-0.186c-0.474-0.044-0.948-0.098-1.423-0.08c-0.731,0.028-1.447,0.23-2.089,0.592"/>
			<path d="M335.109,281.637c-0.088-0.504-0.178-1.025-0.016-1.506c0.161-0.465,0.531-0.827,0.998-0.975
				c0.3-0.093,0.627-0.093,0.927-0.19c0.422-0.14,0.749-0.461,1.115-0.711c0.324-0.222,0.681-0.39,1.057-0.498"/>
			
				<linearGradient id="SVGID_6_" gradientUnits="userSpaceOnUse" x1="383.5996" y1="69.0413" x2="383.5996" y2="65.4016" gradientTransform="matrix(1 0 0 -1 -14.1953 362.5737)">
				<stop  offset="0" style="stop-color:#808080;stop-opacity:0.25"/>
				<stop  offset="0.54" style="stop-color:#808080;stop-opacity:0.12"/>
				<stop  offset="1" style="stop-color:#808080;stop-opacity:0.1"/>
			</linearGradient>
			<path fill="url(#SVGID_6_)" d="M371.029,293.532h-3.249v3.007c0,0.35,0.284,0.633,0.633,0.633h1.981"/>
			<path fill="#A0A0F9" d="M370.345,297.016h-1.805c-0.321,0-0.582-0.26-0.582-0.582l0,0v-2.744l0,0h2.968"/>
			<path fill="#EEEEEE" d="M369.622,291.525c-0.17-0.047-0.369-0.12-0.547-0.127c-0.175-0.007-0.363,0.051-0.534,0.078
				c-0.052,0.001-0.1,0.024-0.13,0.065c-0.04,0.069,0.03,0.149,0.095,0.198c0.121,0.09,0.245,0.181,0.326,0.304
				c0.08,0.122,0.105,0.296,0.017,0.417c-0.113,0.157-0.389,0.19-0.416,0.385c-0.018,0.12,0.09,0.229,0.198,0.29
				c0.267,0.153,0.611,0.194,0.805,0.434"/>
			<line fill="none" stroke="#E0E0E0" stroke-miterlimit="10" x1="347.712" y1="297.717" x2="341.505" y2="317.052"/>
			
				<linearGradient id="SVGID_7_" gradientUnits="userSpaceOnUse" x1="358.2539" y1="56.2327" x2="358.2539" y2="42.676" gradientTransform="matrix(1 0 0 -1 -14.1953 362.5737)">
				<stop  offset="0" style="stop-color:#808080;stop-opacity:0.25"/>
				<stop  offset="0.54" style="stop-color:#808080;stop-opacity:0.12"/>
				<stop  offset="1" style="stop-color:#808080;stop-opacity:0.1"/>
			</linearGradient>
			<path fill="url(#SVGID_7_)" d="M339.759,319.523c0,0,9.948-8.545,7.873-11.474c-0.396-0.562-0.794-1.138-1.192-1.709l1.564,0.144
				l0.357,13.413"/>
			
				<linearGradient id="SVGID_8_" gradientUnits="userSpaceOnUse" x1="562.2725" y1="721.4841" x2="562.2725" y2="718.1072" gradientTransform="matrix(1 0 0 1 -217.0752 -425.3164)">
				<stop  offset="0" style="stop-color:#808080;stop-opacity:0.25"/>
				<stop  offset="0.54" style="stop-color:#808080;stop-opacity:0.12"/>
				<stop  offset="1" style="stop-color:#808080;stop-opacity:0.1"/>
			</linearGradient>
			<path fill="url(#SVGID_8_)" d="M346.535,296.148l-2.93-0.85v-2.508l3.184,3.378C346.633,296.155,346.535,296.148,346.535,296.148
				z"/>
			<path fill="#A0A0F9" d="M343.594,292.941l3.278,3.479c0.242,0.26,0.646,0.271,0.905,0.028c0.048-0.046,0.09-0.098,0.121-0.154
				l3.631-6.518l-1.015-0.359l-2.981,4.298c0,0-5.605-5.84-6.389-5.549C340.362,288.456,343.594,292.941,343.594,292.941z"/>
			<line fill="none" stroke="#BDBDBD" stroke-miterlimit="10" x1="337.327" y1="304.995" x2="332.492" y2="317.527"/>
			<line fill="none" stroke="#BDBDBD" stroke-miterlimit="10" x1="339.714" y1="304.995" x2="344.548" y2="317.527"/>
			<ellipse fill="#B84733" cx="338.52" cy="305.084" rx="5.609" ry="1.521"/>
			<ellipse fill="#F55F44" cx="338.52" cy="304.967" rx="5.609" ry="1.521"/>
			<line fill="none" stroke="#BDBDBD" stroke-miterlimit="10" x1="336.251" y1="306.752" x2="341.543" y2="308.383"/>
			<line fill="none" x1="340.88" y1="307.748" x2="335.587" y2="309.38"/>
			<path fill="#A0A0F9" d="M338.585,288.047h1.666c1.846,0,3.343,1.496,3.343,3.343v8.832l0,0h-9.549l0,0v-7.634
				C334.044,290.081,336.075,288.047,338.585,288.047L338.585,288.047z"/>
			<path fill="#39447A" d="M334.045,300.221h9.549l0,0v5.19l0,0h-5.313c-2.34,0-4.236-1.896-4.236-4.234l0,0V300.221
				L334.045,300.221z"/>
			<path opacity="0.05" enable-background="new    " d="M334.172,291.631l5.841,5.552h6.444v-0.837l-5.55-1.611l-4.747-5.862
				C336.16,288.871,334.005,290.202,334.172,291.631z"/>
			<path fill="#A0A0F9" d="M334.172,291.512l5.841,5.551h6.444v-0.838l-5.55-1.611l-4.747-5.861
				C336.16,288.752,334.005,290.081,334.172,291.512z"/>
			<path fill="#FDA57D" d="M346.457,296.224c0,0,3.104,0.237,2.267,0.834h-2.267V296.224z"/>
			<path fill="#FDA57D" d="M350.516,289.419c0,0,0.774-2.327,1.313-1.671c0.538,0.658-0.299,2.03-0.299,2.03L350.516,289.419z"/>
			<polygon opacity="0.05" enable-background="new    " points="334.045,300.221 334.045,300.5 343.594,300.52 343.594,300.221 			
				"/>
			<path fill="#39447A" d="M350.542,318.694c0,0,3.44-14.86,0.161-16.113c-3.281-1.251-6.825-2.9-8.941-1.558
				c-2.115,1.346-0.291,4.721-0.291,4.721l6.424,0.587l0.35,13.112"/>
			<path opacity="0.1" enable-background="new    " d="M341.862,301.714c0,0,3.521,1.79,3.997,3.819"/>
			<path fill="#39447A" d="M339.834,319.08c0,0,9.729-8.354,7.699-11.22c-2.03-2.865-4.061-6.207-6.566-6.268
				c-2.506-0.059-2.864,3.762-2.864,3.762l5.014,4.058l-5.61,9.012"/>
			<polygon opacity="0.05" enable-background="new    " points="345.98,292.166 347.234,294.313 347.533,293.716 			"/>
			<path fill="#FDA57D" d="M338.819,285.959L338.819,285.959c0.658,0,1.192,0.534,1.192,1.192v1.194
				c0,0.658-0.534,1.193-1.192,1.193l0,0c-0.66,0-1.193-0.535-1.193-1.193v-1.194C337.626,286.493,338.159,285.959,338.819,285.959z
				"/>
			
				<linearGradient id="SVGID_9_" gradientUnits="userSpaceOnUse" x1="537.9893" y1="733.947" x2="548.4316" y2="733.947" gradientTransform="matrix(1 0 0 1 -217.0752 -425.3164)">
				<stop  offset="0" style="stop-color:#808080;stop-opacity:0.25"/>
				<stop  offset="0.54" style="stop-color:#808080;stop-opacity:0.12"/>
				<stop  offset="1" style="stop-color:#808080;stop-opacity:0.1"/>
			</linearGradient>
			<path fill="url(#SVGID_9_)" d="M327.098,315.943c0.356-0.481,0.734-0.936,1.291-1.12c0.557-0.186,1.228-0.074,1.66-0.463
				c0.213-0.189,0.326-0.468,0.38-0.747c0.09-0.506,0.004-1.03-0.244-1.479c-0.176-0.313-0.433-0.598-0.484-0.948
				c-0.048-0.304,0.058-0.608,0.207-0.875c0.421-0.766,1.164-1.356,1.391-2.199c0.2-0.813-0.119-1.665-0.807-2.148
				c-0.179-0.118-0.373-0.209-0.536-0.347c-0.271-0.229-0.428-0.568-0.54-0.908c-0.271-0.809-0.354-1.717-0.828-2.449
				c-0.431-0.667-1.269-0.86-2.014-0.93c-0.271-0.022-0.556-0.037-0.803,0.076c-0.415,0.188-0.612,0.679-0.632,1.133
				c-0.019,0.458,0.1,0.903,0.13,1.357c0.029,0.453-0.053,0.957-0.388,1.261c-0.335,0.307-0.813,0.345-1.259,0.408
				c-0.582,0.08-1.153,0.222-1.706,0.424c-0.463,0.167-0.979,0.474-1.001,0.965c-0.02,0.403,0.306,0.724,0.552,1.045
				c0.454,0.599,0.684,1.392,0.528,2.127c-0.157,0.751-0.685,1.394-0.782,2.156c-0.021,0.191-0.017,0.397,0.078,0.569
				c0.075,0.119,0.172,0.223,0.288,0.305c0.287,0.22,0.605,0.399,0.878,0.638c0.563,0.502,0.871,1.229,1.105,1.944
				c0.022,0.069,0.043,0.141,0.064,0.209"/>
			<path fill="#4DB6AC" d="M325.759,317.011c1.054-0.518,1.408-2.014,2.521-2.39c0.525-0.175,1.166-0.071,1.583-0.438
				c0.201-0.181,0.308-0.447,0.355-0.711c0.089-0.481,0.008-0.979-0.229-1.405c-0.168-0.299-0.411-0.565-0.464-0.904
				c-0.045-0.287,0.06-0.578,0.198-0.834c0.4-0.728,1.108-1.292,1.322-2.092c0.193-0.777-0.112-1.59-0.766-2.049
				c-0.169-0.115-0.356-0.198-0.514-0.333c-0.261-0.217-0.405-0.54-0.514-0.862c-0.259-0.771-0.338-1.637-0.789-2.334
				c-0.41-0.634-1.207-0.819-1.916-0.884c-0.258-0.023-0.527-0.033-0.764,0.073c-0.396,0.179-0.585,0.645-0.604,1.076
				c-0.019,0.434,0.095,0.86,0.124,1.293c0.026,0.434-0.051,0.908-0.37,1.201c-0.318,0.294-0.773,0.326-1.196,0.385
				c-0.557,0.079-1.102,0.215-1.626,0.404c-0.441,0.16-0.936,0.45-0.955,0.921c-0.019,0.384,0.293,0.69,0.524,0.994
				c0.437,0.571,0.651,1.324,0.506,2.026c-0.152,0.716-0.652,1.327-0.744,2.052c-0.021,0.184-0.017,0.38,0.071,0.541
				c0.072,0.115,0.165,0.215,0.275,0.29c0.272,0.212,0.576,0.382,0.837,0.61c0.535,0.478,0.829,1.169,1.053,1.85
				c0.223,0.673,0.395,1.359,0.52,2.055"/>
			<path opacity="0.6" fill="none" stroke="#535461" stroke-miterlimit="10" enable-background="new    " d="M326.543,301.803
				c0,0,0.979,13.104-1.565,15.357"/>
			<path fill="#A0A0F9" d="M321.26,317.648c0-1.08,0.877-1.955,1.958-1.955h5.283c1.079,0,1.956,0.875,1.956,1.955"/>
			<path opacity="0.6" fill="none" stroke="#535461" stroke-miterlimit="10" enable-background="new    " d="M321.163,306.889
				c0,0,2.501-0.292,5.554,1.564"/>
			<path opacity="0.6" fill="none" stroke="#535461" stroke-miterlimit="10" enable-background="new    " d="M326.669,310.018
				c0,0,1.389-2.298,4.374-2.737"/>
			<path opacity="0.6" fill="none" stroke="#535461" stroke-miterlimit="10" enable-background="new    " d="M321.406,312.222
				c0,0,3.467-0.588,5.061,0.392"/>
			<path opacity="0.6" fill="none" stroke="#535461" stroke-miterlimit="10" enable-background="new    " d="M326.269,313.956
				c0,0,1.814-0.824,3.857-0.152"/>
			
				<linearGradient id="SVGID_10_" gradientUnits="userSpaceOnUse" x1="572.7021" y1="727.0378" x2="572.7021" y2="726.8582" gradientTransform="matrix(1 0 0 1 -217.0752 -425.3164)">
				<stop  offset="0" style="stop-color:#808080;stop-opacity:0.25"/>
				<stop  offset="0.54" style="stop-color:#808080;stop-opacity:0.12"/>
				<stop  offset="1" style="stop-color:#808080;stop-opacity:0.1"/>
			</linearGradient>
			<path fill="url(#SVGID_10_)" d="M355.628,301.723c0.051,0,0.088-0.038,0.088-0.09c0-0.05-0.037-0.09-0.088-0.09
				s-0.09,0.04-0.09,0.09C355.538,301.685,355.577,301.723,355.628,301.723z"/>
			<line fill="none" stroke="#E0E0E0" stroke-miterlimit="10" x1="368.763" y1="297.717" x2="374.971" y2="319.803"/>
			<polyline fill="#E0E0E0" points="374.994,298.373 341.479,298.373 341.479,297.068 374.994,297.068 			"/>
			<path fill="#535461" d="M350.128,296.761h4.715c0.213,0,0.389,0.174,0.389,0.387l0,0c0,0.216-0.176,0.389-0.389,0.389h-4.715
				c-0.214,0-0.388-0.173-0.388-0.389l0,0C349.74,296.935,349.914,296.761,350.128,296.761z"/>
			<g opacity="0.7">
				
					<linearGradient id="SVGID_11_" gradientUnits="userSpaceOnUse" x1="430.0996" y1="646.9685" x2="430.0996" y2="637.5369" gradientTransform="matrix(1 0 0 1 -70.1953 -349.4258)">
					<stop  offset="0" style="stop-color:#808080;stop-opacity:0.25"/>
					<stop  offset="0.54" style="stop-color:#808080;stop-opacity:0.12"/>
					<stop  offset="1" style="stop-color:#808080;stop-opacity:0.1"/>
				</linearGradient>
				<path fill="url(#SVGID_11_)" d="M354.765,288.111h10.278c0.932,0,1.686,0.754,1.686,1.684v6.067
					c0,0.931-0.754,1.682-1.686,1.682h-10.278c-0.931,0-1.684-0.751-1.684-1.682v-6.067
					C353.081,288.865,353.834,288.111,354.765,288.111z"/>
			</g>
			<path fill="#3E3F49" d="M354.927,288.285h9.724c0.885,0,1.602,0.717,1.602,1.601v6.059c0,0.885-0.717,1.601-1.602,1.601h-9.724
				c-0.886,0-1.602-0.716-1.602-1.601v-6.059C353.325,289.002,354.041,288.285,354.927,288.285z"/>
			<path fill="#535461" d="M355.104,288.285h9.725c0.885,0,1.602,0.717,1.602,1.601v6.059c0,0.885-0.717,1.601-1.602,1.601h-9.725
				c-0.886,0-1.602-0.716-1.602-1.601v-6.059C353.503,289.002,354.219,288.285,355.104,288.285z"/>
			<circle fill="#E0E0E0" cx="360.571" cy="292.852" r="0.418"/>
		</g>
		<path fill="#544B3E" d="M338.378,317.352c0,0-4.446,3.926-0.725,4.03c0,0,4.859,0.312,5.996-0.619
			C343.649,320.763,338.689,319.832,338.378,317.352z"/>
		<path fill="#544B3E" d="M349.232,316.938c0,0-4.446,3.926-0.727,4.031c0,0,4.861,0.31,5.996-0.62
			C354.503,320.35,349.541,319.419,349.232,316.938z"/>
	</g>
	<g>
		<path fill="#666CE5" d="M404.488,285.905c0,0,1.224,10.338,18.903,14.01c0,0,21.221,1.769,25.709-7.208
			c0,0,1.903-4.49-6.527-6.121c0,0-9.93-2.177,2.039-14.281c0,0,6.393-8.568-4.761-7.89c0,0-6.527-2.721,2.856-8.434
			c0,0,7.208-6.529-6.396-6.529c0,0-5.712-1.769,3.267-11.563c0,0,10.201-15.912-5.168-13.193c0,0-6.938,4.354-8.843,14.01
			c0,0-17.001-4.625-9.521,11.425c0,0,5.305,12.242-7.345,9.793c0,0-11.153,3.674,2.177,13.33c0,0,8.024,6.803-0.544,9.114
			C410.337,282.369,403.398,282.912,404.488,285.905z"/>
		<path fill="none" stroke="#2E2E33" stroke-miterlimit="10" d="M431.555,240.339c0,0-3.031,19.33-4.929,40.668
			c-1.109,12.482-1.829,25.653-1.328,36.046"/>
		<path fill="none" stroke="#2E2E33" stroke-miterlimit="10" d="M419.115,244.221c0,0,9.521,6.801,10.201,10.337"/>
		<path fill="none" stroke="#2E2E33" stroke-miterlimit="10" d="M411.226,264.687c0,0,14.01,3.399,16.187,9.794"/>
		<path fill="none" stroke="#2E2E33" stroke-miterlimit="10" d="M425.633,295.426c0,0,10.809-4.143,16.93-3.054"/>
		<path fill="none" stroke="#2E2E33" stroke-miterlimit="10" d="M426.626,281.008c0,0,10.234-11.153,15.947-12.784"/>
		<path fill="none" stroke="#2E2E33" stroke-miterlimit="10" d="M429.105,260.471c0,0,8.978-7.074,12.241-7.21"/>
		<path fill="none" stroke="#2E2E33" stroke-miterlimit="10" d="M425.78,291.689c0,0-13.875-5.711-17.274-5.438"/>
	</g>
	<g>
		<path fill="#666CE5" d="M29.962,292.716c0,0,0.98,8.278,15.141,11.221c0,0,16.993,1.416,20.588-5.773c0,0,1.524-3.596-5.229-4.9
			c0,0-7.951-1.743,1.634-11.438c0,0,5.12-6.862-3.812-6.318c0,0-5.229-2.179,2.288-6.754c0,0,5.772-5.229-5.121-5.229
			c0,0-4.575-1.416,2.615-9.259c0,0,8.17-12.744-4.139-10.566c0,0-5.556,3.486-7.081,11.219c0,0-13.616-3.703-7.625,9.15
			c0,0,4.248,9.804-5.883,7.844c0,0-8.933,2.941,1.743,10.675c0,0,6.427,5.446-0.435,7.3
			C34.646,289.884,29.09,290.319,29.962,292.716z"/>
		<path fill="none" stroke="#2E2E33" stroke-miterlimit="10" d="M51.639,256.225c0,0-2.429,15.479-3.948,32.568
			c-0.889,9.996-1.465,20.544-1.063,28.866"/>
		<path fill="none" stroke="#2E2E33" stroke-miterlimit="10" d="M41.676,259.332c0,0,7.626,5.446,8.17,8.278"/>
		<path fill="none" stroke="#2E2E33" stroke-miterlimit="10" d="M35.358,275.723c0,0,11.22,2.723,12.963,7.843"/>
		<path fill="none" stroke="#2E2E33" stroke-miterlimit="10" d="M46.896,300.34c0,0,8.656-3.315,13.558-2.444"/>
		<path fill="none" stroke="#2E2E33" stroke-miterlimit="10" d="M47.691,288.794c0,0,8.196-8.933,12.771-10.238"/>
		<path fill="none" stroke="#2E2E33" stroke-miterlimit="10" d="M49.677,272.346c0,0,7.189-5.665,9.804-5.773"/>
		<path fill="none" stroke="#2E2E33" stroke-miterlimit="10" d="M47.014,297.349c0,0-11.112-4.575-13.834-4.356"/>
	</g>
	<g>
		<line fill="none" stroke="#303435" stroke-miterlimit="10" x1="125.336" y1="283.503" x2="131.372" y2="304.55"/>
		<line fill="none" stroke="#303435" stroke-miterlimit="10" x1="129.669" y1="303.929" x2="121.932" y2="323.428"/>
		<line fill="none" stroke="#303435" stroke-miterlimit="10" x1="134.466" y1="304.239" x2="139.109" y2="323.582"/>
		<line fill="none" stroke="#303435" stroke-miterlimit="10" x1="171.296" y1="282.885" x2="177.485" y2="304.858"/>
		<line fill="none" stroke="#303435" stroke-miterlimit="10" x1="174.236" y1="302.848" x2="169.439" y2="321.105"/>
		<line fill="none" stroke="#303435" stroke-miterlimit="10" x1="180.891" y1="304.394" x2="185.224" y2="320.796"/>
		<g>
			<path fill="#9FF2FF" d="M177.177,286.134c0,1.197-0.969,2.167-2.166,2.167h-59.579c-1.196,0-2.166-0.97-2.166-2.167l0,0
				c0-1.196,0.969-2.165,2.166-2.165h59.579C176.208,283.968,177.177,284.937,177.177,286.134L177.177,286.134z"/>
			<path fill="#9FF2FF" d="M179.498,291.898c0,1.197-0.969,2.165-2.166,2.165h-59.578c-1.197,0-2.167-0.968-2.167-2.165l0,0
				c0-1.197,0.97-2.165,2.167-2.165h59.578C178.528,289.733,179.498,290.701,179.498,291.898L179.498,291.898z"/>
			<path fill="#9FF2FF" d="M181.045,297.663c0,1.197-0.969,2.166-2.167,2.166h-59.577c-1.198,0-2.167-0.969-2.167-2.166l0,0
				c0-1.197,0.969-2.167,2.167-2.167h59.577C180.076,295.496,181.045,296.466,181.045,297.663L181.045,297.663z"/>
			<path fill="#9FF2FF" d="M185.224,303.427c0,1.196-1.038,2.167-2.319,2.167h-63.761c-1.281,0-2.318-0.971-2.318-2.167l0,0
				c0-1.197,1.037-2.167,2.318-2.167h63.761C184.187,301.26,185.224,302.229,185.224,303.427L185.224,303.427z"/>
			<path fill="#9FF2FF" d="M187.236,309.191c0,1.197-0.956,2.167-2.135,2.167h-58.712c-1.18,0-2.136-0.97-2.136-2.167l0,0
				c0-1.197,0.956-2.166,2.136-2.166h58.712C186.28,307.025,187.236,307.994,187.236,309.191L187.236,309.191z"/>
		</g>
	</g>
	<g>
		<path fill="#E2C4A9" d="M146.672,287.169c0,0-2.927,2.827-3.948,3.193c0,0,0.352,0.751,1.499,0.761c0,0,1.812-0.604,4.295,0.874
			c0,0,0.821-1.348,1.594-1.552c0,0-2.544,0.74-3.586-1.634c0,0,0.171-1.554,0.214-1.757"/>
		<path fill="#EBD2A7" d="M152.6,285.693c0,0-0.612,1.718-0.311,2.853l-0.547,0.874l-0.563-0.286c0,0-0.883,1.984-2.421,1.589
			c0,0-1.725-0.271-2.208-1.358c0,0-0.438-1.559-0.157-2.24l-0.013-2.16l2.295-1.24l2.144,0.014L152.6,285.693z"/>
		<path fill="#683A1C" d="M148.909,282.589c0,0,1.134-1.954,5.212,1.874c0,0-1.912,2.964-4.816-0.106l-1.359,2.208
			c0,0-0.19-1.261-0.966-0.983c0,0-0.542,0.338-0.174,1.358l-0.479,0.76l-0.459-0.267c0,0,0.036-5.818,2.865-4.868"/>
		<path fill="#EBD2A7" d="M152.795,295.462c0,0-0.662,6.301,5.982,6.471c0,0,2.135,0.488,3.037-1.062c0,0,0.405-1.494-2.15-0.27
			c0,0-3.426-0.549-4.889-2.493l-0.792-2.706L152.795,295.462z"/>
		<path fill="#FBFFFF" d="M148.426,291.79c0,0-2.496-1.986-4.5-0.651c0,0-0.768-0.331-0.888-0.785c0,0-3.184-0.274-1.809,7.747
			c0,0,1.794,1.079,2.668,0.896c0,0,1.674-3.676,1.596-5.526c0,0-0.769,6.353,0.318,9.903l8.284-1.299c0,0-2.823-7.709-2.432-8.979
			c0,0,0.513,2.755,0.982,3.335l2.197-0.146c0,0-1.509-5.142-4.576-5.615C150.268,290.67,149.011,290.786,148.426,291.79z"/>
		<path fill="#D1D4D8" d="M145.701,293.474c0,0-1.546,3.654-0.393,7.724l1.071-0.357C146.38,300.84,144.707,295.087,145.701,293.474
			z"/>
		<path fill="#D1D4D8" d="M151.572,292.792c0,0-0.245,1.413,0.788,3.108l0.572-0.591
			C152.932,295.31,151.577,293.773,151.572,292.792z"/>
		<path fill="#EBD2A7" d="M141.229,297.505c0,0-0.402,6.45,3.391,5.771c0,0,9.186-1.926,9.958-1.769c0,0,2.803,0.533,3.623-0.086
			c0,0,0.034-3.033-4.827-1.015c0,0-9.059,0.618-9.394-1.882l0.131-0.327L141.229,297.505z"/>
		<path fill="#EBD2A7" d="M173.204,313.286l2.555,2.855c0,0,1.258-1.842,1.23-2.509l-2.396-1.747L173.204,313.286z"/>
		<path fill="#24486A" d="M152.157,302.005c0,0,7.465,0.243,11.69,1.604c0,0,7.639,4.604,11.329,8.076l-1.523,2.225
			c0,0-8.615-4.019-10.006-6.385c0,0-9.219-3.276-10.555-4.053L152.157,302.005z"/>
		<path fill="#EBD2A7" d="M163.642,317.954l-1.143,3.655c0,0,2.225,0.138,2.783-0.229l0.274-2.952L163.642,317.954z"/>
		<path fill="#1B396D" d="M145.269,303.249c0,0,3.696,9.811,11.281,7.068c0,0,4.474-0.858,4.913-0.719
			c0.438,0.139,0.307,4.035,1.409,6.406c0,0,0.172,1.888,0.023,2.839c0,0,1.931,0.546,2.948-0.021c0,0,1.016-11.971-1.212-14.188
			c0,0-0.733-2.21-8.982-1.699c0,0-1.259-0.212-2.043-1.243L145.269,303.249z"/>
		<path fill="#481324" d="M162.071,320.956c0,0-1.171,1.225,1.789,3.172c0,0,2.07,3.681,4.75,2.241c0,0-0.402-0.695-2.072-3.277
			c0,0-0.509-1.507-0.618-1.918C165.812,320.77,163.403,322.138,162.071,320.956z"/>
		<path fill="#481324" d="M174.221,314.866c0,0-0.277,1.671,3.266,1.612c0,0,3.786,1.868,5.186-0.831c0,0-0.725-0.348-3.56-1.54
			c0,0-1.27-0.955-1.589-1.229C177.204,312.599,175.986,315.087,174.221,314.866z"/>
	</g>
	<g>
		<path fill="#DFE2EC" d="M152.762,301.041v-0.063c0-0.16,0.128-0.319,0.32-0.319h8.384c0.161,0,0.321,0.127,0.321,0.319v0.063
			c0,0.159-0.128,0.318-0.321,0.318h-8.384C152.89,301.359,152.729,301.2,152.762,301.041z"/>
		<path fill="#707176" d="M152.825,300.912c-0.032,0.032-0.032,0.064-0.032,0.097c0,0.191,0.16,0.352,0.352,0.352h8.352
			c0.192,0,0.352-0.159,0.352-0.352c0-0.031-0.032-0.063-0.032-0.097c-0.063,0.159-0.191,0.288-0.352,0.288h-8.352
			C152.921,301.2,152.793,301.104,152.825,300.912z"/>
		<path fill="#DFE2EC" d="M161.05,300.593l3.36-6.017c0.032-0.031,0.064-0.063,0.127-0.031l0,0c0.032,0.031,0.064,0.063,0.032,0.126
			l-3.36,6.018c-0.032,0.063-0.097,0.063-0.16,0.032l0,0C161.018,300.688,160.986,300.623,161.05,300.593z"/>
		<path fill="#707176" d="M161.082,300.72c0.063,0.031,0.096,0,0.128-0.032l3.36-5.982c0.032-0.063,0.032-0.129-0.032-0.16
			c-0.032-0.032-0.063,0-0.096,0h0.032c0.032,0.031,0.063,0.097,0.032,0.16l-3.36,5.982
			C161.146,300.72,161.113,300.72,161.082,300.72z"/>
		<g>
			<rect x="155.065" y="300.816" fill="#191C3C" width="0.672" height="0.255"/>
		</g>
		<g>
			<rect x="154.297" y="300.816" fill="#191C3C" width="0.672" height="0.255"/>
		</g>
		<g>
			<rect x="159.834" y="300.848" fill="#191C3C" width="0.672" height="0.257"/>
		</g>
	</g>
	<g>
		<circle fill="#6670DE" cx="199.243" cy="217.744" r="36.908"/>
		<circle fill="#FFFFFF" cx="199.243" cy="217.744" r="30.318"/>
	</g>
	<g>
		<circle fill="#29A8F4" cx="300.083" cy="238.176" r="36.908"/>
		<circle fill="#FFFFFF" cx="300.083" cy="238.176" r="30.317"/>
	</g>
	<g>
		<polygon fill="#DDB28A" points="297.665,246.677 297.665,258.268 304.679,258.115 303.307,246.829 		"/>
		<path fill="#EEC9A3" d="M290.956,236.922c0,0-3.507,0.915,0.458,4.116c0,0,3.354,10.061,11.433,7.926c0,0,3.658-0.152,5.487-6.859
			l0.306-0.915c0,0,3.966-3.2,0.915-3.812l0.151-7.623l-8.382-3.657l-6.71,1.677L290.956,236.922z"/>
		<path fill="#233365" d="M290.959,236.159l-0.152-5.945c0,0,0.153-5.486,9.301-6.097c0,0,6.555-0.457,9.756,5.945l-0.61,7.926
			l-1.829,0.915l0.304-6.859c0,0-11.735,1.22-14.327-0.305l-0.151,7.012l-2.136-2.134"/>
		<path fill="#2C3668" d="M292.788,257.352c0,0-7.317,3.048-8.843,6.554c0,0,12.652,16.616,36.89,0c0,0-5.64-7.926-13.413-7.163"/>
		<polygon fill="#D4491C" points="298.579,261.315 300.714,263.907 303,261.315 301.934,258.268 299.342,258.268 298.121,259.333 		
			"/>
		<path fill="#F7FEFA" d="M296.6,255.031l3.963,4.269l-3.812,4.725l-4.571-8.23C292.18,255.793,294.618,254.574,296.6,255.031z"/>
		<path fill="#F7FEFA" d="M304.523,255.031l-3.963,4.269l3.812,4.725l4.573-8.23C308.945,255.793,306.505,254.574,304.523,255.031z"
			/>
	</g>
	<g>
		<polyline fill="#E1C5B8" points="197.031,230.209 195.876,240.072 202.907,239.758 202.278,230 197.031,229.789 		"/>
		<path fill="#EEC3BA" d="M190.316,223.719c0,0-2.729,1.363,0.838,3.986l1.26,1.154l0.525,4.092l3.462,1.469l5.666,0.524
			l3.986-1.994l0.525-3.463l2.624-0.419l0.314-3.253c0,0,0.419-2.414-1.05-2.204l0.42-7.764l-3.987-5.562l-6.925,0.315l-5.457,1.468
			l-2.833,10.808"/>
		<polygon fill="#846B6A" points="189.896,223.516 189.896,213.233 198.814,208.512 202.907,208.722 202.697,209.456 
			207.839,209.351 206.579,211.24 209.936,211.24 208.363,213.863 209.517,216.067 208.467,223.613 208.048,222.887 207.733,217.22 
			202.487,213.654 198.185,214.597 197.765,212.918 194.512,213.758 191.89,216.381 		"/>
		<path fill="#846B6A" d="M194.037,218.262c-2.145,0-3.882,1.737-3.882,3.882c0,2.144,1.738,3.882,3.882,3.882
			s3.882-1.737,3.882-3.882C197.919,219.999,196.182,218.262,194.037,218.262z M194.037,225.569c-1.894,0-3.425-1.532-3.425-3.425
			c0-1.894,1.532-3.425,3.425-3.425c1.895,0,3.425,1.531,3.425,3.425C197.462,224.037,195.932,225.569,194.037,225.569z"/>
		<path fill="#846B6A" d="M204.851,218.262c-2.144,0-3.882,1.737-3.882,3.882c0,2.144,1.738,3.882,3.882,3.882
			c2.145,0,3.882-1.737,3.882-3.882C208.733,219.999,206.996,218.262,204.851,218.262z M204.851,225.569
			c-1.893,0-3.424-1.532-3.424-3.425c0-1.894,1.531-3.425,3.424-3.425c1.894,0,3.427,1.531,3.427,3.425
			C208.278,224.037,206.745,225.569,204.851,225.569z"/>
		<rect x="197.642" y="221.452" fill="#846B6A" width="3.604" height="0.277"/>
		<path fill="#E8934D" d="M186.538,245.963c0,0,10.913-14.689,26.336-0.943C212.875,245.019,202.382,254.566,186.538,245.963z"/>
		<path fill="#A86238" d="M195.667,239.457c0,0,3.672,1.021,7.24,0.301l-0.105-1.35l-6.715-0.315L195.667,239.457z"/>
	</g>
	<path fill="#FFFFFF" d="M286.857,179.736c5.541-3.709,9.151-8.858,9.66-14.79c1.118-13.067-13.205-24.964-31.994-26.572
		c-18.791-1.607-34.928,7.681-36.047,20.747c-0.448,5.233,1.585,10.276,5.385,14.547l-8.693,15.961l15.793-10.11
		c5.355,3.29,12.081,5.539,19.51,6.175c6.78,0.581,13.213-0.264,18.721-2.188l12.981,11.86L286.857,179.736z"/>
	<path d="M265.499,166.887l0.039-0.255c0.05-0.315,0.073-0.636,0.073-0.955c0-0.318-0.023-0.642-0.073-0.957l-0.039-0.255
		l1.03-0.916c0.207-0.186,0.26-0.497,0.119-0.739l-1.1-1.903c-0.105-0.183-0.303-0.296-0.514-0.296c-0.063,0-0.127,0.01-0.188,0.03
		l-1.313,0.436l-0.2-0.163c-0.5-0.403-1.056-0.726-1.651-0.956l-0.24-0.092l-0.278-1.352c-0.058-0.274-0.302-0.474-0.58-0.474
		h-2.199c-0.278,0-0.522,0.199-0.579,0.474l-0.277,1.352l-0.24,0.093c-0.598,0.229-1.153,0.552-1.65,0.956l-0.201,0.163
		l-1.313-0.436c-0.063-0.021-0.124-0.031-0.188-0.031c-0.211,0-0.406,0.114-0.513,0.297l-1.101,1.904
		c-0.141,0.242-0.09,0.553,0.119,0.737l1.033,0.918l-0.043,0.254c-0.049,0.315-0.074,0.636-0.074,0.956
		c0,0.319,0.025,0.641,0.076,0.957l0.041,0.254l-1.031,0.916c-0.211,0.186-0.26,0.497-0.12,0.738l1.1,1.904
		c0.104,0.183,0.302,0.297,0.513,0.297c0.063,0,0.127-0.01,0.188-0.03l1.313-0.437l0.201,0.163c0.498,0.405,1.053,0.727,1.65,0.957
		l0.242,0.093l0.275,1.353c0.057,0.272,0.303,0.472,0.582,0.472h2.197c0.28,0,0.523-0.199,0.579-0.474l0.278-1.353l0.242-0.092
		c0.596-0.229,1.149-0.551,1.649-0.956l0.2-0.163l1.313,0.436c0.06,0.021,0.123,0.03,0.187,0.03c0.211,0,0.409-0.113,0.515-0.297
		l1.1-1.904c0.14-0.243,0.09-0.553-0.121-0.737L265.499,166.887L265.499,166.887z M259.486,168.266c-1.426,0-2.59-1.161-2.59-2.589
		s1.164-2.589,2.59-2.589c1.428,0,2.589,1.161,2.589,2.589C262.075,167.104,260.914,168.266,259.486,168.266L259.486,168.266z
		 M273.139,159.358l-0.313-0.247c0.016-0.115,0.021-0.23,0.016-0.346c-0.008-0.116-0.025-0.23-0.057-0.344l0.283-0.281
		c0.045-0.046,0.054-0.119,0.018-0.175l-0.336-0.51c-0.036-0.056-0.105-0.077-0.167-0.053l-0.372,0.148
		c-0.182-0.145-0.393-0.25-0.615-0.31l-0.104-0.386c-0.018-0.063-0.075-0.107-0.141-0.104l-0.61,0.036
		c-0.063,0.004-0.119,0.054-0.13,0.119l-0.057,0.396c-0.217,0.085-0.412,0.214-0.574,0.379l-0.388-0.104
		c-0.063-0.018-0.13,0.013-0.161,0.072l-0.271,0.545c-0.031,0.059-0.014,0.13,0.037,0.171l0.313,0.248
		c-0.017,0.114-0.022,0.23-0.016,0.346s0.024,0.23,0.056,0.343l-0.283,0.281c-0.047,0.046-0.055,0.12-0.019,0.176l0.336,0.51
		c0.036,0.055,0.106,0.077,0.168,0.053l0.372-0.149c0.182,0.146,0.391,0.25,0.615,0.311l0.103,0.386
		c0.017,0.064,0.076,0.106,0.142,0.104l0.61-0.036c0.064-0.003,0.118-0.054,0.13-0.118l0.057-0.396
		c0.219-0.085,0.414-0.215,0.574-0.378l0.389,0.104c0.063,0.017,0.129-0.014,0.158-0.072l0.273-0.546
		C273.207,159.471,273.189,159.399,273.139,159.358L273.139,159.358z M271.212,159.606c-0.41,0.023-0.764-0.29-0.788-0.7
		c-0.021-0.41,0.291-0.763,0.701-0.787c0.41-0.022,0.764,0.291,0.787,0.7C271.936,159.229,271.621,159.582,271.212,159.606z
		 M269.618,156.367l0.151-1.055c0.018-0.113-0.049-0.224-0.156-0.262l-0.656-0.237c-0.035-0.198-0.091-0.395-0.165-0.581
		c-0.074-0.188-0.17-0.367-0.282-0.536l0.313-0.624c0.052-0.103,0.022-0.228-0.066-0.298l-0.837-0.66
		c-0.09-0.071-0.219-0.069-0.306,0.005l-0.534,0.451c-0.376-0.138-0.78-0.199-1.188-0.173l-0.384-0.583
		c-0.063-0.096-0.187-0.134-0.294-0.091l-0.988,0.395c-0.105,0.042-0.17,0.155-0.148,0.269l0.124,0.687
		c-0.314,0.263-0.564,0.586-0.741,0.944l-0.698,0.042c-0.116,0.006-0.21,0.092-0.227,0.207l-0.151,1.054
		c-0.018,0.114,0.049,0.224,0.156,0.263l0.656,0.237c0.035,0.199,0.091,0.393,0.164,0.581c0.076,0.188,0.171,0.368,0.281,0.536
		l-0.312,0.623c-0.052,0.103-0.022,0.227,0.065,0.299l0.838,0.66c0.09,0.07,0.219,0.068,0.307-0.005l0.535-0.451
		c0.375,0.137,0.779,0.199,1.188,0.173l0.383,0.583c0.064,0.096,0.188,0.134,0.295,0.091l0.988-0.395
		c0.106-0.043,0.17-0.155,0.148-0.269l-0.123-0.687c0.313-0.264,0.563-0.586,0.74-0.944l0.697-0.041
		C269.508,156.567,269.602,156.48,269.618,156.367L269.618,156.367z M266.559,156.523c-0.666,0.266-1.424-0.06-1.689-0.726
		s0.061-1.424,0.727-1.688c0.664-0.266,1.422,0.06,1.688,0.726C267.549,155.5,267.225,156.258,266.559,156.523z"/>
</g>
<g id="XMLID_330_">
	<g id="XMLID_347_">
		<path id="XMLID_802_" fill="#2873EA" d="M406.127,317.14h-18.214v-11.313c0-0.072,0.062-0.134,0.134-0.134h17.946
			c0.072,0,0.134,0.062,0.134,0.134V317.14L406.127,317.14z"/>
		<rect id="XMLID_799_" x="388.854" y="306.727" fill="#19A0FF" width="16.345" height="9.494"/>
		<path id="XMLID_362_" fill="#E7EAF3" d="M407.191,317.646h-20.332l0,0c0.578,0.578,1.362,0.897,2.18,0.897h15.973
			C405.828,318.545,406.603,318.225,407.191,317.646L407.191,317.646z"/>
		<rect id="XMLID_361_" x="386.859" y="317.078" fill="#F6F9FC" width="20.332" height="0.568"/>
		<path id="XMLID_360_" fill="#E7EAF3" d="M398.275,317.522h-2.521c-0.082,0-0.154-0.072-0.154-0.155l0,0
			c0-0.082,0.072-0.155,0.154-0.155h2.521c0.083,0,0.154,0.073,0.154,0.155l0,0C398.431,317.45,398.368,317.522,398.275,317.522z"/>
	</g>
	<g id="XMLID_311_">
		<polygon id="XMLID_781_" fill="#FFFFFF" points="388.854,316.21 388.854,313.432 390.393,312.873 390.393,316.21 		"/>
		<polygon id="XMLID_832_" fill="#FFC107" points="390.393,316.21 390.393,312.873 391.922,312.584 391.922,316.21 		"/>
		<polygon id="XMLID_846_" fill="#FFC107" points="393.461,316.21 393.461,311.871 395,311.5 395,316.21 		"/>
		<polygon id="XMLID_848_" fill="#FFC107" points="396.54,316.21 396.54,310.136 398.079,310.497 398.079,316.21 		"/>
		<polygon id="XMLID_866_" fill="#FFC107" points="399.69,316.21 399.69,308.875 401.22,310.497 401.22,316.21 		"/>
		<polygon id="XMLID_883_" fill="#FFC107" points="402.842,316.21 402.842,311.014 404.371,310.497 404.371,316.21 		"/>
		<polygon id="XMLID_833_" fill="#FFFFFF" points="391.922,316.21 391.922,312.584 393.461,311.871 393.461,316.21 		"/>
		<polygon id="XMLID_847_" fill="#FFFFFF" points="395,316.21 395,311.5 396.54,310.156 396.54,316.21 		"/>
		<polygon id="XMLID_850_" fill="#FFFFFF" points="398.069,316.21 398.069,310.518 399.69,308.886 399.69,316.21 		"/>
		<polygon id="XMLID_881_" fill="#FFFFFF" points="401.22,316.21 401.22,310.518 402.842,311.023 402.842,316.21 		"/>
		<polygon id="XMLID_884_" fill="#FFFFFF" points="404.371,316.21 404.371,310.518 405.197,311.023 405.197,316.21 		"/>
	</g>
	<path id="XMLID_333_" opacity="0.3" fill="#191C3C" enable-background="new    " d="M396.57,305.693
		c0.011,0.01,0.011,0.021,0.021,0.041c0.496,0.785,1.188,1.302,1.942,1.591l1.001,1.468c0.094,0.146,0.301,0.146,0.403,0
		l0.898-1.302c0.971-0.218,1.869-0.796,2.479-1.757c0.01-0.011,0.01-0.021,0.021-0.031L396.57,305.693L396.57,305.693z"/>
	<g id="XMLID_864_">
		<path id="XMLID_854_" fill="#FFC107" d="M399.546,308.308l-1.002-1.469c-0.765-0.288-1.446-0.815-1.942-1.591
			c-0.836-1.321-0.806-3.067,0.083-4.35c1.611-2.314,4.979-2.304,6.57,0.031c0.878,1.28,0.899,3.006,0.072,4.317
			c-0.609,0.961-1.508,1.539-2.479,1.756l-0.897,1.304C399.846,308.451,399.64,308.451,399.546,308.308z"/>
		<path id="XMLID_871_" opacity="0.5" fill="#F4E1B8" fill-opacity="0.6" enable-background="new    " d="M401.953,301.147
			c1.116,1.115,1.116,2.914,0,4.028c-1.115,1.115-2.913,1.115-4.029,0c-1.115-1.114-1.115-2.913,0-4.028
			C399.04,300.031,400.848,300.031,401.953,301.147z"/>
	</g>
	<g id="XMLID_346_">
		<g id="XMLID_344_">
			<path id="XMLID_363_" fill="#FFFFFF" d="M399.205,304.753c-0.031,0-0.063-0.01-0.093-0.021c-0.094-0.052-0.124-0.165-0.072-0.259
				l1.591-2.811c0.052-0.093,0.165-0.124,0.258-0.072c0.095,0.053,0.124,0.165,0.073,0.259l-1.592,2.8
				C399.329,304.712,399.268,304.753,399.205,304.753z"/>
		</g>
		<g id="XMLID_343_">
			<path id="XMLID_354_" fill="#FFFFFF" d="M398.896,303.492c-0.372,0-0.684-0.372-0.684-0.826s0.312-0.826,0.684-0.826
				c0.371,0,0.682,0.372,0.682,0.826S399.277,303.492,398.896,303.492z M398.896,302.201c-0.177,0-0.32,0.217-0.32,0.465
				s0.145,0.465,0.32,0.465c0.175,0,0.319-0.217,0.319-0.465S399.071,302.201,398.896,302.201z"/>
		</g>
		<g id="XMLID_345_">
			<path id="XMLID_350_" fill="#FFFFFF" d="M400.982,304.557c-0.372,0-0.683-0.372-0.683-0.826c0-0.455,0.311-0.827,0.683-0.827
				c0.371,0,0.682,0.372,0.682,0.827C401.664,304.185,401.364,304.557,400.982,304.557z M400.982,303.266
				c-0.177,0-0.32,0.217-0.32,0.465c0,0.247,0.145,0.465,0.32,0.465c0.175,0,0.319-0.218,0.319-0.465
				C401.303,303.482,401.158,303.266,400.982,303.266z"/>
		</g>
	</g>
</g>
<g id="XMLID_1605_">
	<g id="XMLID_1611_">
		<g id="XMLID_1612_">
			<path id="XMLID_1613_" fill="#FFFFFF" d="M210.132,289.05l4.366,4.25v23.379h-20.735V290.83c0-0.976,0.804-1.78,1.78-1.78
				H210.132L210.132,289.05z"/>
		</g>
	</g>
	<g id="XMLID_1617_" opacity="0.35">
		<g id="XMLID_1618_">
			<polygon id="XMLID_1619_" fill="#BFD1DD" points="210.361,292.841 214.498,297.608 214.498,293.3 			"/>
		</g>
	</g>
	<g id="XMLID_1614_">
		<g id="XMLID_1615_">
			<path id="XMLID_1616_" fill="#377DFF" d="M210.132,289.05l4.366,4.25h-3.216c-0.633,0-1.149-0.517-1.149-1.147L210.132,289.05
				L210.132,289.05z"/>
		</g>
	</g>
	<rect id="XMLID_961_" x="196.289" y="295.712" fill="#377DFF" width="15.682" height="19.014"/>
	<rect id="XMLID_964_" x="196.289" y="295.712" fill="#FFFFFF" width="3.906" height="19.014"/>
	<rect id="XMLID_963_" x="196.289" y="295.712" fill="#BFD1DD" width="15.682" height="3.504"/>
	<path id="XMLID_966_" fill="none" stroke="#196EFF" stroke-width="0.75" stroke-miterlimit="10" d="M196.749,314.781h14.762
		c0.23,0,0.46-0.229,0.46-0.46V296.23c0-0.23-0.23-0.46-0.46-0.46h-14.762c-0.23,0-0.46,0.229-0.46,0.46v18.091
		C196.289,314.553,196.519,314.781,196.749,314.781z"/>
	
		<line id="XMLID_970_" fill="none" stroke="#196EFF" stroke-width="0.75" stroke-miterlimit="10" x1="196.289" y1="299.216" x2="211.971" y2="299.216"/>
	
		<line id="XMLID_967_" fill="none" stroke="#196EFF" stroke-width="0.75" stroke-miterlimit="10" x1="196.289" y1="301.17" x2="211.971" y2="301.17"/>
	
		<line id="XMLID_999_" fill="none" stroke="#196EFF" stroke-width="0.75" stroke-miterlimit="10" x1="200.195" y1="314.781" x2="200.195" y2="299.216"/>
	
		<line id="XMLID_981_" fill="none" stroke="#196EFF" stroke-width="0.75" stroke-miterlimit="10" x1="196.289" y1="303.121" x2="211.971" y2="303.121"/>
	
		<line id="XMLID_982_" fill="none" stroke="#196EFF" stroke-width="0.75" stroke-miterlimit="10" x1="196.289" y1="305.075" x2="211.971" y2="305.075"/>
	
		<line id="XMLID_984_" fill="none" stroke="#196EFF" stroke-width="0.75" stroke-miterlimit="10" x1="196.289" y1="307.028" x2="211.971" y2="307.028"/>
	
		<line id="XMLID_985_" fill="none" stroke="#196EFF" stroke-width="0.75" stroke-miterlimit="10" x1="196.289" y1="308.925" x2="211.971" y2="308.925"/>
	
		<line id="XMLID_986_" fill="none" stroke="#196EFF" stroke-width="0.75" stroke-miterlimit="10" x1="196.347" y1="310.876" x2="211.971" y2="310.876"/>
	
		<line id="XMLID_995_" fill="none" stroke="#196EFF" stroke-width="0.75" stroke-miterlimit="10" x1="196.347" y1="312.83" x2="211.971" y2="312.83"/>
	<path id="XMLID_997_" fill="#E7EAF3" d="M203.412,294.852h-6.547c-0.345,0-0.575-0.288-0.575-0.574l0,0
		c0-0.346,0.288-0.574,0.575-0.574h6.547c0.345,0,0.574,0.286,0.574,0.574l0,0C204.044,294.563,203.757,294.852,203.412,294.852z"/>
</g>
</svg>
