<?xml version="1.0" encoding="utf-8"?>
<!-- Generator: Adobe Illustrator 16.0.0, SVG Export Plug-In . SVG Version: 6.00 Build 0)  -->
<!DOCTYPE svg PUBLIC "-//W3C//DTD SVG 1.1//EN" "http://www.w3.org/Graphics/SVG/1.1/DTD/svg11.dtd">
<svg version="1.1" id="图层_1" xmlns="http://www.w3.org/2000/svg" xmlns:xlink="http://www.w3.org/1999/xlink" x="0px" y="0px"
	 width="500px" height="500px" viewBox="0 0 500 500" enable-background="new 0 0 500 500" xml:space="preserve">
<g>
	
		<linearGradient id="SVGID_1_" gradientUnits="userSpaceOnUse" x1="404.1182" y1="-126.0361" x2="404.1182" y2="161.7739" gradientTransform="matrix(1 0 0 -1 -156 256)">
		<stop  offset="0" style="stop-color:#00D2FF"/>
		<stop  offset="1" style="stop-color:#3A7BD5"/>
	</linearGradient>
	<path fill="none" stroke="url(#SVGID_1_)" stroke-width="10" stroke-miterlimit="10" d="M444.198,256.975
		c9.155-15.554,14.414-33.679,14.414-53.036c0-57.831-46.883-104.713-104.714-104.713c-39.246,0-73.444,21.596-91.374,53.549
		c-14.024-20.706-37.735-34.315-64.626-34.315c-43.078,0-78,34.921-78,78c0,1.084,0.038,2.157,0.082,3.23
		c-47.44,1.093-85.562,39.89-85.562,87.593c0,48.39,39.228,87.616,87.617,87.616c4.569,0,9.057-0.351,13.437-1.026h232.452
		c6.72,2.052,13.848,3.163,21.238,3.163c40.128,0,72.657-32.53,72.657-72.657C461.817,286.259,455.169,269.701,444.198,256.975z"/>
	
		<linearGradient id="SVGID_2_" gradientUnits="userSpaceOnUse" x1="441.4404" y1="52.8037" x2="548.335" y2="52.8037" gradientTransform="matrix(1 0 0 -1 -156 256)">
		<stop  offset="0" style="stop-color:#00D2FF"/>
		<stop  offset="1" style="stop-color:#3A7BD5"/>
	</linearGradient>
	<path fill="url(#SVGID_2_)" d="M392.335,203.196c0,2.857-2.314,5.172-5.173,5.172h-96.549c-2.857,0-5.173-2.313-5.173-5.172l0,0
		c0-2.856,2.314-5.172,5.173-5.172h96.549C390.02,198.024,392.335,200.339,392.335,203.196L392.335,203.196z"/>
	
		<linearGradient id="SVGID_3_" gradientUnits="userSpaceOnUse" x1="559.8291" y1="52.8037" x2="571.3232" y2="52.8037" gradientTransform="matrix(1 0 0 -1 -156 256)">
		<stop  offset="0" style="stop-color:#00D2FF"/>
		<stop  offset="1" style="stop-color:#3A7BD5"/>
	</linearGradient>
	<path fill="url(#SVGID_3_)" d="M415.323,203.197c0,3.175-2.573,5.746-5.747,5.746l0,0c-3.174,0-5.747-2.572-5.747-5.746l0,0
		c0-3.174,2.573-5.748,5.747-5.748l0,0C412.75,197.449,415.323,200.023,415.323,203.197L415.323,203.197z"/>
</g>
</svg>
