<?xml version="1.0" encoding="utf-8"?>
<!-- Generator: Adobe Illustrator 16.0.0, SVG Export Plug-In . SVG Version: 6.00 Build 0)  -->
<!DOCTYPE svg PUBLIC "-//W3C//DTD SVG 1.1//EN" "http://www.w3.org/Graphics/SVG/1.1/DTD/svg11.dtd">
<svg version="1.1" id="图层_1" xmlns="http://www.w3.org/2000/svg" xmlns:xlink="http://www.w3.org/1999/xlink" x="0px" y="0px"
	 width="198.425px" height="198.425px" viewBox="0 0 198.425 198.425" enable-background="new 0 0 198.425 198.425"
	 xml:space="preserve">
<linearGradient id="SVGID_1_" gradientUnits="userSpaceOnUse" x1="127.603" y1="-4.7686" x2="127.603" y2="-133.0483" gradientTransform="matrix(1 0 0 1 -28.3906 158.1484)">
	<stop  offset="0" style="stop-color:#00D2FF"/>
	<stop  offset="1" style="stop-color:#3A7BD5"/>
</linearGradient>
<path fill="none" stroke="url(#SVGID_1_)" stroke-width="10" stroke-miterlimit="10" d="M182.695,97.263
	c3.898-6.622,6.139-14.339,6.139-22.581c0-24.622-19.961-44.582-44.584-44.582c-16.709,0-31.27,9.194-38.904,22.798
	c-5.971-8.814-16.064-14.609-27.514-14.609c-18.342,0-33.211,14.868-33.211,33.21c0,0.461,0.018,0.918,0.035,1.375
	c-20.199,0.465-36.43,16.983-36.43,37.294c0,20.603,16.703,37.305,37.305,37.305c1.945,0,3.855-0.15,5.721-0.438h98.971
	c2.859,0.873,5.895,1.347,9.041,1.347c17.086,0,30.936-13.851,30.936-30.936C190.197,109.731,187.367,102.681,182.695,97.263z"/>
<linearGradient id="SVGID_2_" gradientUnits="userSpaceOnUse" x1="144.4468" y1="-81.1997" x2="186.7554" y2="-81.1997" gradientTransform="matrix(1 0 0 1 -28.3906 158.1484)">
	<stop  offset="0" style="stop-color:#00D2FF"/>
	<stop  offset="1" style="stop-color:#3A7BD5"/>
</linearGradient>
<path fill="url(#SVGID_2_)" d="M158.365,76.949c0,1.13-0.916,2.047-2.049,2.047h-38.211c-1.133,0-2.049-0.916-2.049-2.047l0,0
	c0-1.131,0.916-2.047,2.049-2.047h38.211C157.447,74.902,158.365,75.817,158.365,76.949L158.365,76.949z"/>
<linearGradient id="SVGID_3_" gradientUnits="userSpaceOnUse" x1="191.3042" y1="-81.4277" x2="195.853" y2="-81.4277" gradientTransform="matrix(1 0 0 1 -28.3906 158.1484)">
	<stop  offset="0" style="stop-color:#00D2FF"/>
	<stop  offset="1" style="stop-color:#3A7BD5"/>
</linearGradient>
<path fill="url(#SVGID_3_)" d="M167.462,76.721c0,1.256-1.018,2.273-2.273,2.273l0,0c-1.258,0-2.275-1.019-2.275-2.273l0,0
	c0-1.256,1.02-2.274,2.275-2.274l0,0C166.445,74.447,167.462,75.466,167.462,76.721L167.462,76.721z"/>
</svg>
