<?xml version="1.0" encoding="utf-8"?>
<!-- Generator: Adobe Illustrator 16.0.0, SVG Export Plug-In . SVG Version: 6.00 Build 0)  -->
<!DOCTYPE svg PUBLIC "-//W3C//DTD SVG 1.1//EN" "http://www.w3.org/Graphics/SVG/1.1/DTD/svg11.dtd">
<svg version="1.1" id="图层_1" xmlns="http://www.w3.org/2000/svg" xmlns:xlink="http://www.w3.org/1999/xlink" x="0px" y="0px"
	 width="500px" height="500px" viewBox="0 0 500 500" enable-background="new 0 0 500 500" xml:space="preserve">
<path fill="none" stroke="#000000" stroke-width="10" stroke-miterlimit="10" d="M97.278,100.17h314.603
	c11.288,0,20.433,8.054,20.433,17.981v194.436c0,9.941-9.145,17.995-20.433,17.995H97.278c-11.289,0-20.434-8.054-20.434-17.995
	V118.152C76.845,108.223,85.989,100.17,97.278,100.17z"/>
<path fill="#000000" d="M79.191,284.955h343.884c3.548,0,6.432,1.497,6.432,3.348v2.022c0,1.848-2.884,3.35-6.432,3.35H79.191
	c-3.565,0-6.449-1.502-6.449-3.35v-2.022C72.742,286.452,75.625,284.955,79.191,284.955z"/>
<path fill="#000000" d="M280.771,125.394c0,3.336-3.071,6.042-6.859,6.042h-38.663c-3.788,0-6.86-2.706-6.86-6.042l0,0
	c0-3.336,3.072-6.042,6.86-6.042h38.663C277.699,119.351,280.771,122.057,280.771,125.394L280.771,125.394z"/>
<path fill="#000000" d="M157.608,141.2c1.668,2.889,0.361,6.768-2.919,8.662l-33.483,19.331c-3.28,1.894-7.293,1.087-8.962-1.802
	l0,0c-1.668-2.89-0.36-6.769,2.92-8.663l33.482-19.331C151.927,137.503,155.94,138.311,157.608,141.2L157.608,141.2z"/>
<line fill="none" stroke="#000000" stroke-width="10" stroke-miterlimit="10" x1="294.311" y1="329.716" x2="294.311" y2="404.418"/>
<line fill="none" stroke="#000000" stroke-width="10" stroke-miterlimit="10" x1="215.734" y1="404.418" x2="215.734" y2="329.716"/>
<path fill="#000000" d="M342.893,407.166c0,2.428-2.234,4.395-4.989,4.395H170.764c-2.755,0-4.989-1.967-4.989-4.395l0,0
	c0-2.426,2.234-4.395,4.989-4.395h167.139C340.658,402.772,342.893,404.74,342.893,407.166L342.893,407.166z"/>
<path fill="#000000" d="M177.973,152.484c1.437,2.488,0.584,5.67-1.904,7.106l-49.56,28.613c-2.488,1.437-5.67,0.584-7.106-1.904
	l0,0c-1.437-2.488-0.584-5.67,1.904-7.106l49.56-28.613C173.354,149.144,176.536,149.996,177.973,152.484L177.973,152.484z"/>
</svg>
