<?xml version="1.0" encoding="utf-8"?>
<!-- Generator: Adobe Illustrator 16.0.0, SVG Export Plug-In . SVG Version: 6.00 Build 0)  -->
<!DOCTYPE svg PUBLIC "-//W3C//DTD SVG 1.1//EN" "http://www.w3.org/Graphics/SVG/1.1/DTD/svg11.dtd">
<svg version="1.1" id="图层_1" xmlns="http://www.w3.org/2000/svg" xmlns:xlink="http://www.w3.org/1999/xlink" x="0px" y="0px"
	 width="478.5px" height="394px" viewBox="0 54.5 478.5 394" enable-background="new 0 54.5 478.5 394" xml:space="preserve">
<g id="Layer_6">
	
		<linearGradient id="SVGID_1_" gradientUnits="userSpaceOnUse" x1="447.8125" y1="340.9402" x2="463.9991" y2="70.9721" gradientTransform="matrix(1 0 0 -1 -14.1953 362.5737)">
		<stop  offset="0" style="stop-color:#00D2FF"/>
		<stop  offset="0" style="stop-color:#6DD5FA"/>
		<stop  offset="0.2759" style="stop-color:#72D6FA;stop-opacity:0.969"/>
		<stop  offset="1" style="stop-color:#FFFFFF;stop-opacity:0.1"/>
	</linearGradient>
	<ellipse opacity="0.5" fill="url(#SVGID_1_)" enable-background="new    " cx="445.661" cy="222.516" rx="10.676" ry="10.676"/>
	
		<linearGradient id="SVGID_2_" gradientUnits="userSpaceOnUse" x1="299.8799" y1="332.0496" x2="316.0645" y2="62.1166" gradientTransform="matrix(1 0 0 -1 -14.1953 362.5737)">
		<stop  offset="0" style="stop-color:#00D2FF"/>
		<stop  offset="0" style="stop-color:#6DD5FA"/>
		<stop  offset="0.2759" style="stop-color:#72D6FA;stop-opacity:0.969"/>
		<stop  offset="1" style="stop-color:#FFFFFF;stop-opacity:0.1"/>
	</linearGradient>
	<path opacity="0.5" fill="url(#SVGID_2_)" enable-background="new    " d="M303.083,89.587c0,7.698-6.26,13.857-13.856,13.857
		c-7.697,0-13.857-6.262-13.857-13.857c0-7.698,6.262-13.857,13.857-13.857C296.823,75.626,303.083,81.888,303.083,89.587z"/>
	
		<linearGradient id="SVGID_3_" gradientUnits="userSpaceOnUse" x1="115.4429" y1="320.9978" x2="131.6291" y2="51.0364" gradientTransform="matrix(1 0 0 -1 -14.1953 362.5737)">
		<stop  offset="0" style="stop-color:#00D2FF"/>
		<stop  offset="0" style="stop-color:#6DD5FA"/>
		<stop  offset="0.2759" style="stop-color:#72D6FA;stop-opacity:0.969"/>
		<stop  offset="1" style="stop-color:#FFFFFF;stop-opacity:0.1"/>
	</linearGradient>
	<path opacity="0.5" fill="url(#SVGID_3_)" enable-background="new    " d="M112.268,107.242c0,3.9-3.182,7.083-7.083,7.083
		s-7.083-3.182-7.083-7.083s3.182-7.083,7.083-7.083C109.085,100.159,112.268,103.341,112.268,107.242z"/>
	
		<linearGradient id="SVGID_4_" gradientUnits="userSpaceOnUse" x1="362.459" y1="335.7976" x2="378.643" y2="65.8732" gradientTransform="matrix(1 0 0 -1 -14.1953 362.5737)">
		<stop  offset="0" style="stop-color:#00D2FF"/>
		<stop  offset="0" style="stop-color:#6DD5FA"/>
		<stop  offset="0.2759" style="stop-color:#72D6FA;stop-opacity:0.969"/>
		<stop  offset="1" style="stop-color:#FFFFFF;stop-opacity:0.1"/>
	</linearGradient>
	<path opacity="0.5" fill="url(#SVGID_4_)" enable-background="new    " d="M360.978,120.689c0,3.9-3.184,7.083-7.081,7.083
		c-3.9,0-7.085-3.183-7.085-7.083c0-3.901,3.185-7.083,7.085-7.083C357.794,113.606,360.978,116.788,360.978,120.689z"/>
	
		<linearGradient id="SVGID_5_" gradientUnits="userSpaceOnUse" x1="203.9658" y1="326.3025" x2="220.1515" y2="56.3503" gradientTransform="matrix(1 0 0 -1 -14.1953 362.5737)">
		<stop  offset="0" style="stop-color:#00D2FF"/>
		<stop  offset="0" style="stop-color:#6DD5FA"/>
		<stop  offset="0.2759" style="stop-color:#72D6FA;stop-opacity:0.969"/>
		<stop  offset="1" style="stop-color:#FFFFFF;stop-opacity:0.1"/>
	</linearGradient>
	<circle opacity="0.5" fill="url(#SVGID_5_)" enable-background="new    " cx="192.333" cy="79.014" r="7.083"/>
	
		<linearGradient id="SVGID_6_" gradientUnits="userSpaceOnUse" x1="456.5986" y1="341.4695" x2="472.7851" y2="71.5041" gradientTransform="matrix(1 0 0 -1 -14.1953 362.5737)">
		<stop  offset="0" style="stop-color:#00D2FF"/>
		<stop  offset="0" style="stop-color:#6DD5FA"/>
		<stop  offset="0.2759" style="stop-color:#72D6FA;stop-opacity:0.969"/>
		<stop  offset="1" style="stop-color:#FFFFFF;stop-opacity:0.1"/>
	</linearGradient>
	<path opacity="0.5" fill="url(#SVGID_6_)" enable-background="new    " d="M459.21,253.516c0,1.641-1.332,2.875-2.873,2.875
		c-1.643,0-2.873-1.336-2.873-2.875c0-1.644,1.332-2.875,2.873-2.875C457.979,250.539,459.21,251.873,459.21,253.516z"/>
	
		<linearGradient id="SVGID_7_" gradientUnits="userSpaceOnUse" x1="354.3652" y1="335.3113" x2="370.5485" y2="65.3992" gradientTransform="matrix(1 0 0 -1 -14.1953 362.5737)">
		<stop  offset="0" style="stop-color:#00D2FF"/>
		<stop  offset="0" style="stop-color:#6DD5FA"/>
		<stop  offset="0.2759" style="stop-color:#72D6FA;stop-opacity:0.969"/>
		<stop  offset="1" style="stop-color:#FFFFFF;stop-opacity:0.1"/>
	</linearGradient>
	<path opacity="0.5" fill="url(#SVGID_7_)" enable-background="new    " d="M346.399,95.232c0,1.231-1.025,2.156-2.154,2.156
		c-1.232,0-2.154-1.026-2.154-2.156c0-1.231,1.025-2.155,2.154-2.155S346.399,94,346.399,95.232z"/>
	
		<linearGradient id="SVGID_8_" gradientUnits="userSpaceOnUse" x1="144.9502" y1="322.7566" x2="161.1325" y2="52.86" gradientTransform="matrix(1 0 0 -1 -14.1953 362.5737)">
		<stop  offset="0" style="stop-color:#00D2FF"/>
		<stop  offset="0" style="stop-color:#6DD5FA"/>
		<stop  offset="0.2759" style="stop-color:#72D6FA;stop-opacity:0.969"/>
		<stop  offset="1" style="stop-color:#FFFFFF;stop-opacity:0.1"/>
	</linearGradient>
	<circle opacity="0.5" fill="url(#SVGID_8_)" enable-background="new    " cx="133.105" cy="79.014" r="2.874"/>
	
		<linearGradient id="SVGID_9_" gradientUnits="userSpaceOnUse" x1="39.0879" y1="316.3992" x2="55.2699" y2="46.5092" gradientTransform="matrix(1 0 0 -1 -14.1953 362.5737)">
		<stop  offset="0" style="stop-color:#00D2FF"/>
		<stop  offset="0" style="stop-color:#6DD5FA"/>
		<stop  offset="0.2759" style="stop-color:#72D6FA;stop-opacity:0.969"/>
		<stop  offset="1" style="stop-color:#FFFFFF;stop-opacity:0.1"/>
	</linearGradient>
	<path opacity="0.5" fill="url(#SVGID_9_)" enable-background="new    " d="M34.358,140.705c0,2.053-1.643,3.798-3.798,3.798
		c-2.053,0-3.798-1.642-3.798-3.798c0-2.053,1.642-3.797,3.798-3.797C32.613,137.01,34.358,138.652,34.358,140.705z"/>
	
		<linearGradient id="SVGID_10_" gradientUnits="userSpaceOnUse" x1="454.2422" y1="341.3191" x2="470.4283" y2="71.3597" gradientTransform="matrix(1 0 0 -1 -14.1953 362.5737)">
		<stop  offset="0" style="stop-color:#00D2FF"/>
		<stop  offset="0" style="stop-color:#6DD5FA"/>
		<stop  offset="0.2759" style="stop-color:#72D6FA;stop-opacity:0.969"/>
		<stop  offset="1" style="stop-color:#FFFFFF;stop-opacity:0.1"/>
	</linearGradient>
	<path opacity="0.5" fill="url(#SVGID_10_)" enable-background="new    " d="M453.155,176.529c0,2.053-1.644,3.798-3.799,3.798
		c-2.054,0-3.798-1.642-3.798-3.798c0-2.053,1.644-3.798,3.798-3.798C451.513,172.731,453.155,174.476,453.155,176.529z"/>
	
		<linearGradient id="SVGID_11_" gradientUnits="userSpaceOnUse" x1="77.2261" y1="318.7029" x2="93.411" y2="48.7607" gradientTransform="matrix(1 0 0 -1 -14.1953 362.5737)">
		<stop  offset="0" style="stop-color:#00D2FF"/>
		<stop  offset="0" style="stop-color:#6DD5FA"/>
		<stop  offset="0.2759" style="stop-color:#72D6FA;stop-opacity:0.969"/>
		<stop  offset="1" style="stop-color:#FFFFFF;stop-opacity:0.1"/>
	</linearGradient>
	<ellipse opacity="0.5" fill="url(#SVGID_11_)" enable-background="new    " cx="68.129" cy="128.901" rx="16.013" ry="16.013"/>
	
		<linearGradient id="SVGID_12_" gradientUnits="userSpaceOnUse" x1="17.7383" y1="315.1355" x2="33.9234" y2="45.1929" gradientTransform="matrix(1 0 0 -1 -14.1953 362.5737)">
		<stop  offset="0" style="stop-color:#00D2FF"/>
		<stop  offset="0" style="stop-color:#6DD5FA"/>
		<stop  offset="0.2759" style="stop-color:#72D6FA;stop-opacity:0.969"/>
		<stop  offset="1" style="stop-color:#FFFFFF;stop-opacity:0.1"/>
	</linearGradient>
	<path opacity="0.5" fill="url(#SVGID_12_)" enable-background="new    " d="M20.09,260.084c0,2.056-1.643,3.799-3.798,3.799
		c-2.053,0-3.798-1.641-3.798-3.799c0-2.153,1.643-3.797,3.798-3.797C18.345,256.287,20.09,258.031,20.09,260.084z"/>
	
		<linearGradient id="SVGID_13_" gradientUnits="userSpaceOnUse" x1="433.543" y1="340.0701" x2="449.7285" y2="70.1192" gradientTransform="matrix(1 0 0 -1 -14.1953 362.5737)">
		<stop  offset="0" style="stop-color:#00D2FF"/>
		<stop  offset="0" style="stop-color:#6DD5FA"/>
		<stop  offset="0.2759" style="stop-color:#72D6FA;stop-opacity:0.969"/>
		<stop  offset="1" style="stop-color:#FFFFFF;stop-opacity:0.1"/>
	</linearGradient>
	<path opacity="0.5" fill="url(#SVGID_13_)" enable-background="new    " d="M425.233,105.189c8.563,0,15.502,6.939,15.502,15.5
		c0,8.56-6.939,15.5-15.502,15.5c-8.56,0-15.498-6.94-15.498-15.5C409.735,112.129,416.675,105.189,425.233,105.189z"/>
	
		<linearGradient id="SVGID_14_" gradientUnits="userSpaceOnUse" x1="25.6982" y1="315.613" x2="41.8833" y2="45.6703" gradientTransform="matrix(1 0 0 -1 -14.1953 362.5737)">
		<stop  offset="0" style="stop-color:#00D2FF"/>
		<stop  offset="0" style="stop-color:#6DD5FA"/>
		<stop  offset="0.2759" style="stop-color:#72D6FA;stop-opacity:0.969"/>
		<stop  offset="1" style="stop-color:#FFFFFF;stop-opacity:0.1"/>
	</linearGradient>
	<ellipse opacity="0.5" fill="url(#SVGID_14_)" enable-background="new    " cx="20.09" cy="190.182" rx="12.318" ry="12.318"/>
	
		<linearGradient id="SVGID_15_" gradientUnits="userSpaceOnUse" x1="241.4082" y1="328.5457" x2="257.5932" y2="58.6046" gradientTransform="matrix(1 0 0 -1 -14.1953 362.5737)">
		<stop  offset="0" style="stop-color:#00D2FF"/>
		<stop  offset="0" style="stop-color:#6DD5FA"/>
		<stop  offset="0.2759" style="stop-color:#72D6FA;stop-opacity:0.969"/>
		<stop  offset="1" style="stop-color:#FFFFFF;stop-opacity:0.1"/>
	</linearGradient>
	<path opacity="0.47" fill="url(#SVGID_15_)" enable-background="new    " d="M443.608,305.354c0-28.947-6.158-56.561-17.244-81.401
		c4.004-8.313,6.26-17.553,6.26-27.407c0-34.899-28.227-63.129-63.127-63.129c-6.57,0-12.832,1.027-18.785,2.875
		c-31-19.708-67.853-31.205-107.363-31.205c-4.928,0-9.854,0.206-14.678,0.515c-8.623-6.467-19.401-10.368-31-10.368
		c-21.966,0-40.751,13.755-48.142,33.155c-15.192,8.108-29.255,18.065-41.778,29.563c-4.106-0.924-8.314-1.437-12.729-1.437
		c-31.615,0-57.175,25.559-57.175,57.174c0,13.755,4.825,26.381,12.934,36.235c-5.03,17.554-7.801,36.132-7.801,55.327
		L443.608,305.354L443.608,305.354z"/>
	
		<linearGradient id="SVGID_16_" gradientUnits="userSpaceOnUse" x1="240.3062" y1="328.4832" x2="256.4914" y2="58.5366" gradientTransform="matrix(1 0 0 -1 -14.1953 362.5737)">
		<stop  offset="0" style="stop-color:#00D2FF"/>
		<stop  offset="0" style="stop-color:#6DD5FA"/>
		<stop  offset="0.2759" style="stop-color:#72D6FA;stop-opacity:0.969"/>
		<stop  offset="1" style="stop-color:#FFFFFF;stop-opacity:0.1"/>
	</linearGradient>
	<path opacity="0.47" fill="url(#SVGID_16_)" enable-background="new    " d="M387.665,304.941
		c0-80.373-65.078-145.452-145.445-145.452c-80.374,0-145.452,65.079-145.452,145.452H387.665z"/>
</g>
<path fill="#9BE2FD" d="M453.056,358.756l-409.51,1.761c0,0,37.788,49.211,136.21,57.119c0,0,73.814,48.332,121.271-3.517
	c0,0,64.147,14.938,84.36-22.408c0,0,32.515,7.472,55.363-20.211C440.751,371.5,449.979,371.498,453.056,358.756z"/>
<linearGradient id="SVGID_17_" gradientUnits="userSpaceOnUse" x1="124.6294" y1="716.032" x2="313.566" y2="688.3506" gradientTransform="matrix(1 0 0 1 -70.1953 -348.4258)">
	<stop  offset="0" style="stop-color:#36C2F8"/>
	<stop  offset="1" style="stop-color:#FFFFFF;stop-opacity:0.3"/>
</linearGradient>
<path fill="url(#SVGID_17_)" d="M19.137,337.159c0,0,28.122,48.33,96.666,40.863c0,0,45.695,22.408,78.649-2.197
	c0,0,69.424-11.861,87.879-39.104L19.137,337.159z"/>
<g>
	
		<linearGradient id="SVGID_18_" gradientUnits="userSpaceOnUse" x1="306.332" y1="660.1453" x2="305.014" y2="769.1106" gradientTransform="matrix(1 0 0 1 -70.1953 -348.4258)">
		<stop  offset="0" style="stop-color:#00D2FF"/>
		<stop  offset="0" style="stop-color:#6DD5FA"/>
		<stop  offset="0.2759" style="stop-color:#72D6FA;stop-opacity:0.969"/>
		<stop  offset="1" style="stop-color:#FFFFFF;stop-opacity:0.1"/>
	</linearGradient>
	<path fill="url(#SVGID_18_)" d="M9.473,324.427l453.007,0.879c0,0-14.5,29.879-65.908,22.407c0,0-32.074,27.24-63.271,24.166
		c0,0-29.438,21.972-53.166,12.742c0,0-34.711,27.242-78.65,0c0,0-53.604,10.984-73.816-16.697c0,0-26.802,1.318-43.059-18.893
		C84.607,349.032,16.94,349.472,9.473,324.427z"/>
</g>
<g enable-background="new    ">
	<path fill="#9FF2FF" d="M63.852,305.144c-0.087,0-0.087,0.088-0.175,0.088c-1.666,0.789-2.542,0.613-4.12-0.088
		c-1.49-0.701-2.893-1.488-4.12-2.541c-1.578-1.402-2.717-3.244-2.98-5.26c-0.088-0.438-0.088-0.966,0.263-1.314
		c0.35-0.527,1.139-0.613,1.752-0.35c0.614,0.262,1.052,0.698,1.49,1.139c0.175,0.174,0.438,0.35,0.701,0.438
		c0.263,0.089,0.614,0,0.702-0.264c0.175-0.35-0.175-0.787-0.526-1.051c-0.79-0.613-1.49-0.965-2.28-1.578
		c-1.052-0.701-1.928-1.578-2.454-2.719c-0.526-1.14-0.702-2.453-0.088-3.592c0.175-0.353,0.438-0.613,0.702-0.878
		c0.525-0.35,1.314-0.35,1.928-0.176c0.614,0.176,1.315,0.353,1.929,0.439c1.578,0.174,2.191-0.965,2.191-2.367
		c0-0.965-0.351-1.928-0.351-2.896c-0.087-1.663,0.701-3.506,2.279-4.204c1.578-0.701,3.682,0,4.208,1.575
		c0.614,1.754-0.789,3.683,0.176,5.349c0.263,0.524,0.964,1.313,1.49,1.578c0.877,0.524,2.104-0.089,3.068-0.089
		c0.263,0,0.439,0,0.614,0.177c0.088,0.086,0.176,0.264,0.176,0.438c0.263,1.228-0.176,2.543-1.14,3.332
		c-1.052,0.963-2.806,1.4-3.244,2.894c-0.263,0.875-0.175,3.241,1.315,2.979c0.526-0.088,0.876-0.613,1.402-0.789
		c0.614-0.264,1.403,0.176,1.666,0.789c0.263,0.613,0.175,1.4-0.088,2.017c-0.438,0.965-1.14,1.84-1.928,2.629
		C66.833,302.603,65.868,304.093,63.852,305.144z"/>
</g>
<line fill="none" stroke="#1E2022" stroke-miterlimit="10" x1="61.661" y1="283.845" x2="61.661" y2="326.095"/>
<polyline fill="none" stroke="#1E2022" stroke-miterlimit="10" points="65.78,289.979 61.661,294.099 57.541,289.979 "/>
<polyline fill="none" stroke="#1E2022" stroke-miterlimit="10" points="65.78,298.308 61.661,302.427 57.541,298.308 "/>
<g>
	<path fill="#9C75DB" d="M77.877,276.567c-0.088,0-0.176,0.088-0.263,0.088c-2.717,1.316-4.12,1.053-6.75-0.176
		c-2.367-1.14-4.734-2.455-6.75-4.207c-2.542-2.191-4.471-5.26-4.909-8.59c-0.088-0.789-0.088-1.578,0.351-2.191
		c0.613-0.877,1.84-0.965,2.805-0.613c0.964,0.351,1.753,1.14,2.542,1.84c0.351,0.265,0.701,0.613,1.14,0.701
		c0.438,0.088,0.964,0,1.14-0.35c0.351-0.613-0.263-1.316-0.789-1.754c-1.227-1.051-2.454-1.664-3.769-2.541
		c-1.666-1.142-3.156-2.543-4.12-4.384c-0.877-1.842-1.14-4.031-0.175-5.783c0.263-0.526,0.701-1.051,1.227-1.402
		c0.876-0.613,2.104-0.525,3.156-0.35c1.052,0.262,2.104,0.612,3.155,0.789c2.542,0.262,3.594-1.578,3.506-3.856
		c0-1.578-0.526-3.156-0.614-4.733c-0.175-2.806,1.228-5.697,3.682-6.926c2.542-1.227,6.048-0.087,6.925,2.542
		c0.964,2.894-1.227,6.047,0.263,8.766c0.438,0.877,1.578,2.104,2.455,2.63c1.402,0.876,3.418-0.175,5.084-0.088
		c0.351,0,0.789,0.088,1.052,0.351c0.176,0.176,0.263,0.438,0.351,0.701c0.351,2.015-0.351,4.117-1.84,5.519
		c-1.666,1.578-4.646,2.367-5.347,4.734c-0.438,1.49-0.263,5.26,2.104,4.82c0.876-0.176,1.49-1.054,2.367-1.314
		c1.052-0.352,2.279,0.353,2.717,1.402c0.438,1.053,0.351,2.19-0.087,3.244c-0.613,1.664-1.929,2.979-3.156,4.207
		C82.874,272.448,81.208,274.991,77.877,276.567z"/>
</g>
<line fill="none" stroke="#1E2022" stroke-miterlimit="10" x1="74.284" y1="241.771" x2="74.284" y2="325.306"/>
<polyline fill="none" stroke="#1E2022" stroke-miterlimit="10" points="81.033,251.849 74.284,258.599 67.534,251.849 "/>
<polyline fill="none" stroke="#1E2022" stroke-miterlimit="10" points="81.033,265.437 74.284,272.185 67.534,265.437 "/>
<g enable-background="new    ">
	<path fill="#9FF2FF" d="M394.352,309.966c-0.085,0-0.085,0.087-0.171,0.087c-1.88,0.854-2.903,0.769-4.697-0.087
		c-1.708-0.769-3.331-1.708-4.698-2.903c-1.793-1.537-3.16-3.673-3.416-5.979c-0.086-0.513-0.086-1.111,0.256-1.538
		c0.427-0.598,1.281-0.684,1.964-0.428c0.686,0.257,1.196,0.771,1.709,1.281c0.256,0.172,0.513,0.427,0.77,0.513
		s0.684,0,0.854-0.256c0.257-0.427-0.171-0.939-0.513-1.196c-0.854-0.769-1.709-1.109-2.648-1.794
		c-1.194-0.854-2.221-1.794-2.816-3.075c-0.6-1.279-0.771-2.817-0.087-4.1c0.171-0.342,0.514-0.77,0.854-0.939
		c0.685-0.427,1.452-0.427,2.221-0.257c0.77,0.171,1.452,0.428,2.223,0.515c1.794,0.171,2.477-1.111,2.477-2.733
		c0-1.112-0.342-2.222-0.427-3.247c-0.086-1.965,0.854-4.015,2.647-4.869c1.795-0.854,4.186,0,4.869,1.794
		c0.684,1.965-0.854,4.271,0.17,6.151c0.343,0.598,1.11,1.451,1.709,1.879c0.938,0.598,2.393-0.086,3.503-0.086
		c0.257,0,0.513,0.086,0.684,0.257s0.171,0.341,0.256,0.512c0.257,1.366-0.256,2.904-1.281,3.846
		c-1.195,1.109-3.246,1.622-3.759,3.331c-0.342,1.023-0.171,3.673,1.453,3.417c0.598-0.087,1.024-0.685,1.622-0.94
		c0.77-0.256,1.624,0.257,1.965,0.94c0.342,0.683,0.257,1.537-0.085,2.306c-0.427,1.11-1.367,2.05-2.222,2.989
		C397.854,307.062,396.657,308.771,394.352,309.966z"/>
</g>
<line fill="none" stroke="#191C3C" stroke-miterlimit="10" x1="391.874" y1="285.621" x2="391.874" y2="326.281"/>
<polyline fill="none" stroke="#191C3C" stroke-miterlimit="10" points="396.572,292.625 391.874,297.324 387.177,292.625 "/>
<polyline fill="none" stroke="#191C3C" stroke-miterlimit="10" points="396.572,302.107 391.874,306.806 387.177,302.107 "/>
<g>
	<path fill="#9C75DB" d="M416.816,287.757c-0.085,0.086-0.257,0.086-0.342,0.172c-3.588,1.708-5.468,1.451-8.883-0.172
		c-3.162-1.451-6.235-3.245-8.886-5.552c-3.331-2.99-5.894-6.92-6.49-11.362c-0.087-1.023-0.087-2.05,0.513-2.903
		c0.769-1.109,2.477-1.28,3.759-0.77c1.28,0.514,2.307,1.453,3.332,2.394c0.426,0.427,0.854,0.769,1.45,0.938
		c0.598,0.17,1.281,0,1.537-0.513c0.428-0.769-0.341-1.709-1.023-2.307c-1.623-1.366-3.247-2.222-4.955-3.417
		c-2.221-1.537-4.186-3.416-5.381-5.809c-1.196-2.393-1.452-5.382-0.256-7.688c0.341-0.684,0.938-1.366,1.622-1.793
		c1.195-0.77,2.818-0.77,4.186-0.428c1.367,0.343,2.733,0.854,4.187,1.024c3.416,0.342,4.697-2.05,4.612-5.124
		c-0.086-2.05-0.684-4.1-0.854-6.235c-0.171-3.673,1.623-7.604,4.955-9.141c3.331-1.538,7.942-0.085,9.14,3.417
		c1.281,3.758-1.624,8.028,0.256,11.616c0.598,1.195,2.051,2.818,3.246,3.502c1.88,1.109,4.527-0.171,6.663-0.085
		c0.512,0,1.024,0.085,1.366,0.428c0.257,0.256,0.342,0.598,0.428,0.94c0.513,2.647-0.428,5.467-2.392,7.261
		c-2.223,2.05-6.151,3.075-7.092,6.234c-0.599,1.967-0.341,6.92,2.819,6.406c1.195-0.17,1.964-1.366,3.075-1.708
		c1.367-0.512,2.989,0.427,3.673,1.794c0.599,1.367,0.428,2.904-0.085,4.356c-0.854,2.135-2.563,3.931-4.187,5.638
		C423.395,282.205,421.174,285.536,416.816,287.757z"/>
</g>
<line fill="none" stroke="#1E2022" stroke-miterlimit="10" x1="412.119" y1="241.629" x2="412.119" y2="326.281"/>
<polyline fill="none" stroke="#1E2022" stroke-miterlimit="10" points="421.003,255.041 412.119,263.924 403.149,255.041 "/>
<polyline fill="none" stroke="#1E2022" stroke-miterlimit="10" points="421.003,272.979 412.119,281.862 403.149,272.979 "/>
<g>
	<path fill="#52D2FF" d="M285.557,325.651L285.557,325.651C285.854,325.801,285.557,325.651,285.557,325.651z M282.148,323.966
		c-0.524,0.563-1.162,1.236-0.938,1.35c0.749,0.449,3.445,0.412,4.381,0.337c6.365,0.3,12.808-2.247,17.149-6.89
		c-2.995-2.061-7.001-2.396-10.521-1.387c-3.521,1.012-6.592,3.221-9.101,5.841C282.936,323.441,282.335,323.778,282.148,323.966z"
		/>
	<g opacity="0.2">
		<path fill="#08492C" d="M282.148,323.966c0.187-0.188,0.785-0.523,0.973-0.711c2.547-2.621,5.615-4.831,9.1-5.842
			c1.687-0.485,3.482-0.674,5.242-0.485c-2.021,0.074-4.045,0.599-5.803,1.496c-3.184,1.61-5.729,4.27-7.678,7.266
			c-1.086,0-2.283-0.112-2.732-0.374C280.986,325.202,281.624,324.528,282.148,323.966z"/>
	</g>
	<path fill="#52D2FF" d="M282.673,313.369c1.197-1.086,2.808-1.646,4.343-2.097c2.396-0.674,4.868-1.161,7.34-1.386
		c-1.349,2.995-2.321,5.989-4.756,8.199c-0.974,0.862-2.547,1.724-3.557,2.547c-1.198,0.975-3.107,3.482-4.082,4.719
		c-1.124,0.225-1.984-1.387-2.473-2.51c-0.637-1.423,0.076-3.595,0.563-5.055C280.65,316.141,281.398,314.53,282.673,313.369z"/>
	<path opacity="0.08" fill="#F5F7F9" enable-background="new    " d="M285.406,320.708c0.859-0.974,2.246-2.097,3.07-3.106
		c1.685-2.171,2.246-4.682,2.844-7.266c1.013-0.187,2.022-0.299,3.035-0.411c-1.35,2.995-2.322,5.991-4.756,8.199
		c-0.975,0.861-2.548,1.725-3.558,2.547c-0.601,0.449-1.312,1.272-2.062,2.135C284.471,321.943,284.993,321.195,285.406,320.708z"/>
	<path fill="#52D2FF" d="M282.298,305.318c0.562,2.771,1.086,5.617,0.599,8.389c-0.187,1.123-0.562,2.209-0.897,3.295
		c-0.412,1.422-0.638,2.283-1.011,3.706c0.299-0.187-0.301,0.675-0.6,1.161c-0.337,0.524-0.824,1.198-1.197,0.637
		c-0.45-0.637-0.938-1.348-1.125-2.097c-0.225-0.898,0-2.396,0-3.333c-0.036-2.434-0.036-4.905,0.787-7.188
		C279.527,308.089,280.725,306.479,282.298,305.318z"/>
	<g>
		<path fill="#191C3C" d="M300.945,319.285c-3.146-0.112-6.254,0-9.324,0.861c-2.885,0.824-5.504,2.172-7.9,4.008
			c-0.113,0.111-0.262-0.112-0.113-0.226c2.397-1.798,5.095-3.184,7.978-3.971c3.106-0.859,6.179-0.936,9.361-0.749
			C300.982,319.21,300.982,319.285,300.945,319.285L300.945,319.285z"/>
	</g>
	<g>
		<path fill="#191C3C" d="M293.344,310.823c-2.546,1.198-4.867,2.771-6.889,4.755c-2.172,2.135-3.633,4.681-5.243,7.189
			c-0.037,0.074-0.149,0-0.112-0.075c2.771-5.204,6.702-9.622,12.244-11.944C293.344,310.748,293.382,310.785,293.344,310.823
			L293.344,310.823z"/>
	</g>
	<g>
		<path fill="#191C3C" d="M282.148,306.404c-1.647,4.943-3.596,9.661-2.473,14.979c0.037,0.112-0.148,0.149-0.188,0.037
			c-1.049-5.055,0.486-10.446,2.584-15.053C282.109,306.367,282.148,306.367,282.148,306.404L282.148,306.404z"/>
	</g>
	<g>
		<path fill="#191C3C" d="M298.66,321.046c-0.337-0.338-0.674-0.712-1.049-1.012c-0.373-0.3-0.822-0.486-1.233-0.749
			c-0.038,0,0-0.075,0.036-0.075C297.275,319.548,298.174,320.259,298.66,321.046C298.698,321.046,298.698,321.083,298.66,321.046
			L298.66,321.046z"/>
	</g>
	<g>
		<path fill="#191C3C" d="M296.114,322.28c-0.897-1.609-2.171-2.058-3.894-2.282c-0.15,0-0.113-0.188,0.036-0.188
			C293.906,320.072,295.553,320.559,296.114,322.28C296.152,322.318,296.152,322.318,296.114,322.28L296.114,322.28z"/>
	</g>
	<g>
		<path fill="#191C3C" d="M297.088,317.264c-0.225,1.012-1.085,1.608-1.908,2.172c-0.074,0.038-0.113-0.074-0.039-0.112
			c0.824-0.523,1.61-1.086,1.873-2.097C297.051,317.227,297.126,317.227,297.088,317.264L297.088,317.264z"/>
	</g>
	<g>
		<path fill="#191C3C" d="M293.756,317.488c-0.374,0.974-1.011,1.835-1.76,2.546c-0.075,0.075-0.15-0.036-0.075-0.075
			C292.707,319.248,293.23,318.424,293.756,317.488C293.756,317.451,293.756,317.488,293.756,317.488L293.756,317.488z"/>
	</g>
	<g>
		<path fill="#191C3C" d="M290.947,318.611c-0.188,0.487-0.412,0.897-0.711,1.311c-0.226,0.302-0.601,0.861-0.938,0.975
			c-0.038,0-0.074,0-0.074-0.037l-0.037-0.037c-0.037-0.038-0.037-0.113,0-0.15c0,0,0.037,0,0.037-0.036c0.036,0,0.074,0,0.112,0
			l0.036,0.036c0.038,0.037,0.038,0.075-0.036,0.075c-0.112,0,0.374-0.522,0.374-0.522c0.148-0.15,0.3-0.302,0.412-0.488
			c0.299-0.373,0.563-0.785,0.786-1.198C290.91,318.574,290.947,318.574,290.947,318.611L290.947,318.611z"/>
	</g>
	<g>
		<path fill="#191C3C" d="M288.589,319.81c-0.637,1.049-1.573,1.983-2.546,2.733c-0.111,0.074-0.264-0.074-0.15-0.149
			c1.012-0.786,1.797-1.687,2.621-2.659C288.552,319.697,288.626,319.772,288.589,319.81L288.589,319.81z"/>
	</g>
	<g>
		<path fill="#191C3C" d="M291.846,314.156c-1.759-0.112-3.257-0.037-4.83,0.936c-0.111,0.075-0.188-0.111-0.111-0.149
			c1.386-0.897,3.332-1.422,4.941-0.86C291.921,314.081,291.921,314.156,291.846,314.156L291.846,314.156z"/>
	</g>
	<g>
		<path fill="#191C3C" d="M289.113,317.076c-0.861,0-1.648-0.037-2.51,0.188c-0.75,0.188-1.461,0.448-2.209,0.711
			c-0.111,0.037-0.149-0.111-0.037-0.149c1.461-0.562,3.146-1.198,4.756-0.786V317.076L289.113,317.076z"/>
	</g>
	<g>
		<path fill="#191C3C" d="M285.818,319.66c-0.602,0.037-1.199,0.074-1.762,0.188c-0.674,0.11-1.123,0.448-1.572,0.974
			c-0.074,0.074-0.188-0.038-0.111-0.113c0.412-0.484,0.822-0.821,1.46-0.974c0.638-0.149,1.312-0.188,1.985-0.149
			C285.854,319.585,285.854,319.66,285.818,319.66L285.818,319.66z"/>
	</g>
	<g>
		<path fill="#191C3C" d="M288.252,312.097c-0.039,0.636-0.375,1.271-0.637,1.835c-0.15,0.374-0.301,1.01-0.787,1.085
			c-0.037,0-0.074-0.037-0.037-0.075c0.824-0.674,0.861-1.983,1.387-2.883C288.213,312.059,288.252,312.097,288.252,312.097
			L288.252,312.097z"/>
	</g>
	<g>
		<path fill="#191C3C" d="M285.593,312.92c-0.149,1.762-0.712,3.482-1.31,5.13c-0.038,0.074-0.15,0.037-0.113-0.037
			C284.807,316.327,285.182,314.643,285.593,312.92C285.518,312.883,285.593,312.883,285.593,312.92L285.593,312.92z"/>
	</g>
	<g>
		<path fill="#191C3C" d="M282.747,316.59c0,1.497-0.374,2.995-0.599,4.456c0,0.112-0.188,0.074-0.188-0.038
			c0.263-1.46,0.485-2.958,0.712-4.418C282.673,316.552,282.747,316.552,282.747,316.59L282.747,316.59z"/>
	</g>
	<g>
		<path fill="#191C3C" d="M282.673,309.213c-1.049,1.199-1.909,2.473-2.585,3.896c-0.036,0.112-0.224,0-0.188-0.113
			c0.676-1.46,1.535-2.771,2.697-3.894C282.673,309.063,282.747,309.139,282.673,309.213L282.673,309.213z"/>
	</g>
	<g>
		<path fill="#191C3C" d="M279.266,309.475c0.486,1.124,0.6,2.584,0.674,3.781c0,0.112-0.149,0.112-0.188,0
			c-0.038-0.711-0.111-1.386-0.225-2.097c-0.112-0.562-0.264-1.123-0.338-1.686C279.189,309.438,279.266,309.438,279.266,309.475
			L279.266,309.475z"/>
	</g>
	<g>
		<path fill="#191C3C" d="M281.212,313.743c-0.786,1.236-1.272,2.436-1.835,3.782c0,0.038-0.075,0-0.075-0.037
			c0.188-1.348,0.976-2.771,1.837-3.819C281.175,313.669,281.212,313.707,281.212,313.743L281.212,313.743z"/>
	</g>
	<g>
		<path fill="#191C3C" d="M279.229,317.601c-0.338-0.861-0.638-1.725-1.123-2.51c-0.039-0.074,0.072-0.111,0.111-0.074
			C278.703,315.766,279.152,316.702,279.229,317.601C279.266,317.601,279.229,317.601,279.229,317.601L279.229,317.601z"/>
	</g>
</g>
<g>
	<rect x="316.268" y="266.205" fill="#F9C582" width="3.298" height="3.104"/>
	<polygon fill="#EAAE6E" points="318.255,324.035 317.334,325.15 314.619,325.731 314.377,327.477 321.939,327.477 321.6,324.035 	
		"/>
	<path fill="#E6E7E8" d="M314.619,325.731l-2.132,0.291l-0.243,0.291c-0.146,0.146-0.193,0.389-0.097,0.582l0,0
		c0.146,0.339,0.484,0.63,0.823,0.774l1.647,0.582h7.417v-2.473h-0.484l-3.685,1.552l-2.473,0.048l-0.921-0.63L314.619,325.731z"/>
	<g>
		<polygon fill="#191C3C" points="314.522,326.508 314.619,325.731 314.619,325.78 314.522,326.459 		"/>
		<path fill="#191C3C" d="M312.972,327.429c-0.388-0.146-0.679-0.389-0.823-0.776l0,0c0-0.048,0-0.048-0.05-0.097
			c-0.048,0.097,0,0.242,0.05,0.34l0,0c0.146,0.339,0.484,0.63,0.823,0.774l1.647,0.582h7.417v-0.243h-7.417L312.972,327.429z"/>
	</g>
	<path fill="#505B68" d="M322.667,294.514l-0.728,2.376l0.192,12.941c0,0,1.455,3.781,0.534,7.077l-1.115,7.126h-1.503
		l-0.291-29.667L322.667,294.514z"/>
	<polygon fill="#F9C582" points="317.479,324.035 316.559,325.15 313.844,325.731 313.602,327.477 321.164,327.477 320.824,324.035 
			"/>
	<path fill="#4F5763" d="M314.668,288.891v2.473l0.63,13.67c0.049,1.115,0.242,2.23,0.582,3.296l0,0l0,0
		c0.146,1.115,0.533,2.134,1.163,3.054l0.097,0.146l0.39,12.507h3.296l0.824-5.478c0,0,0.774-4.363-0.389-7.271v-14.445l0.729-1.018
		c0.774-1.067,1.211-2.376,1.211-3.685l0,0c0-0.971-0.193-1.892-0.629-2.765l-0.243-0.532L314.668,288.891L314.668,288.891z"/>
	<path fill="#FFFFFF" d="M313.844,325.731l-2.132,0.291l-0.243,0.291c-0.146,0.146-0.192,0.389-0.097,0.582l0,0
		c0.145,0.339,0.484,0.63,0.824,0.774l1.646,0.582h7.417v-2.473h-0.483l-3.686,1.552l-2.473,0.048l-0.921-0.63L313.844,325.731z"/>
	<g>
		<polygon fill="#191C3C" points="313.747,326.508 313.844,325.731 313.844,325.78 313.747,326.459 		"/>
		<path fill="#191C3C" d="M312.196,327.429c-0.389-0.146-0.681-0.389-0.824-0.776l0,0c0-0.048,0-0.048-0.049-0.097
			c-0.048,0.097,0,0.242,0.049,0.34l0,0c0.145,0.339,0.484,0.63,0.824,0.774l1.646,0.582h7.417v-0.243h-7.417L312.196,327.429z"/>
	</g>
	<path opacity="0.3" fill="#191C3C" enable-background="new    " d="M322.521,289.375l-0.242-0.532h-7.61v1.31c0,0,0,0,0.048,0
		c0.485,0.097,1.02,0.097,1.503-0.049c0.34-0.098,0.631-0.242,0.972-0.29c0.24-0.049,0.436,0,0.678,0
		c1.697,0.145,3.345,0.29,5.042,0.483C322.764,290.006,322.667,289.666,322.521,289.375z"/>
	<path fill="#EDF1F9" d="M315.347,272.604l-1.647,3.731c-0.193,0.438-0.29,0.872-0.29,1.357v0.533c0,0.581,0.145,1.163,0.436,1.647
		c0,1.892,0.049,3.78,0.049,5.672c0,0.97,0,1.938,0.049,2.956c0,0.291-0.049,0.631,0,0.872c0.05,0.291,0.193,0.291,0.533,0.341
		c0.484,0.098,1.019,0.098,1.503-0.05c0.339-0.097,0.631-0.241,0.97-0.291c0.243-0.048,0.437,0,0.679,0
		c1.745,0.146,3.49,0.341,5.235,0.485c-0.05,0-0.29-0.823-0.29-0.921c-0.051-0.242-0.051-0.438-0.051-0.679
		c0-0.485-0.048-1.019-0.097-1.504c-0.049-0.63-0.097-1.26-0.097-1.938c-0.097-1.309,0.048-2.618,0.437-3.878l1.163-4.023
		c0.484-1.696,0.438-3.539-0.193-5.188l-1.552-4.07l-2.616,1.019l-3.199,0.678L315.347,272.604z"/>
	<polygon opacity="0.3" fill="#191C3C" enable-background="new    " points="319.564,266.205 316.268,268.145 316.268,266.205 	"/>
	<path fill="#F9C582" d="M312.293,261.261v1.646c0,0.242,0.145,0.438,0.34,0.582l0.29,0.193c0,0-0.146,0.823-0.436,1.31
		c-0.098,0.146-0.05,0.29,0.048,0.388c0.193,0.146,0.437,0.291,0.728,0.242l0.484,1.406c0.193,0.533,0.728,0.775,1.261,0.631
		l3.005-1.066l1.019-4.072L318.063,260l-4.411,0.193C313.602,260.098,312.293,260.582,312.293,261.261z"/>
	<path fill="#7F714E" d="M325.188,275.512c-0.049-0.291-0.098-0.532-0.193-0.823c-0.146-0.533-0.291-1.067-0.438-1.552
		c-0.146-0.485-0.29-1.019-0.483-1.503c-0.146-0.34-0.34-0.631-0.438-0.971c-0.192-0.678,0-1.404-0.097-2.084
		c-0.097-1.115-0.775-2.084-0.922-3.149c-0.047-0.485,0-0.972-0.047-1.406c-0.099-0.873-0.681-1.551-1.116-2.326
		c-0.387-0.582-1.019-1.066-1.31-1.746c-0.146-0.339-0.146-0.775-0.289-1.114c-0.291-0.728-0.971-1.163-1.697-1.356
		c-0.728-0.194-1.406,0-2.133-0.098c-0.631-0.049-1.163-0.098-1.794,0.098c-1.066,0.339-2.666,1.114-2.569,2.423
		c0.05,0.389,0.194,0.777,0.34,1.115c0.049,0.146,0.146,0.34,0.291,0.389c0.242,0.097,0.533-0.049,0.775-0.146l0.097,0.048
		l0.582,0.532l0.34,0.341c0.048,0.049,0.048,0.049,0.097,0.098l0,0l0,0c0.146,0.145,0.291,0.241,0.484,0.29
		c0.243,0.097,0.533,0.146,0.728,0.29c0.194,0.146,0.291,0.34,0.437,0.533c0.34,0.68,0.484,1.455,0.97,1.987
		c0.194,0.193,0.438,0.39,0.63,0.582c0.534,0.63,0.534,1.552,0.922,2.229c0.581,1.018,1.938,1.454,2.473,2.521
		c0.388,0.775,0.243,1.648,0.533,2.474c0.193,0.483,0.484,0.921,0.631,1.404c0.097,0.485,0.048,0.971,0.048,1.406
		c0,0.484,0.146,1.019,0.483,1.31c0-0.291,0.291-0.582,0.582-0.631c0.146,0.437,0.193,0.872,0.098,1.356
		c0.049-0.242,0.34-0.387,0.582-0.436c0.679-0.146,1.164-0.146,1.356-0.922C325.235,276.287,325.235,275.899,325.188,275.512z"/>
	<path opacity="0.2" fill="#191C3C" enable-background="new    " d="M320.194,274.736l-3.829,0.243l-0.68,8.095l-1.794,0.679
		l0.049,2.86l2.521-0.194c1.309-0.097,2.375-1.065,2.568-2.375L320.194,274.736z"/>
	<path fill="#F9C582" d="M316.122,274.736l-0.679,8.096l-6.107,2.326l-2.376-1.503h-1.842l-0.484,0.922v1.019h0.438l0.048-0.533
		l0.194-0.049l2.473,1.794h1.309l7.028-0.533c1.309-0.097,2.375-1.066,2.569-2.376l1.454-9.064h-4.023L316.122,274.736
		L316.122,274.736z"/>
	<g opacity="0.2">
		<path fill="#191C3C" d="M313.99,282.298c0-0.097-0.05-0.24-0.05-0.339c0-0.388,0.389-0.727,0.679-0.921
			c-0.193,0-0.437-0.097-0.532-0.291c-0.097-0.192,0.048-0.483,0.242-0.483c-0.098-0.05-0.194-0.146-0.292-0.194
			c0.534,0,1.019-0.291,1.31-0.727c-0.388,0.192-0.872,0.388-1.31,0.192c-0.29-0.146-0.484-0.437-0.629-0.774
			c0.048,0.339,0.192,0.728,0.387,1.018l0.049,3.055C313.99,282.735,314.037,282.541,313.99,282.298z"/>
	</g>
	<polygon opacity="0.3" fill="#191C3C" enable-background="new    " points="316.074,275.221 320.146,275.221 320.194,274.736 
		316.122,274.736 	"/>
	<path fill="#EDF1F9" d="M315.831,274.736v-1.551c0-1.213,0.34-2.376,0.921-3.395l0,0h3.297l0,0c0.34,1.31,0.533,2.617,0.533,3.977
		v1.018L315.831,274.736L315.831,274.736z"/>
	<g opacity="0.14">
		<g>
			<path fill="#191C3C" d="M322.327,282.589c-0.049,0.291-0.049,0.534-0.097,0.824c-0.242-0.388-0.341-0.824-0.389-1.26
				C322.036,282.347,322.182,282.492,322.327,282.589z M322.86,280.214c-0.485,0.581-0.68,1.454-0.485,2.183
				c0.098-0.485,0.146-0.971,0.292-1.454L322.86,280.214C322.86,280.263,322.86,280.263,322.86,280.214z M321.794,283.995
				c-0.242,0-0.437,0.049-0.679,0.049c0.533,0.193,0.921,0.775,0.97,1.356c-0.097-0.048-0.194-0.048-0.291,0
				c0.242,0.291,0.438,0.582,0.581,0.97l-0.097-1.503c-0.048-0.436,0-0.872,0-1.355c-0.193-0.05-0.437-0.05-0.63-0.099
				c0,0.242,0.532,0.34,0.388,0.533C321.939,283.995,321.891,283.995,321.794,283.995z"/>
		</g>
	</g>
	<g opacity="0.12">
		<g>
			<path fill="#191C3C" d="M321.115,321.951l-0.099,0.679c-0.047,0-0.047,0-0.097,0l0.05-0.193
				C321.018,322.29,321.067,322.145,321.115,321.951z M320.533,299.701c-0.146,0.582-0.291,1.163-0.389,1.793
				c-0.097,0.97,0.098,1.939,0.194,2.957c0.146,1.503,0.097,3.006,0.097,4.509c-0.146-0.146-0.291-0.243-0.437-0.388
				c0.049,0.048,0.097,0.63,0.097,0.775c0.099,0.291,0.194,0.532,0.292,0.774c0.193,0.484,0.532,0.921,0.775,1.357
				c0.145-0.533,0.048-1.115,0.048-1.648c0-1.065,0-2.133,0-3.248c0-1.308,0-2.568,0-3.878c0-1.065,0-2.182,0-3.248
				c0-0.581,0.049-1.162,0-1.695c0-0.242,0-0.484,0-0.728c0-0.049,0-0.146,0-0.194c0-0.048-0.048-0.097-0.097-0.145
				c-0.048-0.05-0.048-0.098-0.099-0.146c-0.097,0.485-0.097,1.066-0.192,1.601C320.728,298.634,320.631,299.168,320.533,299.701z
				 M321.212,321.127l0.388-2.568c0.098-0.485,0.146-0.921,0.146-1.405c0.098-1.115,0.098-2.23,0-3.346
				c-0.049-0.63-0.146-1.212-0.339-1.793c-0.049-0.242-0.099-0.632-0.339-0.68c-0.34-0.097-0.68-0.049-0.972-0.241
				c-0.048,0-0.097-0.05-0.097,0c0,0-0.048,0.049-0.048,0.097c0,0.192,0.192,0.339,0.339,0.437c0.049,0.048,0.438,0.29,0.485,0.29
				c-0.389,0.099-0.824,0.099-1.212,0c0.436,0.389,0.823,0.873,1.113,1.358c0.146,0.242,0.242,0.532,0.339,0.823
				c0.099,0.291,0.146,0.533-0.24,0.34c-0.099-0.049-0.243-0.146-0.341-0.098c0.194,0.34,0.389,0.631,0.484,0.97
				c0.05,0.192,0.146,0.388,0.194,0.582c0.049,0.146,0.049,0.388,0.097,0.532c-0.241-0.34-0.63-0.631-1.066-0.679
				c0.291,0.775,0.582,1.503,0.872,2.278c-0.192-0.049-0.387-0.049-0.629-0.097C321.067,318.849,321.309,320.012,321.212,321.127z"
				/>
		</g>
	</g>
	<g opacity="0.1">
		<path fill="#191C3C" d="M314.231,260.68L314.231,260.68L314.231,260.68L314.231,260.68z"/>
	</g>
	<path opacity="0.3" fill="#FFF3DF" enable-background="new    " d="M317.818,258.789L317.818,258.789
		c0.728,0.193,1.164,0.484,1.31,1.26c0.048,0.484-0.339,0.97-0.437,1.405c-0.438,1.696-0.291,3.104,0.921,4.558
		c0.823,0.97,2.036,1.6,2.618,2.763c0.63,1.164,0.483,2.521,0.34,3.83h-0.051c0.146-2.278-0.192-3.781-1.793-5.479
		c-0.631-0.63-1.31-1.114-1.744-1.891c-0.438-0.729-0.631-1.552-0.582-2.376C318.4,261.6,319.952,259.467,317.818,258.789
		L317.818,258.789z M319.468,268.24c1.26-0.532,1.019,1.843,1.405,2.376c0.581,0.729,1.309,0.775,1.502,1.987
		c0.195,1.212,0.195,2.521,1.648,2.812c0.049,0,0.049-0.048,0-0.048c-2.084-0.582-1.114-2.278-1.696-3.637
		c-0.438-0.969-1.454-0.63-1.696-2.132C320.533,268.871,320.679,267.708,319.468,268.24L319.468,268.24L319.468,268.24z
		 M319.661,262.473c0.824-0.341,0.872,1.405,0.921,1.793c0.049,0.389,0.146,0.774,0.291,1.164c0.242,0.679,0.679,1.26,1.26,1.6
		c0,0,0.049,0,0.049-0.049c-0.63-0.533-1.065-1.115-1.309-1.892c-0.194-0.679-0.194-1.356-0.34-1.986
		C320.438,262.666,320.146,262.23,319.661,262.473C319.612,262.473,319.661,262.473,319.661,262.473L319.661,262.473z
		 M314.813,259.758c0.582-0.921,1.405,0.533,1.503,0.923c0.05,0.145,0.05,0.29,0.05,0.436c0.048,0.437,0.192,0.873,0.387,1.26
		c0.388,0.824,0.97,1.553,1.697,2.036c0.048,0,0.048-0.048,0.048-0.048c-0.679-0.582-1.26-1.213-1.647-2.036
		c-0.241-0.534-0.388-1.115-0.483-1.696c-0.05-0.241,0-0.484-0.099-0.729C315.978,259.418,315.056,259.176,314.813,259.758
		L314.813,259.758L314.813,259.758z M312.391,260.582c0.146-0.192,0.34-0.34,0.581-0.389c0.291-0.291,0.581-0.242,0.823,0.098
		c0.438,0.242,0.438,0.34,0.631,0.68c0.193,0.388,0.438,0.822,0.68,1.162c0.436,0.582,0.921,1.115,1.551,1.503c0,0,0.049,0,0-0.048
		c-0.775-0.532-1.357-1.164-1.842-1.938c-0.242-0.438-0.438-1.066-0.776-1.406C313.553,259.709,312.777,259.951,312.391,260.582
		C312.341,260.582,312.391,260.582,312.391,260.582L312.391,260.582z M313.311,259.128c1.164-0.97,2.229-0.824,3.346,0.193
		c0.388,0.339,0.679,0.581,1.163,0.581c0.049,0,0.049-0.048,0-0.048c-1.066-0.098-1.503-1.262-2.521-1.454
		C314.522,258.255,313.893,258.594,313.311,259.128L313.311,259.128L313.311,259.128z M320.921,262.279
		c0.679,0.58,0.631,1.938,0.873,2.762c0.291,0.922,0.63,1.842,0.873,2.765h0.048c-0.194-1.213-0.774-2.278-1.019-3.49
		C321.454,263.49,321.696,262.859,320.921,262.279C320.921,262.279,320.873,262.279,320.921,262.279L320.921,262.279z
		 M323.296,272.07c0.146,0.582,0.05,1.066,0.485,1.503c0.388,0.388,0.774,0.63,0.872,1.212c0.146,0.873-0.484,1.551-1.114,2.035
		v0.049c0.728-0.437,1.355-1.211,1.212-2.084c-0.049-0.485-0.291-0.728-0.631-1.018c-0.339-0.291-0.437-0.243-0.581-0.68
		C323.394,272.748,323.442,272.409,323.296,272.07C323.346,272.021,323.296,272.07,323.296,272.07L323.296,272.07z"/>
	<g>
		<path fill="#DFE2EC" d="M313.554,287.105h-12.7c-0.291,0-0.483-0.241-0.483-0.484v-0.097c0-0.291,0.242-0.484,0.483-0.484h12.7
			c0.291,0,0.484,0.242,0.484,0.484v0.097C314.088,286.864,313.845,287.105,313.554,287.105z"/>
		<path fill="#707176" d="M313.506,286.864h-12.652c-0.241,0-0.437-0.194-0.532-0.437c0,0.048-0.049,0.097-0.049,0.146
			c0,0.291,0.242,0.532,0.532,0.532h12.652c0.291,0,0.533-0.241,0.533-0.532c0-0.049,0-0.098-0.049-0.146
			C313.99,286.718,313.796,286.864,313.506,286.864z"/>
		<path fill="#DFE2EC" d="M301.483,286.137L301.483,286.137c-0.098,0.048-0.194,0.048-0.242-0.05l-5.091-9.112
			c-0.049-0.098,0-0.146,0.049-0.193l0,0c0.098-0.049,0.146,0,0.193,0.048l5.091,9.113
			C301.58,285.991,301.532,286.088,301.483,286.137z"/>
		<path fill="#707176" d="M301.338,286.088l-5.089-9.063c-0.05-0.098,0-0.194,0.048-0.242h0.049c-0.049,0-0.097-0.049-0.146,0
			c-0.097,0.048-0.097,0.146-0.048,0.242l5.09,9.063c0.048,0.05,0.097,0.098,0.192,0.05
			C301.387,286.137,301.338,286.137,301.338,286.088z"/>
		<g>
			<rect x="309.53" y="286.282" fill="#191C3C" width="1.019" height="0.388"/>
		</g>
		<g>
			<rect x="310.694" y="286.282" fill="#191C3C" width="1.018" height="0.388"/>
		</g>
		<g>
			<rect x="302.308" y="286.33" fill="#191C3C" width="1.02" height="0.388"/>
		</g>
	</g>
</g>
<g id="XMLID_5_">
	<path id="XMLID_8_" fill="#FEC55E" d="M108.586,320.666h-20.57c-0.141,0-0.234-0.094-0.234-0.232v-5.003
		c0-0.142,0.093-0.233,0.234-0.233h20.571c0.14,0,0.233,0.093,0.233,0.233v5.003C108.82,320.572,108.68,320.666,108.586,320.666z"/>
	<path fill="#BF9447" d="M108.493,319.871H88.109c-0.093,0-0.234,0-0.327-0.047v0.654c0,0.094,0.093,0.188,0.187,0.188h20.618
		c0.093,0,0.187-0.094,0.187-0.188v-0.654C108.727,319.824,108.586,319.871,108.493,319.871z"/>
	
		<rect id="XMLID_7_" x="98.769" y="315.196" opacity="0.5" fill="#FFFFFF" enable-background="new    " width="5.002" height="5.47"/>
	
		<rect id="XMLID_6_" x="104.706" y="315.196" opacity="0.5" fill="#FFFFFF" enable-background="new    " width="1.31" height="5.47"/>
</g>
<g id="XMLID_1_">
	<path id="XMLID_4_" fill="#FEC55E" d="M107.371,325.762H86.8c-0.14,0-0.234-0.095-0.234-0.233v-5.003
		c0-0.14,0.094-0.233,0.234-0.233h20.571c0.141,0,0.234,0.095,0.234,0.233v5.003C107.604,325.668,107.464,325.762,107.371,325.762z"
		/>
	<path fill="#BF9447" d="M107.277,324.967H86.894c-0.094,0-0.234,0-0.328-0.046v0.654c0,0.093,0.094,0.188,0.187,0.188h20.618
		c0.094,0,0.187-0.095,0.187-0.188v-0.654C107.511,324.967,107.371,324.967,107.277,324.967z"/>
	
		<rect id="XMLID_3_" x="97.553" y="320.338" opacity="0.5" fill="#FFFFFF" enable-background="new    " width="5.002" height="5.472"/>
	
		<rect id="XMLID_2_" x="103.491" y="320.292" opacity="0.5" fill="#FFFFFF" enable-background="new    " width="1.309" height="5.471"/>
</g>
<g id="XMLID_810_">
	<path id="XMLID_814_" fill="#FEC55E" d="M106.342,331.472H85.771c-0.141,0-0.234-0.095-0.234-0.233v-5.003
		c0-0.14,0.093-0.233,0.234-0.233h20.571c0.14,0,0.234,0.095,0.234,0.233v5.003C106.576,331.378,106.482,331.472,106.342,331.472z"
		/>
	<path fill="#BF9447" d="M106.249,330.677H85.865c-0.093,0-0.234,0-0.327-0.047v0.654c0,0.093,0.093,0.188,0.187,0.188h20.618
		c0.093,0,0.187-0.095,0.187-0.188v-0.654C106.482,330.631,106.389,330.677,106.249,330.677z"/>
	
		<rect id="XMLID_812_" x="96.571" y="326.002" opacity="0.5" fill="#FFFFFF" enable-background="new    " width="5.002" height="5.471"/>
	
		<rect id="XMLID_811_" x="102.461" y="326.002" opacity="0.5" fill="#FFFFFF" enable-background="new    " width="1.31" height="5.471"/>
</g>
<g id="XMLID_12_">
	<g id="XMLID_95_">
		<path id="XMLID_125_" fill="#FDFDFE" d="M124.856,330.904h-12.109c-1.449,0-2.618-1.169-2.618-2.618v-12.107
			c0-1.45,1.169-2.618,2.618-2.618h12.109c1.45,0,2.619,1.168,2.619,2.618v12.107C127.475,329.735,126.306,330.904,124.856,330.904z
			"/>
		<path id="XMLID_124_" fill="#377DFF" d="M124.95,313.513h-12.296c-1.403,0-2.572,1.122-2.572,2.57v2.665h17.393v-2.665
			C127.475,314.635,126.353,313.513,124.95,313.513z"/>
		<g id="XMLID_121_">
			<path id="XMLID_123_" fill="#4D5068" d="M122.051,315.944c0,0.747-0.607,1.309-1.309,1.309c-0.749,0-1.309-0.606-1.309-1.309
				c0-0.748,0.607-1.311,1.309-1.311C121.49,314.635,122.051,315.242,122.051,315.944z"/>
			<path id="XMLID_122_" fill="#272834" d="M121.63,315.944c0,0.514-0.42,0.888-0.888,0.888c-0.515,0-0.888-0.421-0.888-0.888
				c0-0.515,0.42-0.889,0.888-0.889C121.256,315.056,121.63,315.477,121.63,315.944z"/>
		</g>
		<g id="XMLID_118_">
			<path id="XMLID_120_" fill="#4D5068" d="M114.057,315.944c0,0.747-0.608,1.309-1.31,1.309c-0.748,0-1.309-0.606-1.309-1.309
				c0-0.748,0.608-1.311,1.309-1.311S114.057,315.242,114.057,315.944z"/>
			<path id="XMLID_119_" fill="#272834" d="M113.636,315.944c0,0.514-0.421,0.888-0.889,0.888c-0.514,0-0.888-0.421-0.888-0.888
				c0-0.515,0.421-0.889,0.888-0.889C113.215,315.056,113.636,315.477,113.636,315.944z"/>
		</g>
		<g id="XMLID_116_">
			<path id="XMLID_117_" fill="#191C3C" d="M120.695,316.271L120.695,316.271c-0.374,0-0.702-0.326-0.702-0.701v-2.384
				c0-1.264,0.935-2.386,2.151-2.479c1.449-0.141,2.618,0.981,2.618,2.384v0.422h-1.403v-0.374c0-0.516-0.374-0.981-0.889-1.028
				c-0.607-0.047-1.075,0.421-1.075,0.98v2.524C121.396,315.944,121.116,316.271,120.695,316.271z"/>
		</g>
		<g id="XMLID_114_">
			<path id="XMLID_115_" fill="#191C3C" d="M112.701,316.271L112.701,316.271c-0.375,0-0.701-0.326-0.701-0.701v-2.384
				c0-1.264,0.935-2.386,2.15-2.479c1.45-0.141,2.619,0.981,2.619,2.384v0.422h-1.402v-0.374c0-0.516-0.375-0.981-0.889-1.028
				c-0.608-0.047-1.075,0.421-1.075,0.98v2.524C113.402,315.944,113.075,316.271,112.701,316.271z"/>
		</g>
		<path id="XMLID_113_" opacity="0.3" fill="#8C98A4" enable-background="new    " d="M124.95,313.513h-1.309
			c1.402,0,2.571,1.122,2.571,2.57v12.296c0,1.402-1.122,2.571-2.571,2.571h1.262c1.403,0,2.572-1.122,2.572-2.571v-12.296
			C127.475,314.635,126.353,313.513,124.95,313.513z"/>
		<path id="XMLID_112_" fill="#DFE2EC" d="M118.918,321.741h-1.309c-0.141,0-0.234-0.094-0.234-0.234v-1.309
			c0-0.141,0.093-0.233,0.234-0.233h1.309c0.14,0,0.234,0.094,0.234,0.233v1.309C119.152,321.647,119.059,321.741,118.918,321.741z"
			/>
		<path id="XMLID_111_" fill="#DFE2EC" d="M121.77,321.741h-1.309c-0.14,0-0.234-0.094-0.234-0.234v-1.309
			c0-0.141,0.094-0.233,0.234-0.233h1.309c0.141,0,0.234,0.094,0.234,0.233v1.309C122.004,321.647,121.911,321.741,121.77,321.741z"
			/>
		<path id="XMLID_110_" fill="#DFE2EC" d="M124.623,321.741h-1.31c-0.14,0-0.233-0.094-0.233-0.234v-1.309
			c0-0.141,0.093-0.233,0.233-0.233h1.31c0.14,0,0.233,0.094,0.233,0.233v1.309C124.856,321.647,124.763,321.741,124.623,321.741z"
			/>
		<path id="XMLID_109_" fill="#DFE2EC" d="M113.215,324.313h-1.31c-0.14,0-0.233-0.094-0.233-0.233v-1.31
			c0-0.142,0.094-0.233,0.233-0.233h1.31c0.141,0,0.233,0.093,0.233,0.233v1.31C113.448,324.219,113.355,324.313,113.215,324.313z"
			/>
		<path id="XMLID_107_" fill="#DFE2EC" d="M116.067,324.313h-1.309c-0.141,0-0.234-0.094-0.234-0.233v-1.31
			c0-0.142,0.093-0.233,0.234-0.233h1.309c0.14,0,0.233,0.093,0.233,0.233v1.31C116.3,324.219,116.207,324.313,116.067,324.313z"/>
		<path id="XMLID_106_" fill="#DFE2EC" d="M118.918,324.313h-1.309c-0.141,0-0.234-0.094-0.234-0.233v-1.31
			c0-0.142,0.093-0.233,0.234-0.233h1.309c0.14,0,0.234,0.093,0.234,0.233v1.31C119.152,324.219,119.059,324.313,118.918,324.313z"
			/>
		<path id="XMLID_105_" fill="#DFE2EC" d="M121.77,324.313h-1.309c-0.14,0-0.234-0.094-0.234-0.233v-1.31
			c0-0.142,0.094-0.233,0.234-0.233h1.309c0.141,0,0.234,0.093,0.234,0.233v1.31C122.004,324.219,121.911,324.313,121.77,324.313z"
			/>
		<path id="XMLID_104_" fill="#DFE2EC" d="M124.623,324.313h-1.31c-0.14,0-0.233-0.094-0.233-0.233v-1.31
			c0-0.142,0.093-0.233,0.233-0.233h1.31c0.14,0,0.233,0.093,0.233,0.233v1.31C124.856,324.219,124.763,324.313,124.623,324.313z"/>
		<path id="XMLID_103_" fill="#DFE2EC" d="M113.215,326.884h-1.31c-0.14,0-0.233-0.094-0.233-0.232v-1.311
			c0-0.14,0.094-0.232,0.233-0.232h1.31c0.141,0,0.233,0.094,0.233,0.232v1.311C113.448,326.79,113.355,326.884,113.215,326.884z"/>
		<path id="XMLID_102_" fill="#DFE2EC" d="M116.067,326.884h-1.309c-0.141,0-0.234-0.094-0.234-0.232v-1.311
			c0-0.14,0.093-0.232,0.234-0.232h1.309c0.14,0,0.233,0.094,0.233,0.232v1.311C116.3,326.79,116.207,326.884,116.067,326.884z"/>
		<path id="XMLID_101_" fill="#DFE2EC" d="M118.918,326.884h-1.309c-0.141,0-0.234-0.094-0.234-0.232v-1.311
			c0-0.14,0.093-0.232,0.234-0.232h1.309c0.14,0,0.234,0.094,0.234,0.232v1.311C119.152,326.79,119.059,326.884,118.918,326.884z"/>
		<path id="XMLID_100_" fill="#DFE2EC" d="M121.77,326.884h-1.309c-0.14,0-0.234-0.094-0.234-0.232v-1.311
			c0-0.14,0.094-0.232,0.234-0.232h1.309c0.141,0,0.234,0.094,0.234,0.232v1.311C122.004,326.79,121.911,326.884,121.77,326.884z"/>
		<path id="XMLID_99_" fill="#DFE2EC" d="M124.623,326.884h-1.31c-0.14,0-0.233-0.094-0.233-0.232v-1.311
			c0-0.14,0.093-0.232,0.233-0.232h1.31c0.14,0,0.233,0.094,0.233,0.232v1.311C124.856,326.79,124.763,326.884,124.623,326.884z"/>
		<path id="XMLID_98_" fill="#DFE2EC" d="M113.215,329.455h-1.31c-0.14,0-0.233-0.094-0.233-0.232v-1.311
			c0-0.14,0.094-0.232,0.233-0.232h1.31c0.141,0,0.233,0.094,0.233,0.232v1.311C113.448,329.361,113.355,329.455,113.215,329.455z"
			/>
		<path id="XMLID_97_" fill="#DFE2EC" d="M116.067,329.455h-1.309c-0.141,0-0.234-0.094-0.234-0.232v-1.311
			c0-0.14,0.093-0.232,0.234-0.232h1.309c0.14,0,0.233,0.094,0.233,0.232v1.311C116.3,329.361,116.207,329.455,116.067,329.455z"/>
		<path id="XMLID_96_" fill="#DFE2EC" d="M118.918,329.455h-1.309c-0.141,0-0.234-0.094-0.234-0.232v-1.311
			c0-0.14,0.093-0.232,0.234-0.232h1.309c0.14,0,0.234,0.094,0.234,0.232v1.311C119.152,329.361,119.059,329.455,118.918,329.455z"
			/>
	</g>
	<g id="XMLID_93_" opacity="0.3">
		<path id="XMLID_94_" fill="#231F20" d="M113.261,330.718v-0.094v-0.141v-0.701c0-0.14-0.14-0.28-0.28-0.28h-0.093v-0.421v-3.179
			c0-0.188-0.094-0.374-0.187-0.515c-0.047-0.048-0.094-0.095-0.141-0.142l-1.402-1.075c-0.046-0.047-0.094-0.093-0.094-0.14
			s-0.047-0.094-0.047-0.141c0-0.094,0.047-0.188,0.141-0.233l1.402-1.076c0.047-0.046,0.094-0.093,0.141-0.14
			c0.046-0.047,0.093-0.094,0.093-0.188c0.047-0.141,0.094-0.233,0.094-0.375l0,0v-2.897v-0.468h0.093c0.141,0,0.28-0.141,0.28-0.28
			v-0.654v-0.188V317.3c0-0.094-0.093-0.188-0.187-0.188h-0.094h-2.899v1.684v9.771c0,1.309,1.076,2.384,2.385,2.384h0.608
			C113.168,330.904,113.261,330.811,113.261,330.718z"/>
	</g>
	<g id="XMLID_13_">
		<g id="XMLID_33_">
			<g id="XMLID_91_">
				<path id="XMLID_92_" fill="#FBFCFD" d="M105.968,330.017v-4.161c0-0.233,0.14-0.516,0.327-0.654l1.402-1.076
					c0.187-0.14,0.187-0.374,0-0.514l-1.402-1.075c-0.187-0.141-0.327-0.421-0.327-0.655v-3.974h6.312v3.974
					c0,0.234-0.141,0.516-0.327,0.655l-1.403,1.075c-0.187,0.14-0.187,0.374,0,0.514l1.403,1.076
					c0.187,0.14,0.327,0.421,0.327,0.654v4.161H105.968z"/>
			</g>
			<g id="XMLID_89_">
				<path id="XMLID_90_" fill="#ECEFF6" d="M106.997,325.201l1.403-1.076c0.187-0.14,0.187-0.374,0-0.514l-1.403-1.075
					c-0.187-0.141-0.327-0.421-0.327-0.655v-3.974h-0.701v3.974c0,0.234,0.14,0.516,0.327,0.655l1.402,1.075
					c0.187,0.14,0.187,0.374,0,0.514l-1.402,1.076c-0.187,0.14-0.327,0.421-0.327,0.654v4.161h0.701v-4.161
					C106.669,325.668,106.81,325.341,106.997,325.201z"/>
			</g>
			<g id="XMLID_87_" opacity="0.39">
				<path id="XMLID_88_" fill="#F9FAFC" d="M111.953,322.536c0.187-0.141,0.327-0.421,0.327-0.655v-3.974h-0.842v3.974
					c0,0.234-0.14,0.516-0.327,0.655l-1.403,1.075c-0.187,0.14-0.187,0.374,0,0.514l1.403,1.076c0.187,0.14,0.327,0.421,0.327,0.654
					v4.161h0.842v-4.161c0-0.233-0.141-0.516-0.327-0.654l-1.403-1.076c-0.187-0.14-0.187-0.374,0-0.514L111.953,322.536z"/>
			</g>
			<g id="XMLID_85_">
				<path id="XMLID_86_" fill="#FEC55E" d="M106.669,329.596h4.815v-1.87c0-0.374-0.234-0.748-0.561-0.937l-1.402-0.701
					c-0.328-0.187-0.702-0.141-1.029,0l-1.262,0.701c-0.327,0.188-0.561,0.563-0.561,0.937V329.596L106.669,329.596z"/>
			</g>
			<g id="XMLID_83_" opacity="0.3">
				<rect id="XMLID_84_" x="105.968" y="317.907" fill="#231F20" width="6.312" height="1.028"/>
			</g>
			<g id="XMLID_81_">
				<path id="XMLID_82_" fill="#575A8F" d="M112.42,318.469h-6.639c-0.141,0-0.234-0.095-0.234-0.234V317.3
					c0-0.141,0.093-0.232,0.234-0.232h6.639c0.14,0,0.234,0.093,0.234,0.232v0.936C112.654,318.375,112.56,318.469,112.42,318.469z"
					/>
			</g>
			<g id="XMLID_79_">
				<path id="XMLID_80_" fill="#797BA5" d="M112.467,317.02h-6.779c-0.093,0-0.187,0.093-0.187,0.187v0.28h7.106v-0.28
					C112.654,317.112,112.56,317.02,112.467,317.02z"/>
			</g>
			<g id="XMLID_42_" opacity="0.3">
				<rect id="XMLID_43_" x="105.968" y="329.034" fill="#231F20" width="6.312" height="0.937"/>
			</g>
			<g id="XMLID_40_">
				<path id="XMLID_41_" fill="#575A8F" d="M112.467,330.904h-6.639c-0.14,0-0.233-0.094-0.233-0.233v-0.936
					c0-0.14,0.093-0.233,0.233-0.233h6.639c0.14,0,0.234,0.095,0.234,0.233v0.936C112.701,330.811,112.56,330.904,112.467,330.904z"
					/>
			</g>
			<g id="XMLID_38_">
				<path id="XMLID_39_" fill="#41446B" d="M105.547,330.437v0.281c0,0.093,0.093,0.187,0.187,0.187h6.779
					c0.093,0,0.187-0.094,0.187-0.187v-0.281H105.547z"/>
			</g>
			<g id="XMLID_36_">
				<path id="XMLID_37_" fill="#FEC55E" d="M109.054,325.061h-0.14c-0.141,0-0.234-0.095-0.234-0.234v-0.467
					c0-0.141,0.093-0.234,0.234-0.234h0.14c0.14,0,0.234,0.095,0.234,0.234v0.467C109.288,324.967,109.194,325.061,109.054,325.061z
					"/>
			</g>
			<g id="XMLID_34_">
				<path id="XMLID_35_" fill="#FEC55E" d="M109.054,321.46c-0.935,0-1.776-0.373-2.384-1.026v0.935
					c0,0.421,0.234,0.795,0.561,0.981l1.169,0.653c0.14,0.095,0.234,0.234,0.234,0.421v0.28c0,0.141,0.14,0.281,0.28,0.281
					s0.28-0.142,0.28-0.281v-0.28c0-0.187,0.094-0.374,0.281-0.421l1.309-0.653c0.375-0.188,0.608-0.607,0.608-1.028v-0.982
					C110.877,321.04,110.036,321.46,109.054,321.46z"/>
			</g>
		</g>
		<g id="XMLID_14_">
			<g id="XMLID_31_">
				<path id="XMLID_32_" fill="#4D5068" d="M115.505,323.751h-0.374c-0.094,0-0.187-0.093-0.187-0.187s0.093-0.188,0.187-0.188
					h0.374c0.094,0,0.187,0.094,0.187,0.188S115.646,323.751,115.505,323.751z"/>
			</g>
			<g id="XMLID_29_">
				<path id="XMLID_30_" fill="#4D5068" d="M115.739,325.014h-0.047l-0.748-0.188c-0.094-0.046-0.141-0.14-0.141-0.232
					c0.047-0.094,0.141-0.141,0.234-0.141l0.748,0.188c0.094,0.047,0.14,0.141,0.14,0.232
					C115.88,324.967,115.833,325.014,115.739,325.014z"/>
			</g>
			<g id="XMLID_27_">
				<path id="XMLID_28_" fill="#4D5068" d="M114.898,326.042c-0.047,0-0.047,0-0.094-0.047l-0.327-0.187
					c-0.094-0.047-0.14-0.142-0.047-0.233c0.047-0.094,0.14-0.141,0.234-0.047l0.327,0.187c0.094,0.048,0.141,0.142,0.047,0.233
					C115.038,325.995,114.945,326.042,114.898,326.042z"/>
			</g>
			<g id="XMLID_25_">
				<path id="XMLID_26_" fill="#4D5068" d="M114.43,327.305c-0.047,0-0.093,0-0.14-0.048l-0.561-0.561
					c-0.093-0.094-0.093-0.188,0-0.281c0.094-0.093,0.187-0.093,0.281,0l0.561,0.563c0.094,0.093,0.094,0.188,0,0.279
					C114.524,327.258,114.477,327.305,114.43,327.305z"/>
			</g>
			<g id="XMLID_23_">
				<path id="XMLID_24_" fill="#4D5068" d="M113.215,327.726c-0.047,0-0.14-0.047-0.14-0.095l-0.187-0.326
					c-0.047-0.095,0-0.188,0.047-0.234c0.093-0.046,0.187,0,0.233,0.047l0.188,0.328c0.046,0.093,0,0.187-0.047,0.233
					C113.261,327.726,113.261,327.726,113.215,327.726z"/>
			</g>
			<g id="XMLID_21_">
				<path id="XMLID_22_" fill="#4D5068" d="M113.027,320.058c-0.046,0-0.046,0-0.093-0.046c-0.094-0.048-0.141-0.142-0.047-0.234
					l0.187-0.327c0.047-0.094,0.14-0.14,0.233-0.047c0.094,0.047,0.14,0.141,0.047,0.233l-0.188,0.327
					C113.122,320.058,113.075,320.058,113.027,320.058z"/>
			</g>
			<g id="XMLID_19_">
				<path id="XMLID_20_" fill="#4D5068" d="M113.916,320.759c-0.047,0-0.093,0-0.14-0.046c-0.094-0.094-0.094-0.188,0-0.279
					l0.561-0.563c0.093-0.094,0.187-0.094,0.28,0c0.094,0.094,0.094,0.188,0,0.28l-0.561,0.562
					C114.01,320.713,113.963,320.759,113.916,320.759z"/>
			</g>
			<g id="XMLID_17_">
				<path id="XMLID_18_" fill="#4D5068" d="M114.57,321.601c-0.046,0-0.14-0.046-0.14-0.095c-0.047-0.093,0-0.187,0.047-0.232
					l0.327-0.188c0.094-0.047,0.187,0,0.234,0.047c0.047,0.094,0,0.188-0.047,0.233l-0.327,0.188
					C114.617,321.601,114.617,321.601,114.57,321.601z"/>
			</g>
			<g id="XMLID_15_">
				<path id="XMLID_16_" fill="#4D5068" d="M114.991,322.629c-0.093,0-0.14-0.047-0.187-0.14c-0.046-0.094,0.047-0.188,0.141-0.233
					l0.748-0.188c0.094-0.047,0.188,0.047,0.234,0.141c0.047,0.093-0.046,0.188-0.14,0.233l-0.748,0.187H114.991z"/>
			</g>
		</g>
	</g>
</g>
<path opacity="0.3" fill="#191C3C" enable-background="new    " d="M44.854,284.509c-3.65,0-6.608,2.958-6.608,6.607
	c0,3.65,2.958,6.608,6.608,6.608s6.608-2.958,6.608-6.608C51.461,287.467,48.504,284.509,44.854,284.509z"/>
<g id="XMLID_126_">
	<path id="XMLID_134_" fill="#FEC55E" d="M50.518,291.116c0,3.65-2.958,6.608-6.608,6.608c-3.65,0-6.608-2.958-6.608-6.608
		c0-3.649,2.958-6.607,6.608-6.607C47.56,284.509,50.518,287.467,50.518,291.116z"/>
	<path id="XMLID_133_" fill="#FCD991" d="M49.794,291.116c0,3.241-2.644,5.885-5.884,5.885c-3.241,0-5.884-2.644-5.884-5.885
		c0-3.24,2.643-5.884,5.884-5.884C47.15,285.232,49.794,287.876,49.794,291.116z"/>
	<path id="XMLID_132_" fill="#FEC55E" d="M49.102,291.116c0,2.863-2.329,5.192-5.192,5.192c-2.863,0-5.192-2.329-5.192-5.192
		c0-2.862,2.329-5.191,5.192-5.191C46.773,285.925,49.102,288.254,49.102,291.116z"/>
	<g id="XMLID_127_">
		<g id="XMLID_130_">
			<path id="XMLID_131_" fill="#191C3C" d="M44.57,293.791h-1.919c-0.44,0-0.818-0.346-0.818-0.816v-0.409h1.133v0.063h1.573
				c0.314,0,0.566-0.251,0.566-0.565c0-0.188-0.158-0.348-0.346-0.348h-1.416c-0.818,0-1.51-0.659-1.51-1.51v-0.22
				c0-0.944,0.755-1.699,1.699-1.699h1.919c0.441,0,0.818,0.346,0.818,0.818v0.472h-1.133v-0.126h-1.573
				c-0.315,0-0.566,0.252-0.566,0.566v0.22c0,0.188,0.157,0.347,0.346,0.347h1.416c0.818,0,1.51,0.661,1.51,1.51
				C46.27,293.005,45.514,293.791,44.57,293.791z"/>
		</g>
		<g id="XMLID_128_">
			<rect id="XMLID_129_" x="43.5" y="287.75" fill="#191C3C" width="1.133" height="6.733"/>
		</g>
	</g>
</g>
<g id="Layer_9">
	<path opacity="0.3" fill="#191C3C" enable-background="new    " d="M37.196,291.411l5.966,2.813c0.17,0,0.384,0.043,0.554,0.043
		c0.767,0,1.534-0.128,2.216-0.3c-0.128,0-0.213,0-0.299,0l-0.639-0.043l0.597-0.596c0.17-0.085,0.213-0.299,0.128-0.469
		c-0.085-0.171-0.298-0.214-0.469-0.128l-1.151,0.597l-6.69-4.177l-1.747-1.959c-0.043-0.171-0.085-0.299-0.128-0.384
		c0,0-0.256-1.193-0.725-2.559c-0.042,0.341-0.085,0.684-0.085,1.065C34.768,287.661,35.705,289.834,37.196,291.411
		C37.239,291.454,37.239,291.411,37.196,291.411z"/>
	<g>
		<rect x="40.733" y="324.479" fill="#DDB758" width="1.491" height="1.661"/>
		
			<rect x="25.586" y="323.693" transform="matrix(0.4416 -0.8972 0.8972 0.4416 -276.3439 204.8804)" fill="#DDB758" width="1.662" height="1.491"/>
		<polygon fill="#336DC1" points="29.782,296.439 32.296,301.895 37.537,309.819 39.923,325.033 42.992,325.033 41.969,310.672 
			38.815,300.402 38.049,296.439 		"/>
		<g opacity="0.3">
			<path fill="#191C3C" d="M31.316,299.763l7.159-1.106l0.341,1.704l0.384,1.192c-0.81,2.089-1.62,4.985-1.705,8.183l-5.241-7.884
				L31.316,299.763z"/>
		</g>
		<rect x="26.756" y="276.113" fill="#DDB758" width="3.153" height="3.665"/>
		<polygon opacity="0.3" fill="#191C3C" enable-background="new    " points="26.713,278.158 29.909,277.008 29.909,276.113 
			26.713,276.113 		"/>
		<path fill="#C6E8F7" d="M30.463,277.945l-4.261,1.065v0.811c0,0-1.662,2.215-1.577,3.365s4.474,12.784,5.114,13.211h8.267
			c0,0-3.324-8.693-3.537-9.631c0,0-1.022-4.688-2.813-6.095c0,0-0.554-0.895-1.065-1.192
			C30.634,279.522,30.123,278.968,30.463,277.945z"/>
		<path opacity="0.3" fill="#272834" enable-background="new    " d="M29.995,288.003l2.472-3.196l-2.258-1.959
			c-0.767-0.812-2.045-0.812-2.855-0.043l0,0c-0.81,0.767-0.81,2.045-0.042,2.854L29.995,288.003z"/>
		<path fill="#C6E8F7" d="M30.335,287.618l2.429-3.195l-2.983-2.301c-0.64-0.512-1.577-0.384-2.088,0.298l-0.64,0.811
			c-0.511,0.64-0.383,1.576,0.298,2.088L30.335,287.618z"/>
		<path opacity="0.3" fill="#191C3C" enable-background="new    " d="M35.492,289.621c0.341,0.98,0.767,2.046,1.15,3.068
			l-1.875-0.896l-4.773-3.835l1.833-2.43L35.492,289.621z"/>
		<path fill="#DDB758" d="M43.205,294.735l-7.798-3.665l-4.772-3.835l1.833-2.43l3.877,4.347l7.074,4.433l-0.255,0.34l1.406,0.043
			c0.597,0.044,2.258-0.213,2.897,0.47l-2.855,0.299L43.205,294.735L43.205,294.735z"/>
		<path fill="#336DC1" d="M29.782,296.439c0,0-0.512,2.43,0,4.006c0.511,1.576,1.236,2.515,1.236,2.515l-0.725,7.712l-5.455,13.168
			l2.94,0.896l6.392-11.506l4.602-13.21l-0.724-3.621L29.782,296.439L29.782,296.439z"/>
		<path fill="#EFDCB4" d="M25.478,276.923h4.56c0.725,0,1.279-0.597,1.279-1.277v-1.492h0.938c0.213-1.533-1.236-2.642-1.449-3.408
			c-0.383-1.192,0.512-1.576,0.512-1.576H25.48v7.754H25.478z"/>
		<rect x="29.313" y="295.971" fill="#1E2022" width="9.119" height="1.277"/>
		<path fill="#DDB758" d="M43.588,294.267l0.938-0.896c0.17-0.085,0.213-0.298,0.128-0.469l0,0c-0.085-0.17-0.299-0.213-0.469-0.127
			l-1.236,0.639c-0.17,0.086-0.213,0.298-0.128,0.469l0,0C42.949,293.968,43.417,294.352,43.588,294.267z"/>
		<path fill="#4D5068" d="M40.179,325.629h2.77l1.15,1.278h2.344c1.491,0,2.855,0.854,3.537,2.174l0,0h-9.758L40.179,325.629
			L40.179,325.629z"/>
		<path fill="#FFFFFF" d="M40.733,327.334c0,0.47,0.383,0.853,0.852,0.853c0.468,0,0.852-0.383,0.852-0.853
			c0-0.469-0.384-0.853-0.852-0.853C41.117,326.481,40.733,326.865,40.733,327.334z"/>
		<rect x="39.838" y="329.081" fill="#FEC55E" width="10.525" height="0.811"/>
		<path fill="#4D5068" d="M24.881,324.309l2.557,1.063l0.554,1.62l2.77,0.043c1.364,0.554,1.747,0.596,1.833,2.088l0,0h-5.156
			l-3.92-1.662L24.881,324.309z"/>
		<path fill="#FFFFFF" d="M24.668,326.099c-0.17,0.426,0.042,0.938,0.469,1.149c0.426,0.17,0.937-0.043,1.15-0.469
			c0.171-0.427-0.042-0.938-0.469-1.151C25.393,325.459,24.881,325.672,24.668,326.099z"/>
		<rect x="27.012" y="328.996" fill="#FEC55E" width="5.753" height="0.811"/>
		
			<rect x="24.786" y="326.46" transform="matrix(0.3929 -0.9196 0.9196 0.3929 -286.8912 222.6653)" fill="#FEC55E" width="0.81" height="4.304"/>
		<g>
			<path fill="#1E2022" d="M31.358,274.11c-0.938,0-1.449,0.597-2.088,0.896c-0.298,0.127-0.938,0.299-1.107,0
				c-0.256-0.385-0.043-1.32,0-1.747c0.042-0.427,0.127-1.491,0.298-1.833c0.17-0.384,0.554-0.81,0.938-0.979
				c0.213-0.086,0.426-0.129,0.639-0.086c0.341,0.043,0.469,0.171,0.81,0.043c0.341-0.128,0.64-0.426,0.853-0.725
				c0.128-0.172,0.213-0.427,0.17-0.641c-0.042-0.298-0.256-0.511-0.511-0.639c-0.597-0.341-1.108-0.213-1.748,0
				c-0.298,0.085-0.639,0.128-0.852-0.086c-0.085-0.085-0.128-0.17-0.213-0.255c-0.383-0.47-1.15-0.513-1.577-0.128
				c-0.426,0.426-0.554,0.725-1.151,0.938c-0.383,0.128-0.852,0.299-1.108,0.639c-0.383,0.598,0.085,0.896,0.171,1.449
				c0.042,0.256-0.128,0.469-0.298,0.683c-0.256,0.427-0.384,1.576-0.298,2.089c0.042,0.212,0.128,0.468,0.341,0.597
				c0.426,0.34,0.383,0.809,0.383,1.362c0,0.427-0.383,0.64-0.383,1.022c-0.042,0.811,1.193,0.811,1.449,0.128
				c0.341-0.81,0.043-1.79,0.085-2.686c0-0.511,0.511-1.107,1.065-0.768c0.299,0.214,0.299,0.555,0.256,0.854
				c-0.042,0.469-0.042,0.938-0.042,1.448c-0.042,0.725-0.298,1.662,0.469,2.132c0.682,0.383,1.278,0.17,2.002,0.127
				c0.341,0,0.725,0,1.023-0.213c0.384-0.256,0.511-0.683,0.682-1.107c0.085-0.299,0.17-0.597,0.256-0.853s0.17-0.555,0.17-0.854
				C31.955,274.579,31.656,274.11,31.358,274.11z"/>
		</g>
	</g>
</g>
<g>
	<path fill="#B7D2F9" d="M232.567,325.709h-91.322v-92.153c0-1.37,1.135-2.496,2.518-2.496h86.238c1.383,0,2.518,1.126,2.518,2.496
		v92.153H232.567L232.567,325.709z"/>
	<rect x="144.602" y="245.839" fill="#F3F4F9" width="85.005" height="79.87"/>
	<rect x="152.154" y="251.711" fill="#E7EAF3" width="69.849" height="26.624"/>
	<rect x="172.591" y="251.711" fill="#377DFF" width="49.463" height="26.624"/>
	<rect x="152.154" y="251.711" fill="#377DFF" width="69.899" height="11.404"/>
	<path fill="#377DFF" d="M168.839,270.749L168.839,270.749c-0.74,0-1.332-0.587-1.332-1.32v-8.761c0-0.733,0.592-1.321,1.332-1.321
		l0,0c0.74,0,1.333,0.588,1.333,1.321v8.761C170.172,270.162,169.579,270.749,168.839,270.749z"/>
	<path fill="#377DFF" d="M163.655,267.373L163.655,267.373c-0.74,0-1.332-0.588-1.332-1.322v-5.284c0-0.734,0.592-1.321,1.332-1.321
		l0,0c0.741,0,1.334,0.587,1.334,1.321v5.284C164.989,266.785,164.396,267.373,163.655,267.373z"/>
	<path fill="#377DFF" d="M166.272,257.829c-0.741,0-1.333,0.587-1.333,1.321v5.285c0,0.049,0,0.049,0,0.098
		c0.05-0.685,0.592-1.223,1.283-1.223c0.69,0,1.234,0.538,1.284,1.223c0-0.049,0-0.049,0-0.098v-5.285
		C167.556,258.416,166.963,257.829,166.272,257.829z"/>
	<path fill="#377DFF" d="M171.405,258.66c-0.74,0-1.332,0.588-1.332,1.322v5.285c0,0.049,0,0.049,0,0.098
		c0.049-0.685,0.592-1.223,1.283-1.223s1.234,0.538,1.283,1.223c0-0.049,0-0.049,0-0.098v-5.334
		C172.689,259.248,172.146,258.66,171.405,258.66z"/>
	<rect x="165.976" y="237.323" fill="#FFFFFF" width="45.563" height="3.72"/>
	<g>
		<path fill="#377DFF" d="M225.903,237.91h-3.455c-0.247,0-0.445-0.195-0.445-0.438l0,0c0-0.246,0.198-0.441,0.445-0.441h3.455
			c0.247,0,0.444,0.195,0.444,0.441l0,0C226.348,237.715,226.15,237.91,225.903,237.91z"/>
		<path fill="#377DFF" d="M225.903,239.623h-3.455c-0.247,0-0.445-0.194-0.445-0.438l0,0c0-0.246,0.198-0.441,0.445-0.441h3.455
			c0.247,0,0.444,0.195,0.444,0.441l0,0C226.348,239.428,226.15,239.623,225.903,239.623z"/>
		<path fill="#377DFF" d="M225.903,241.287h-3.455c-0.247,0-0.445-0.195-0.445-0.439l0,0c0-0.245,0.198-0.44,0.445-0.44h3.455
			c0.247,0,0.444,0.195,0.444,0.44l0,0C226.348,241.092,226.15,241.287,225.903,241.287z"/>
	</g>
	<ellipse fill="#00C9A7" cx="150.13" cy="239.183" rx="1.826" ry="1.811"/>
	<ellipse fill="#00C9A7" cx="155.511" cy="239.183" rx="1.826" ry="1.811"/>
	<ellipse fill="#00C9A7" cx="160.892" cy="239.183" rx="1.826" ry="1.811"/>
	<rect x="152.154" y="286.312" fill="#DFE2EC" width="69.849" height="3.278"/>
	<rect x="152.154" y="294.045" fill="#DFE2EC" width="69.849" height="3.279"/>
	<rect x="152.154" y="301.728" fill="#DFE2EC" width="69.849" height="3.278"/>
	<rect x="152.154" y="309.461" fill="#DFE2EC" width="69.849" height="3.279"/>
</g>
<g id="Layer_10">
	<g>
		<line fill="none" stroke="#1E2022" stroke-miterlimit="10" x1="147.853" y1="251.082" x2="147.853" y2="328.97"/>
		<line fill="none" stroke="#1E2022" stroke-miterlimit="10" x1="160.085" y1="251.082" x2="160.085" y2="328.97"/>
		<line fill="none" stroke="#1E2022" stroke-miterlimit="10" x1="147.853" y1="262.502" x2="160.085" y2="262.502"/>
		<line fill="none" stroke="#1E2022" stroke-miterlimit="10" x1="147.853" y1="257.198" x2="160.085" y2="257.198"/>
		<line fill="none" stroke="#1E2022" stroke-miterlimit="10" x1="147.853" y1="267.753" x2="160.085" y2="267.753"/>
		<line fill="none" stroke="#1E2022" stroke-miterlimit="10" x1="147.853" y1="273.004" x2="160.085" y2="273.004"/>
		<line fill="none" stroke="#1E2022" stroke-miterlimit="10" x1="147.853" y1="278.254" x2="160.085" y2="278.254"/>
		<line fill="none" stroke="#1E2022" stroke-miterlimit="10" x1="147.853" y1="283.504" x2="160.085" y2="283.504"/>
		<line fill="none" stroke="#1E2022" stroke-miterlimit="10" x1="147.853" y1="288.808" x2="160.085" y2="288.808"/>
		<line fill="none" stroke="#1E2022" stroke-miterlimit="10" x1="147.853" y1="294.059" x2="160.085" y2="294.059"/>
		<line fill="none" stroke="#1E2022" stroke-miterlimit="10" x1="147.853" y1="299.309" x2="160.085" y2="299.309"/>
		<line fill="none" stroke="#1E2022" stroke-miterlimit="10" x1="147.853" y1="304.559" x2="160.085" y2="304.559"/>
		<line fill="none" stroke="#1E2022" stroke-miterlimit="10" x1="147.853" y1="309.863" x2="160.085" y2="309.863"/>
		<line fill="none" stroke="#1E2022" stroke-miterlimit="10" x1="147.853" y1="315.114" x2="160.085" y2="315.114"/>
		<line fill="none" stroke="#1E2022" stroke-miterlimit="10" x1="147.853" y1="320.364" x2="160.085" y2="320.364"/>
		<line fill="none" stroke="#1E2022" stroke-miterlimit="10" x1="147.853" y1="325.614" x2="160.085" y2="325.614"/>
	</g>
</g>
<rect x="59.301" y="474.319" fill="#4D5068" width="3.085" height="0.758"/>
<g>
	<path opacity="0.3" fill="#191C3C" enable-background="new    " d="M176.507,257.43c0-0.056-0.054-0.108-0.108-0.162
		c-0.054-0.056-0.109-0.056-0.217-0.056l0,0l0,0h-0.054h-0.054h-0.055c0-0.271,0-0.541-0.054-0.813h-0.054c0-0.054,0-0.162,0-0.216
		c-2.977,0-5.9-0.055-8.877-0.055c0,0.055,0,0.107,0,0.162h-0.054c-0.054,0.703-0.108,1.354,0,2.058h0.054c0,0.055,0,0.107,0,0.162
		c2.977,0,5.9,0.055,8.877,0.055l0,0c0-0.055,0-0.108,0-0.162c0.054,0,0.054,0,0.108,0c0.055-0.325,0.055-0.596,0.055-0.921h0.054
		h0.108l0,0l0,0c0,0,0,0,0,0.054v0.435v1.84v0.434v0.108v0.054l0,0l0,0c0,0.055-0.054,0.055-0.054,0.108l0,0l0,0l0,0l0,0
		l-0.108,0.054l-0.217,0.109l-0.433,0.216l-1.624,0.758l-1.624,0.758l-0.217,0.108c-0.054,0.054-0.108,0.054-0.162,0.106
		c-0.054,0.056-0.054,0.109-0.108,0.163c0,0.054-0.054,0.108-0.054,0.162l0,0l0,0v0.054v0.056v0.217v0.703h-0.433v0.162
		c0,0.055,0,0.055,0.054,0.055h0.378h-0.378c-0.108,0-0.163,0.055-0.163,0.162l-0.054,0.648l0,0
		c-0.271,0.108-0.595,0.218-0.866,0.325s-0.542,0.217-0.704,0.487c-0.108,0.161-0.162,0.325-0.162,0.541
		c-0.054,0.378-0.054,0.758,0,1.189v0.325l-0.163-0.054l-6.82,4.709c0,0-3.951-2.057-5.9-2.869c-1.299-0.541-2.111-0.325-2.49-0.162
		l-0.325-1.731c0.433,0.055,0.92-0.056,1.407-0.056c0.379,0,0.758,0,1.028-0.217c0.379-0.27,0.542-0.703,0.649-1.136
		c0.108-0.271,0.163-0.595,0.271-0.866c0.108-0.271,0.162-0.541,0.162-0.866c0-0.271-0.108-0.541-0.325-0.703
		c0.108,0,0.271,0,0.379,0s0.216-0.107,0.163-0.217c-0.108-0.541-0.271-1.083-0.379-1.624c-0.108-0.596,0-1.189-0.379-1.73
		c0.108-0.108,0.162-0.218,0.271-0.325c0.108-0.217,0.216-0.435,0.162-0.649c-0.054-0.271-0.271-0.542-0.487-0.648
		c-0.649-0.324-1.137-0.217-1.786,0c-0.271,0.106-0.65,0.106-0.866-0.108c-0.108-0.054-0.162-0.162-0.216-0.271
		c-0.379-0.487-1.191-0.541-1.624-0.108s-0.595,0.758-1.191,0.974c-0.378,0.109-0.812,0.271-1.082,0.597v1.137
		c0.054,0.109,0.108,0.217,0.108,0.379c0.054,0.162-0.054,0.325-0.108,0.435v2.436c0.325,0.324,0.271,0.758,0.271,1.244
		c0,0.271-0.163,0.434-0.271,0.649v0.813c0.216,0.27,0.649,0.27,0.974,0.107v0.161c0,0.108,0.108,0.218,0.216,0.218h0.216
		l-0.325,2.327h-0.487l-0.649,0.217v47.091h0.866h0.325v-0.758h-0.325v-0.218l-0.325-1.19h-0.216v-0.162h0.433l0.812-14.235
		l3.41-9.31l5.088,5.792l-3.951,12.07l0.487,0.054l-0.163,0.325h-0.271l-0.704,0.865v0.703h-0.271v0.541h0.271h7.578h0.216v-0.541
		h-0.162v-0.055c0-0.486-0.325-0.92-0.812-0.974l-2.544-0.541h-1.786l0.108-0.218l0.487,0.055l6.387-13.315l-6.279-10.825
		l-0.325-0.541l0.758-9.473l5.25,0.704c0.271,0.054,0.542-0.054,0.758-0.271c0.054-0.055,0.108-0.161,0.163-0.217l5.792-6.44v0.163
		c0,0.107,0.054,0.162,0.163,0.162h1.407c0.108,0,0.163-0.055,0.163-0.162l-0.054-0.922c0.217-0.106,0.379-0.27,0.487-0.54
		c0.108-0.324,0-0.38-0.054-0.648c-0.054-0.217,0.054-0.379-0.162-0.488c0,0-0.054,0-0.054-0.054s0-0.108,0.054-0.108
		c0.162-0.162,0.108-0.485-0.054-0.596c-0.054-0.054-0.163-0.107-0.271-0.162l-0.054-1.082c0-0.107-0.108-0.162-0.162-0.162h-0.271
		h0.325c0.054,0,0.054,0,0.054-0.055v-0.162h-0.379v-0.704v-0.216v-0.109v-0.054c0-0.054,0.054-0.054,0.054-0.107l0.217-0.107
		l1.624-0.758l1.624-0.758l0.433-0.218l0.217-0.107l0.108-0.054l0,0l0,0l0,0c0.054,0,0.054-0.056,0.054-0.056
		c0.108-0.054,0.163-0.162,0.163-0.271c0-0.055,0-0.055,0-0.108v-0.054v-0.054v-0.109v-0.433v-1.842v-0.433v-0.054
		C176.507,257.483,176.507,257.43,176.507,257.43z M170.77,268.634l-0.108-0.055c0.054,0,0.054,0,0.108-0.054V268.634z"/>
	<g>
		<path fill="#FFFFFF" d="M175.425,257.537c0-0.054,0-0.054,0-0.106c0-0.056-0.054-0.108-0.108-0.162
			c-0.054-0.056-0.108-0.056-0.216-0.056l0,0l0,0h-0.054h-0.054h-0.92v0.056v0.054v0.054v0.056v0.054h0.92h0.108l0,0l0,0
			c0,0,0,0,0,0.054v0.435v1.84v0.434v0.108v0.054l0,0l0,0c0,0.055-0.054,0.055-0.054,0.108l0,0l0,0l0,0l0,0l-0.108,0.054
			l-0.216,0.108l-0.433,0.217l-1.624,0.758l-1.624,0.758l-0.216,0.108c-0.054,0.054-0.108,0.054-0.163,0.106
			c-0.054,0.056-0.054,0.109-0.108,0.163c0,0.054-0.054,0.108-0.054,0.162l0,0l0,0v0.054v0.056v0.217v0.92h0.054h0.054h0.054h0.054
			h0.054v-0.92v-0.217v-0.108v-0.054c0-0.056,0.054-0.056,0.054-0.108l0.216-0.107l1.624-0.759l1.624-0.758l0.433-0.217l0.216-0.107
			l0.108-0.055l0,0l0,0l0,0c0.054,0,0.054-0.054,0.054-0.054c0.108-0.055,0.162-0.163,0.162-0.271c0-0.055,0-0.055,0-0.107v-0.055
			v-0.055v-0.108v-0.433v-1.841v-0.434C175.425,257.592,175.425,257.537,175.425,257.537z"/>
		<path fill="#FEC55E" d="M174.83,258.458c-0.054,0-0.108,0-0.163,0c0-0.704,0-1.354,0-2.058c0.054,0,0.108,0,0.163,0
			C174.938,257.051,174.938,257.754,174.83,258.458z"/>
		<path fill="#FEC55E" d="M165.79,258.35c0.054,0,0.108,0,0.163,0c0-0.703,0-1.354,0-2.058c-0.054,0-0.108,0-0.163,0
			C165.736,256.942,165.736,257.646,165.79,258.35z"/>
		<path fill="#5891ED" d="M174.775,256.185c0.054,0.812,0.054,1.624,0,2.436c-2.977,0-5.9-0.054-8.877-0.054
			c-0.054-0.813-0.054-1.624,0-2.437C168.821,256.131,171.798,256.131,174.775,256.185z"/>
		<path fill="#377DFF" d="M165.844,257.321c0,0.379,0,0.812,0.054,1.19c2.977,0,5.9,0.055,8.877,0.055
			c0.054-0.379,0.054-0.813,0.054-1.191C171.798,257.375,168.821,257.321,165.844,257.321z"/>
		<path fill="#FEC55E" d="M169.633,269.013c0,0.107,0.054,0.162,0.163,0.162h1.407c0.108,0,0.162-0.055,0.162-0.162l-0.162-4.602
			c0-0.107-0.108-0.162-0.163-0.162h-1.028c-0.108,0-0.162,0.055-0.162,0.162L169.633,269.013z"/>
		<path fill="#BF9855" d="M171.149,264.033v0.162c0,0.055,0,0.055-0.054,0.055h-1.083c-0.054,0-0.054,0-0.054-0.055v-0.162H171.149z
			"/>
		<path fill="#FECA71" d="M170.608,264.25h-0.542c-0.108,0-0.163,0.055-0.163,0.162l-0.216,4.602c0,0.107,0.054,0.162,0.163,0.162
			h0.704L170.608,264.25z"/>
	</g>
	<path fill="#E2C076" d="M171.528,265.656c-0.433-0.433-1.191,0.109-1.624,0.271c0.271-0.108,0.379-0.597,0.163-0.813
		c-0.054-0.054-0.054-0.054-0.108-0.054s-0.108,0-0.162,0c-0.271,0.107-0.596,0.217-0.866,0.324
		c-0.271,0.107-0.542,0.217-0.704,0.486c-0.108,0.162-0.163,0.324-0.163,0.541c-0.054,0.379-0.054,0.758,0,1.191v0.433
		c0.271,0.325,0.704,0.325,1.083,0.541c0.108,0.055,0.217,0.108,0.325,0.055c0.108,0,0.217-0.055,0.325-0.107
		c0.379-0.162,0.812-0.324,1.245-0.324c0.379,0,0.704-0.217,0.812-0.596c0.108-0.325,0-0.379-0.054-0.65
		c-0.054-0.217,0.054-0.378-0.163-0.485c0,0-0.054,0-0.054-0.056c0-0.054,0-0.106,0.054-0.106
		C171.744,266.09,171.69,265.819,171.528,265.656z"/>
	<rect x="147.604" y="313.667" fill="#E2C076" width="1.353" height="1.948"/>
	
		<rect x="154.905" y="308.486" transform="matrix(0.4341 -0.9008 0.9008 0.4341 -190.3015 315.3689)" fill="#E2C076" width="1.948" height="1.353"/>
	<path fill="#E2C076" d="M147.333,258.512c0-0.107,0-0.218-0.054-0.324c-0.108-0.162-0.271-0.217-0.433-0.217
		c-0.163,0-0.325,0-0.487-0.056c-0.163-0.054-0.271-0.162-0.433-0.162c-0.379-0.054-0.704,0.487-1.083,0.379
		c-0.108,0-0.162-0.054-0.271-0.106c-0.325-0.109-0.649,0.162-0.704,0.486c-0.108,0.323,0,0.648,0.054,0.975
		c0.108,0.434,0.487,1.191,0.758,1.57c0.703,0,0.866,0.216,1.569,0.27c0,0,0.325-0.541,0.271-0.541h0.054
		c0.054-0.162,0.271-0.324,0.379-0.486c0.162-0.162,0.325-0.379,0.433-0.596c0.054-0.162,0.054-0.379,0.054-0.596
		C147.333,258.945,147.333,258.729,147.333,258.512z"/>
	<polygon fill="#E2C076" points="152.8,270.041 149.661,270.041 150.202,265.928 151.988,265.928 	"/>
	<polygon fill="#093A66" points="148.578,283.519 145.98,299.811 147.279,314.75 149.39,314.75 150.256,300.514 153.666,291.204 
		158.754,296.996 154.749,309.066 157.184,309.175 163.571,295.859 156.373,283.519 	"/>
	<g>
		<polygon fill="#113651" points="149.661,283.519 148.578,283.519 145.98,299.811 147.279,314.75 147.55,314.75 147.063,299.811 		
			"/>
	</g>
	<g>
		<polygon fill="#272834" points="158.97,296.779 154.478,290.393 153.666,291.204 158.754,296.996 		"/>
	</g>
	<polygon opacity="0.3" fill="#191C3C" enable-background="new    " points="151.988,265.928 150.202,265.928 149.877,268.418 
		152.313,267.605 	"/>
	<path fill="#EFDCB4" d="M153.558,267.443h-3.734c-0.108,0-0.217-0.109-0.217-0.217v-7.795h3.735c0.487,0,0.92,0.108,1.353,0.324
		c1.245,0.649,0.975,1.517,1.083,2.327c0.108,0.541,0.271,1.083,0.379,1.624c0,0.108-0.054,0.217-0.162,0.217
		c-0.325,0-0.866,0.055-0.866,0.055l0.216,1.354C155.506,266.414,154.64,267.443,153.558,267.443z"/>
	<g>
		<path fill="#1E2022" d="M155.561,263.925c-0.92-0.542-1.461,0.596-2.111,0.921c-0.325,0.107-0.758,0.107-0.92-0.218
			c-0.271-0.378-0.487-1.136-0.433-1.568c0.054-0.434,0.108-0.866,0.271-1.245c0.217-0.379,0.542-0.813,0.975-1.028
			c0.216-0.106,0.433-0.162,0.649-0.106c0.325,0.054,0.487,0.161,0.812,0.054c0.325-0.108,0.649-0.434,0.866-0.758
			c0.108-0.218,0.216-0.434,0.162-0.649c-0.054-0.271-0.271-0.541-0.487-0.65c-0.649-0.323-1.137-0.216-1.786,0
			c-0.271,0.109-0.649,0.109-0.866-0.106c-0.108-0.055-0.163-0.162-0.217-0.271c-0.379-0.485-1.191-0.541-1.624-0.106
			c-0.433,0.433-0.596,0.758-1.191,0.974c-0.379,0.108-0.866,0.325-1.137,0.649c-0.379,0.596,0.108,0.921,0.162,1.462
			c0.054,0.271-0.162,0.487-0.271,0.704c-0.271,0.433-0.379,0.974-0.271,1.461c0.054,0.217,0.162,0.487,0.325,0.596
			c0.433,0.324,0.379,0.813,0.379,1.354c0,0.434-0.379,0.648-0.379,1.027c-0.054,0.813,1.191,0.813,1.461,0.163
			c0.325-0.866,0.054-1.841,0.054-2.706c0-0.487,0.542-1.137,1.083-0.758c0.325,0.216,0.271,0.541,0.271,0.865
			c0,0.487-0.054,0.975-0.054,1.461c-0.054,0.705-0.325,1.679,0.433,2.166c0.704,0.379,1.299,0.162,2.057,0.162
			c0.378,0,0.757,0,1.028-0.217c0.379-0.271,0.541-0.703,0.649-1.138c0.108-0.27,0.163-0.595,0.271-0.864
			c0.108-0.271,0.163-0.542,0.163-0.867C155.885,264.357,155.777,264.087,155.561,263.925z"/>
	</g>
	<path opacity="0.3" fill="#191C3C" enable-background="new    " d="M148.578,283.519l-0.433,2.651c0.758,0,1.786,0.162,2.49-0.107
		c0.812-0.324,1.516-1.028,2.436-0.976c0.433,0.056,0.812,0.218,1.19,0.325c0.542,0.162,1.137,0.162,1.678,0.054
		c0.487-0.106,0.866-0.379,1.353-0.486l-0.866-1.461H148.578L148.578,283.519z"/>
	<path fill="#B6A0EA" d="M152.421,269.717c0,0,0.812-0.813,2.761,0c1.894,0.813,5.9,2.868,5.9,2.868l6.82-4.709l1.949,0.866
		l-5.954,6.549c-0.163,0.325-0.542,0.541-0.92,0.487l-5.25-0.704l-0.758,9.473c-0.487,0.055-0.866,0.379-1.353,0.487
		c-0.542,0.108-1.083,0.108-1.624-0.055c-0.379-0.107-0.758-0.324-1.137-0.324c-0.866-0.055-1.516,0.596-2.327,0.92
		c-0.758,0.325-2.057,0.055-2.815,0.162c-0.216-0.974,0.649-2.165,0.542-3.193c-0.163-1.568-0.487-3.247-1.407-4.547l-4.817-9.31
		l2.328-7.523h2.219l-1.245,6.279l1.786,3.139l2.219-0.812L152.421,269.717L152.421,269.717z"/>
	<polygon fill="#9659C1" points="161.839,272.585 168.118,267.984 167.847,267.822 161.082,272.585 	"/>
	<path fill="#DB6767" d="M148.686,285.63c0.379,0,0.758,0.055,1.083,0C149.39,285.63,149.011,285.63,148.686,285.63z"/>
	<path fill="#B193F9" d="M149.074,282.678c-0.163-1.569-0.487-3.248-1.407-4.548l-4.817-9.31l1.786-7.524h-0.271l-2.328,7.524
		l4.817,9.31c0.92,1.3,1.245,2.979,1.407,4.548c0.108,1.027-0.758,2.219-0.542,3.192c0.217-0.054,0.487-0.054,0.812,0
		C148.37,284.843,149.182,283.651,149.074,282.678z"/>
	<g>
		<path fill="#8763BA" d="M162.11,274.967l-5.25-0.703c0,0-0.433,10.338,0.054,10.229l0.758-9.473l5.25,0.704
			c0.379,0.054,0.758-0.163,0.92-0.487C163.842,275.291,162.489,275.021,162.11,274.967z"/>
	</g>
	<polygon fill="#2D2B2B" points="149.498,317.077 147.063,317.077 147.063,315.995 147.387,314.912 149.173,314.912 
		149.498,316.103 	"/>
	<path fill="#3D3A3A" d="M161.731,311.502h-7.578v-1.244l0.704-0.865h3.518l2.544,0.541c0.487,0.107,0.812,0.541,0.812,0.974
		V311.502z"/>
	<rect x="153.882" y="310.961" fill="#4D5068" width="8.065" height="0.541"/>
</g>
<g>
	<path opacity="0.3" fill="#191C3C" enable-background="new    " d="M273.325,320.083l-0.4,0.172l-0.229-0.459l0.631-0.174v-1.09
		l-5.395-13.031l-0.748-8.151c0,0,0.748-0.977,1.32-2.642c0.346-1.033,0.229-2.469,0.116-3.387h0.344v-1.378h-0.172
		c0.688-1.32,2.181-5.109,3.388-8.324c-0.06,0-0.06,0-0.115,0h-9.588l-0.401,0.402v-0.402h-18.193v5.167
		c0,0.689,0.517,1.206,1.206,1.206h0.459h4.59c-0.172,0.058-0.344,0.171-0.458,0.287l3.042,0.344h1.549l1.32-0.631h5.053
		c-0.287,0.86-0.574,1.549-0.746,1.951h-0.576v1.378h0.23l-0.572,2.928l-0.06,0.346l-3.329,10.85l-1.09,15.213h0.805v0.633h-0.748
		l-1.205,1.377h-2.582c-1.548,0-3.041,0.862-3.729,2.298h-0.401v0.86h11.189v-0.86h-0.4v-3.675h-0.574v-0.633h0.861l2.524-16.132
		v-0.059l0,0l1.491-2.238l2.066,5.914l6.775,12.171l0.518-0.173l0.342,0.632l-0.459,0.229l-0.572,1.723l-2.928,0.059
		c-1.436,0.572-1.779,0.631-1.953,2.065h-0.229v0.859h6.087l0,0l1.949-0.804v-4.821H273.325z"/>
	<g id="XMLID_55_">
		<g id="XMLID_64_">
			<path id="XMLID_67_" fill="#FEC55E" d="M261.1,277.026l-13.029,6.488c-0.229,0.113-0.459,0-0.573-0.175l-3.96-7.978
				c-0.115-0.231,0-0.461,0.172-0.575l13.026-6.487c0.23-0.114,0.461,0,0.574,0.173l3.961,7.979
				C261.386,276.683,261.271,276.912,261.1,277.026z"/>
			<path id="XMLID_66_" fill="#FED17E" d="M261.271,276.683l-8.897-1.493c-0.229-0.059-0.458,0.058-0.517,0.286l-4.13,7.98
				c0.172,0.059,0.344,0.113,0.458,0l12.797-6.373C261.157,277.026,261.213,276.854,261.271,276.683z"/>
			<path id="XMLID_65_" fill="#FED17E" d="M243.538,275.075l8.894,1.491c0.229,0.059,0.459-0.058,0.517-0.287l4.134-7.979
				c-0.172-0.058-0.346-0.114-0.459,0l-12.798,6.372C243.652,274.788,243.538,274.96,243.538,275.075z"/>
		</g>
		<path id="XMLID_61_" opacity="0.3" fill="#231F20" enable-background="new    " d="M246.235,273.524
			c1.376,1.551,3.671,2.01,5.623,1.09c1.951-0.976,2.929-3.098,2.525-5.107L246.235,273.524z"/>
		<g id="XMLID_56_">
			<path id="XMLID_60_" fill="#377DFF" d="M253.809,267.784c1.148,2.354,0.229,5.224-2.123,6.373
				c-2.353,1.147-5.221,0.228-6.368-2.125c-1.149-2.354-0.231-5.224,2.123-6.372C249.792,264.511,252.66,265.43,253.809,267.784z"/>
			<path id="XMLID_59_" fill="#71A2EA" d="M252.145,268.645c0.688,1.437,0.114,3.158-1.319,3.904
				c-1.435,0.688-3.156,0.114-3.901-1.319c-0.689-1.437-0.115-3.158,1.319-3.904C249.677,266.636,251.455,267.21,252.145,268.645z"
				/>
			<g id="XMLID_57_">
				<polygon id="XMLID_58_" fill="#FFFFFF" points="250.997,271.172 250.308,271.517 248.931,268.761 248.3,269.104 
					247.956,268.415 249.275,267.727 				"/>
			</g>
		</g>
	</g>
	<g id="XMLID_49_">
		<path id="XMLID_54_" fill="#FFFFFF" d="M260.813,281.964l-10.275-6.199c-0.171-0.113-0.229-0.346-0.114-0.574l4.188-6.946
			c0.115-0.172,0.346-0.229,0.574-0.114l10.275,6.199c0.172,0.115,0.229,0.345,0.114,0.574l-4.19,6.946
			C261.271,282.021,260.982,282.079,260.813,281.964z"/>
		<path id="XMLID_53_" fill="#FEC55E" d="M259.605,277.658l-5.854-3.501c0.978-1.607,3.043-2.125,4.649-1.149
			C260.066,273.984,260.582,276.05,259.605,277.658z"/>
		<polygon id="XMLID_52_" fill="#575A8F" points="253.865,276.279 258.977,275.075 260.066,280.069 		"/>
		<polygon id="XMLID_51_" fill="#6371C5" points="251.227,274.73 256.393,273.468 257.482,278.462 		"/>
		<path id="XMLID_50_" fill="#6371C5" d="M261.041,274.328l1.148,0.689c0.115,0.058,0.172,0.229,0.058,0.346l0,0
			c-0.058,0.112-0.229,0.171-0.345,0.056l-0.057-0.056c-0.117-0.059-0.23-0.059-0.289,0.056l0,0
			c-0.058,0.115-0.058,0.231,0.059,0.287l1.205,0.747c0.115,0.058,0.115,0.172,0.058,0.286l0,0
			c-0.058,0.115-0.172,0.115-0.287,0.057l-3.788-2.295c-0.115-0.058-0.115-0.173-0.058-0.287l0,0
			c0.058-0.114,0.172-0.114,0.286-0.057l0.23,0.171c0.114,0.058,0.229,0.058,0.286-0.057l0,0c0.058-0.114,0.058-0.23-0.058-0.287
			l-1.09-0.632c-0.115-0.059-0.174-0.229-0.059-0.346l0,0c0.059-0.113,0.229-0.173,0.344-0.056L261.041,274.328z"/>
	</g>
	<g id="XMLID_9_">
		<g id="XMLID_10_">
			<path id="XMLID_48_" fill="#FCD991" d="M261.96,287.992h-15.209v-9.703h16.472v8.497
				C263.223,287.476,262.648,287.992,261.96,287.992z"/>
			<path id="XMLID_47_" fill="#BDA36D" d="M246.292,287.992h0.459v-9.703h-1.722v8.497
				C245.029,287.476,245.604,287.992,246.292,287.992z"/>
			<polygon id="XMLID_46_" opacity="0.2" fill="#191C3C" enable-background="new    " points="245.029,280.357 246.12,280.357 
				246.751,278.289 245.029,278.691 			"/>
			<path id="XMLID_45_" fill="#FCD991" d="M244.8,279.553h1.206c0.057,0,0.171-0.059,0.229-0.115l0.516-1.091h-1.722l-0.459,0.919
				C244.514,279.381,244.628,279.553,244.8,279.553z"/>
			<polygon id="XMLID_44_" opacity="0.2" fill="#191C3C" enable-background="new    " points="263.223,280.357 263.223,278.691 
				246.751,278.289 247.611,280.357 			"/>
			<path id="XMLID_11_" fill="#FCD991" d="M263.682,279.553h-15.896c-0.058,0-0.115-0.059-0.173-0.115l-0.86-1.148h16.473
				l0.631,0.862C263.969,279.323,263.854,279.553,263.682,279.553z"/>
		</g>
	</g>
	<rect x="256.393" y="320.197" fill="#DDB758" width="1.606" height="1.78"/>
	
		<rect x="272.334" y="319.263" transform="matrix(0.8976 -0.4409 0.4409 0.8976 -113.1718 153.2184)" fill="#DDB758" width="1.608" height="1.78"/>
	<polygon fill="#304849" points="269.596,290.461 266.954,296.201 261.386,304.582 258.859,320.714 255.588,320.714 256.68,305.501 
		260.008,294.65 260.869,290.461 	"/>
	<g opacity="0.3">
		<path fill="#191C3C" d="M267.986,293.962l-7.577-1.146l-0.343,1.78l-0.402,1.262c0.859,2.182,1.722,5.281,1.779,8.668l5.511-8.323
			L267.986,293.962z"/>
	</g>
	<rect x="269.479" y="268.932" fill="#DDB758" width="3.33" height="3.903"/>
	<polygon opacity="0.3" fill="#191C3C" enable-background="new    " points="272.811,271.057 269.479,269.851 269.479,268.932 
		272.811,268.932 	"/>
	<path fill="#29A8F4" d="M268.85,270.884l4.477,1.148v0.861c0,0,1.781,2.354,1.666,3.56c-0.115,1.205-4.707,13.547-5.396,14.008
		h-8.783c0,0,3.502-9.186,3.731-10.22c0,0,1.091-4.937,2.985-6.486c0,0,0.574-0.976,1.147-1.263
		C268.677,272.55,269.193,271.916,268.85,270.884z"/>
	<path fill="#3E789B" d="M269.364,281.505l-2.64-3.388l2.41-2.067c0.805-0.859,2.18-0.859,3.043-0.057l0,0
		c0.861,0.803,0.861,2.182,0.057,3.043L269.364,281.505z"/>
	<path fill="#29A8F4" d="M268.964,281.103l-2.584-3.389l2.813-2.181c0.859-0.688,2.121-0.517,2.812,0.401l0.175,0.172
		c0.688,0.86,0.516,2.125-0.402,2.813L268.964,281.103z"/>
	<path fill="#3A85AA" d="M263.566,283.226c-0.401,1.034-0.803,2.182-1.205,3.272l1.951-0.918l5.051-4.076l-1.95-2.583
		L263.566,283.226z"/>
	<path fill="#DDB758" d="M255.416,288.623l8.266-3.902l5.053-4.076l-1.951-2.584l-4.135,4.593l-7.461,4.648l0.287,0.348
		l-1.494,0.056c-0.631,0-2.354-0.229-3.041,0.519l3.041,0.345L255.416,288.623L255.416,288.623z"/>
	<path fill="#304849" d="M269.596,290.461c0,0,0.518,2.583,0,4.247c-0.517,1.665-1.32,2.642-1.32,2.642l0.746,8.151l5.799,13.95
		l-3.1,0.92l-6.775-12.172l-4.879-13.95l0.746-3.788H269.596L269.596,290.461z"/>
	<path fill="#EFDCB4" d="M274.13,269.794h-4.821c-0.746,0-1.377-0.633-1.377-1.379v-1.55h-1.207c-0.517-4.076,1.207-5.28,1.207-5.28
		h6.198V269.794z"/>
	<g>
		<path fill="#55595B" d="M275.966,262.272c-0.114-0.688-0.573-1.836-1.204-2.182c-0.345-0.172-0.746-0.172-1.091,0
			c0-0.459-0.287-1.032-0.746-1.032c-0.286,0-0.633,0.114-0.92,0.172c-1.032,0.345-2.063,0.688-3.155,0.632
			c-1.148,0-2.125-0.459-2.871-1.264c0,0.632,0.114,1.264,0.287,1.895c0.059,0.23,0.172,0.459,0.286,0.631
			c0.173,0.287,0.462,0.461,0.806,0.69c0.859,0.574,1.492,0.229,2.41,0.287c0.401,0,0.746,0.113,1.147,0.113
			c0.347,0,0.806-0.113,1.147,0.058c1.09,0.574-1.436,2.065-1.436,2.584c0.574-0.286,1.148-0.631,1.664-0.919
			c-0.572,0.688-1.203,1.436-1.203,2.354c0.4-0.4,0.916-0.688,1.49-0.803c-0.172,0.401-0.344,0.745-0.574,1.147
			c-0.057,0.113-0.113,0.286,0,0.344c0.174,0.116,0.402-0.229,0.574-0.114c-0.227,0.518-0.459,1.034-0.688,1.607
			c0.229-0.114,0.461-0.229,0.573-0.401c-0.174,0.573-0.112,1.206,0.113,1.723c0.401-0.058,0.746,0.287,1.205,0.345
			c0.403,0.058,0.633-0.229,0.92-0.345c0.401-0.173,0.976-0.173,1.379-0.058c-0.174-0.287-0.347-0.575-0.403-0.918
			c-0.229-0.862,0.229-1.493,0.346-2.298c0.113-0.977,0.113-1.95,0.113-2.929C276.083,263.134,276.083,262.676,275.966,262.272z"/>
	</g>
	<rect x="260.468" y="290" fill="#272834" width="9.646" height="1.379"/>
	<path fill="#DDB758" d="M254.957,288.163l-0.977-0.975c-0.172-0.116-0.229-0.287-0.172-0.46l0,0
		c0.114-0.172,0.287-0.229,0.459-0.172l1.319,0.688c0.173,0.114,0.229,0.287,0.173,0.459l0,0
		C255.646,287.876,255.129,288.222,254.957,288.163z"/>
	<path fill="#4D5068" d="M258.573,321.345h-2.929l-1.205,1.379h-2.524c-1.55,0-3.041,0.859-3.73,2.296l0,0h10.331v-3.675H258.573z"
		/>
	<path fill="#FFFFFF" d="M257.999,323.182c0,0.517-0.401,0.92-0.918,0.92s-0.919-0.403-0.919-0.92s0.402-0.917,0.919-0.917
		S257.999,322.666,257.999,323.182z"/>
	<rect x="247.784" y="325.02" fill="#FEC55E" width="11.19" height="0.859"/>
	<path fill="#4D5068" d="M274.818,319.968l-2.698,1.147l-0.572,1.723l-2.928,0.057c-1.437,0.635-1.838,0.635-1.953,2.184l0,0h5.396
		l4.133-1.723L274.818,319.968z"/>
	<path fill="#FFFFFF" d="M274.991,321.862c0.172,0.459,0,0.976-0.519,1.207c-0.459,0.172-0.977,0-1.205-0.52
		c-0.172-0.459,0-0.975,0.517-1.205C274.245,321.173,274.761,321.402,274.991,321.862z"/>
	<rect x="266.438" y="324.964" fill="#FEC55E" width="6.086" height="0.86"/>
	
		<rect x="272.187" y="324.102" transform="matrix(0.9191 -0.3939 0.3939 0.9191 -105.6483 134.3534)" fill="#FEC55E" width="4.537" height="0.861"/>
</g>
<g>
	<g id="XMLID_149_">
		<path id="XMLID_152_" fill="#FFC107" d="M414.821,316.502h-20.572c-0.359,0-0.598-0.238-0.598-0.598v-4.426
			c0-0.359,0.237-0.599,0.598-0.599h20.572c0.358,0,0.598,0.238,0.598,0.599v4.426C415.419,316.263,415.181,316.502,414.821,316.502
			z"/>
		<path fill="#EFA02E" d="M415.06,315.665h-21.051c-0.119,0-0.237,0-0.356-0.119v0.718c0,0.118,0.119,0.238,0.237,0.238h21.41
			c0.119,0,0.238-0.12,0.238-0.238v-0.718C415.3,315.665,415.181,315.665,415.06,315.665z"/>
		
			<rect id="XMLID_151_" x="405.013" y="310.881" opacity="0.5" fill="#FFFFFF" enable-background="new    " width="5.145" height="5.621"/>
		
			<rect id="XMLID_150_" x="411.233" y="310.881" opacity="0.5" fill="#FFFFFF" enable-background="new    " width="1.313" height="5.621"/>
	</g>
	<g id="XMLID_145_">
		<path id="XMLID_148_" fill="#FFC107" d="M414.821,322.123h-20.692c-0.357,0-0.599-0.238-0.599-0.598V317.1
			c0-0.358,0.239-0.599,0.599-0.599h20.573c0.356,0,0.598,0.239,0.598,0.599v4.426C415.419,321.885,415.181,322.123,414.821,322.123
			z"/>
		<path fill="#EFA02E" d="M415.06,321.286h-21.17c-0.118,0-0.237,0-0.358-0.119v0.719c0,0.118,0.121,0.237,0.239,0.237h21.41
			c0.119,0,0.238-0.119,0.238-0.237v-0.719C415.3,321.286,415.181,321.286,415.06,321.286z"/>
		
			<rect id="XMLID_147_" x="405.013" y="316.382" opacity="0.5" fill="#FFFFFF" enable-background="new    " width="5.145" height="5.622"/>
		
			<rect id="XMLID_146_" x="411.113" y="316.502" opacity="0.5" fill="#FFFFFF" enable-background="new    " width="1.314" height="5.621"/>
	</g>
	<g id="XMLID_141_">
		<path id="XMLID_144_" fill="#FFC107" d="M413.745,327.626h-20.572c-0.358,0-0.599-0.239-0.599-0.599v-4.426
			c0-0.358,0.239-0.599,0.599-0.599h20.572c0.357,0,0.598,0.239,0.598,0.599v4.426C414.343,327.386,414.104,327.626,413.745,327.626
			z"/>
		<path fill="#EFA02E" d="M413.983,326.788h-21.052c-0.118,0-0.237,0-0.357-0.12v0.719c0,0.119,0.12,0.239,0.239,0.239h21.409
			c0.119,0,0.238-0.12,0.238-0.239v-0.719C414.224,326.788,414.104,326.788,413.983,326.788z"/>
		
			<rect id="XMLID_143_" x="403.938" y="322.004" opacity="0.5" fill="#FFFFFF" enable-background="new    " width="5.144" height="5.622"/>
		
			<rect id="XMLID_142_" x="410.156" y="322.004" opacity="0.5" fill="#FFFFFF" enable-background="new    " width="1.314" height="5.622"/>
	</g>
	<g id="XMLID_137_">
		<path id="XMLID_140_" fill="#FFC107" d="M437.188,316.502h-20.57c-0.359,0-0.601-0.238-0.601-0.598v-4.426
			c0-0.359,0.24-0.599,0.601-0.599h20.57c0.359,0,0.6,0.238,0.6,0.599v4.426C437.786,316.263,437.547,316.502,437.188,316.502z"/>
		<path fill="#EFA02E" d="M437.547,315.665h-21.171c-0.119,0-0.239,0-0.359-0.119v0.718c0,0.118,0.12,0.238,0.24,0.238h21.409
			c0.12,0,0.239-0.12,0.239-0.238v-0.718C437.786,315.665,437.666,315.665,437.547,315.665z"/>
		
			<rect id="XMLID_139_" x="427.499" y="310.881" opacity="0.5" fill="#FFFFFF" enable-background="new    " width="5.144" height="5.621"/>
		
			<rect id="XMLID_138_" x="433.6" y="310.761" opacity="0.5" fill="#FFFFFF" enable-background="new    " width="1.315" height="5.62"/>
	</g>
	<g id="XMLID_78_">
		<path id="XMLID_136_" fill="#FFC107" d="M437.666,311.239h-20.572c-0.357,0-0.599-0.239-0.599-0.599v-4.426
			c0-0.357,0.24-0.599,0.599-0.599h20.572c0.358,0,0.599,0.24,0.599,0.599v4.426C438.265,311,438.024,311.239,437.666,311.239z"/>
		<path fill="#EFA02E" d="M437.905,310.402h-21.17c-0.119,0-0.24,0-0.359-0.12V311c0,0.119,0.119,0.239,0.24,0.239h21.408
			c0.119,0,0.239-0.12,0.239-0.239v-0.718C438.145,310.402,438.024,310.402,437.905,310.402z"/>
		
			<rect id="XMLID_135_" x="427.858" y="305.498" opacity="0.5" fill="#FFFFFF" enable-background="new    " width="5.143" height="5.621"/>
		
			<rect id="XMLID_108_" x="434.077" y="305.617" opacity="0.5" fill="#FFFFFF" enable-background="new    " width="1.315" height="5.622"/>
	</g>
	<g id="XMLID_74_">
		<path id="XMLID_77_" fill="#FFC107" d="M437.188,305.737h-20.691c-0.358,0-0.598-0.239-0.598-0.598v-4.427
			c0-0.357,0.238-0.598,0.598-0.598h20.573c0.357,0,0.598,0.239,0.598,0.598v4.427C437.786,305.498,437.547,305.737,437.188,305.737
			z"/>
		<path fill="#EFA02E" d="M437.427,304.899h-21.17c-0.12,0-0.24,0-0.358-0.119v0.718c0,0.119,0.118,0.239,0.238,0.239h21.41
			c0.119,0,0.239-0.12,0.239-0.239v-0.718C437.666,304.899,437.547,304.899,437.427,304.899z"/>
		
			<rect id="XMLID_76_" x="427.38" y="300.116" opacity="0.5" fill="#FFFFFF" enable-background="new    " width="5.145" height="5.621"/>
		
			<rect id="XMLID_75_" x="433.479" y="300.116" opacity="0.5" fill="#FFFFFF" enable-background="new    " width="1.315" height="5.621"/>
	</g>
	<g id="XMLID_70_">
		<path id="XMLID_73_" fill="#FFC107" d="M437.666,322.004h-20.572c-0.357,0-0.599-0.238-0.599-0.598v-4.426
			c0-0.358,0.24-0.6,0.599-0.6h20.572c0.358,0,0.599,0.24,0.599,0.6v4.426C438.265,321.765,438.024,322.004,437.666,322.004z"/>
		<path fill="#EFA02E" d="M437.905,321.167h-21.17c-0.119,0-0.24,0-0.359-0.12v0.719c0,0.119,0.119,0.238,0.24,0.238h21.408
			c0.119,0,0.239-0.118,0.239-0.238v-0.719C438.145,321.167,438.024,321.167,437.905,321.167z"/>
		
			<rect id="XMLID_72_" x="427.858" y="316.382" opacity="0.5" fill="#FFFFFF" enable-background="new    " width="5.143" height="5.622"/>
		
			<rect id="XMLID_71_" x="434.077" y="316.382" opacity="0.5" fill="#FFFFFF" enable-background="new    " width="1.315" height="5.622"/>
	</g>
	<g id="XMLID_62_">
		<path id="XMLID_69_" fill="#FFC107" d="M436.589,327.626h-20.572c-0.357,0-0.598-0.239-0.598-0.599v-4.426
			c0-0.358,0.239-0.599,0.598-0.599h20.572c0.359,0,0.599,0.239,0.599,0.599v4.426C437.188,327.267,436.948,327.626,436.589,327.626
			z"/>
		<path fill="#EFA02E" d="M436.948,326.788h-21.17c-0.12,0-0.24,0-0.359-0.12v0.719c0,0.119,0.119,0.239,0.239,0.239h21.41
			c0.118,0,0.237-0.12,0.237-0.239v-0.719C437.188,326.788,437.068,326.788,436.948,326.788z"/>
		
			<rect id="XMLID_68_" x="426.901" y="321.885" opacity="0.5" fill="#FFFFFF" enable-background="new    " width="5.144" height="5.62"/>
		
			<rect id="XMLID_63_" x="433.001" y="322.004" opacity="0.5" fill="#FFFFFF" enable-background="new    " width="1.316" height="5.622"/>
	</g>
</g>
<g id="XMLID_330_">
	<g id="XMLID_347_">
		<path id="XMLID_802_" fill="#2873EA" d="M113.183,312.417H89.294v-14.838c0-0.095,0.081-0.176,0.176-0.176h23.536
			c0.095,0,0.177,0.081,0.177,0.176V312.417L113.183,312.417z"/>
		<rect id="XMLID_799_" x="90.527" y="298.758" fill="#19A0FF" width="21.436" height="12.453"/>
		<path id="XMLID_362_" fill="#E7EAF3" d="M114.578,313.08H87.912l0,0c0.759,0.759,1.788,1.18,2.859,1.18h20.947
			C112.79,314.26,113.806,313.839,114.578,313.08L114.578,313.08z"/>
		<rect id="XMLID_361_" x="87.912" y="312.335" fill="#F6F9FC" width="26.666" height="0.745"/>
		<path id="XMLID_360_" fill="#E7EAF3" d="M102.885,312.917h-3.306c-0.109,0-0.204-0.094-0.204-0.202l0,0
			c0-0.107,0.095-0.203,0.204-0.203h3.306c0.108,0,0.203,0.096,0.203,0.203l0,0C103.088,312.823,103.007,312.917,102.885,312.917z"
			/>
	</g>
	<g id="XMLID_311_">
		<polygon id="XMLID_781_" fill="#FFFFFF" points="90.527,311.197 90.527,307.552 92.546,306.821 92.546,311.197 		"/>
		<polygon id="XMLID_832_" fill="#FFC107" points="92.546,311.197 92.546,306.821 94.552,306.44 94.552,311.197 		"/>
		<polygon id="XMLID_846_" fill="#FFC107" points="96.57,311.197 96.57,305.506 98.59,305.019 98.59,311.197 		"/>
		<polygon id="XMLID_848_" fill="#FFC107" points="100.608,311.197 100.608,303.229 102.627,303.704 102.627,311.197 		"/>
		<polygon id="XMLID_866_" fill="#FFC107" points="104.741,311.197 104.741,301.576 106.746,303.704 106.746,311.197 		"/>
		<polygon id="XMLID_883_" fill="#FFC107" points="108.874,311.197 108.874,304.382 110.879,303.704 110.879,311.197 		"/>
		<polygon id="XMLID_833_" fill="#FFFFFF" points="94.552,311.197 94.552,306.44 96.57,305.506 96.57,311.197 		"/>
		<polygon id="XMLID_847_" fill="#FFFFFF" points="98.59,311.197 98.59,305.019 100.608,303.257 100.608,311.197 		"/>
		<polygon id="XMLID_850_" fill="#FFFFFF" points="102.613,311.197 102.613,303.731 104.741,301.591 104.741,311.197 		"/>
		<polygon id="XMLID_881_" fill="#FFFFFF" points="106.746,311.197 106.746,303.731 108.874,304.395 108.874,311.197 		"/>
		<polygon id="XMLID_884_" fill="#FFFFFF" points="110.879,311.197 110.879,303.731 111.963,304.395 111.963,311.197 		"/>
	</g>
	<path id="XMLID_333_" opacity="0.3" fill="#191C3C" enable-background="new    " d="M100.648,297.403
		c0.014,0.014,0.014,0.027,0.028,0.055c0.649,1.029,1.558,1.706,2.547,2.087l1.314,1.925c0.121,0.188,0.393,0.188,0.528,0
		l1.179-1.708c1.273-0.284,2.452-1.043,3.252-2.304c0.014-0.014,0.014-0.026,0.027-0.041L100.648,297.403L100.648,297.403z"/>
	<g id="XMLID_864_">
		<path id="XMLID_854_" fill="#FFC107" d="M104.551,300.832l-1.313-1.925c-1.003-0.38-1.897-1.07-2.548-2.087
			c-1.098-1.734-1.057-4.023,0.108-5.704c2.113-3.035,6.531-3.021,8.618,0.041c1.151,1.68,1.179,3.942,0.095,5.663
			c-0.8,1.261-1.979,2.02-3.252,2.304l-1.18,1.708C104.944,301.021,104.674,301.021,104.551,300.832z"/>
		<path id="XMLID_871_" opacity="0.5" fill="#F4E1B8" fill-opacity="0.6" enable-background="new    " d="M107.708,291.441
			c1.464,1.464,1.464,3.821,0,5.284c-1.463,1.464-3.82,1.464-5.284,0c-1.464-1.463-1.464-3.82,0-5.284
			C103.888,289.979,106.259,289.979,107.708,291.441z"/>
	</g>
	<g id="XMLID_346_">
		<g id="XMLID_344_">
			<path id="XMLID_363_" fill="#FFFFFF" d="M104.104,296.171c-0.04,0-0.081-0.015-0.121-0.027c-0.123-0.067-0.163-0.217-0.095-0.338
				l2.087-3.687c0.067-0.122,0.216-0.163,0.338-0.095c0.122,0.066,0.162,0.216,0.095,0.339l-2.087,3.672
				C104.267,296.116,104.186,296.171,104.104,296.171z"/>
		</g>
		<g id="XMLID_343_">
			<path id="XMLID_354_" fill="#FFFFFF" d="M103.697,294.517c-0.487,0-0.895-0.487-0.895-1.083c0-0.598,0.407-1.085,0.895-1.085
				c0.488,0,0.895,0.487,0.895,1.085C104.592,294.029,104.198,294.517,103.697,294.517z M103.697,292.823
				c-0.229,0-0.42,0.284-0.42,0.61c0,0.323,0.19,0.608,0.42,0.608s0.421-0.285,0.421-0.608
				C104.118,293.107,103.928,292.823,103.697,292.823z"/>
		</g>
		<g id="XMLID_345_">
			<path id="XMLID_350_" fill="#FFFFFF" d="M106.435,295.912c-0.488,0-0.895-0.487-0.895-1.083c0-0.597,0.406-1.084,0.895-1.084
				c0.489,0,0.895,0.487,0.895,1.084C107.329,295.425,106.936,295.912,106.435,295.912z M106.435,294.219
				c-0.23,0-0.42,0.284-0.42,0.609c0,0.324,0.189,0.609,0.42,0.609s0.42-0.285,0.42-0.609
				C106.854,294.504,106.665,294.219,106.435,294.219z"/>
		</g>
	</g>
</g>
<g>
	<line fill="none" stroke="#303435" stroke-miterlimit="10" x1="367.864" y1="300.446" x2="363.911" y2="314.229"/>
	<line fill="none" stroke="#303435" stroke-miterlimit="10" x1="365.025" y1="313.824" x2="370.094" y2="326.595"/>
	<line fill="none" stroke="#303435" stroke-miterlimit="10" x1="361.885" y1="314.025" x2="358.843" y2="326.694"/>
	<line fill="none" stroke="#303435" stroke-miterlimit="10" x1="337.763" y1="300.041" x2="333.71" y2="314.433"/>
	<line fill="none" stroke="#303435" stroke-miterlimit="10" x1="335.839" y1="313.116" x2="338.98" y2="325.073"/>
	<line fill="none" stroke="#303435" stroke-miterlimit="10" x1="331.479" y1="314.129" x2="328.641" y2="324.87"/>
	<g>
		<path fill="#9FF2FF" d="M333.913,302.168c0,0.786,0.635,1.42,1.418,1.42h39.019c0.783,0,1.419-0.634,1.419-1.42l0,0
			c0-0.782-0.636-1.419-1.419-1.419h-39.019C334.548,300.749,333.913,301.385,333.913,302.168L333.913,302.168z"/>
		<path fill="#9FF2FF" d="M332.393,305.943c0,0.786,0.635,1.418,1.418,1.418h39.02c0.784,0,1.419-0.632,1.419-1.418l0,0
			c0-0.782-0.635-1.416-1.419-1.416h-39.02C333.026,304.527,332.393,305.161,332.393,305.943L332.393,305.943z"/>
		<path fill="#9FF2FF" d="M331.379,309.721c0,0.782,0.636,1.418,1.418,1.418h39.021c0.782,0,1.418-0.636,1.418-1.418l0,0
			c0-0.785-0.636-1.422-1.418-1.422h-39.021C332.015,308.3,331.379,308.936,331.379,309.721L331.379,309.721z"/>
		<path fill="#9FF2FF" d="M328.641,313.494c0,0.785,0.682,1.42,1.521,1.42h41.758c0.837,0,1.516-0.635,1.516-1.42l0,0
			c0-0.782-0.679-1.418-1.516-1.418h-41.758C329.321,312.076,328.641,312.712,328.641,313.494L328.641,313.494z"/>
		<path fill="#9FF2FF" d="M327.323,317.27c0,0.785,0.627,1.42,1.398,1.42h38.451c0.774,0,1.399-0.635,1.399-1.42l0,0
			c0-0.784-0.625-1.419-1.399-1.419h-38.451C327.95,315.851,327.323,316.485,327.323,317.27L327.323,317.27z"/>
	</g>
</g>
</svg>
