<?xml version="1.0" encoding="utf-8"?>
<!-- Generator: Adobe Illustrator 16.0.0, SVG Export Plug-In . SVG Version: 6.00 Build 0)  -->
<!DOCTYPE svg PUBLIC "-//W3C//DTD SVG 1.1//EN" "http://www.w3.org/Graphics/SVG/1.1/DTD/svg11.dtd">
<svg version="1.1" id="图层_1" xmlns="http://www.w3.org/2000/svg" xmlns:xlink="http://www.w3.org/1999/xlink" x="0px" y="0px"
	 width="288.867px" height="200px" viewBox="0 0 288.867 200" enable-background="new 0 0 288.867 200" xml:space="preserve">
<path fill="#FFFFFF" d="M254.917,7H33.971c-8.846,0-16.038,7.562-16.038,16.859v151.184c0,9.298,7.201,16.87,16.038,16.87h1.479
	c1.946,0.186,4.272,0.279,7.095,0.279c2.15,0,4.282-0.053,6.325-0.104h0.098c1.722-0.042,3.338-0.083,4.7-0.083h186.125l1.197,0.053
	c1.509,0.062,4.02,0.175,6.715,0.175h0.01c2.783,0,5.061-0.104,6.988-0.32h0.203c8.846,0,16.038-7.572,16.038-16.87V23.859
	C270.954,14.562,263.752,7,254.917,7z M258.779,26.545V172.1l-78.271-72.188L258.779,26.545z M147.771,113.454l-0.233,0.238
	c-0.725,0.763-1.704,1.186-2.725,1.178c-1.022,0.008-2.006-0.416-2.734-1.178l-0.146-0.155L40.414,19.913h0.175
	c1.313,0.042,2.511,0.104,3.309,0.145h0.029c0.778,0.031,1.285,0.062,1.684,0.062H241.76c1.751,0,3.6-0.062,5.372-0.114l0.35-0.011
	L147.771,113.454z M116.397,107.019l17.225,15.888c3.008,3.066,7.021,4.771,11.191,4.752c4.034,0.009,7.924-1.591,10.899-4.483
	l0.165-0.165l0.127-0.124l15.356-14.391l76.578,70.618H40.248l76.149-72.105V107.019z M107.182,98.516l-77.074,72.973V27.454
	l77.074,71.073V98.516z"/>
</svg>
