<?xml version="1.0" encoding="utf-8"?>
<!-- Generator: Adobe Illustrator 16.0.0, SVG Export Plug-In . SVG Version: 6.00 Build 0)  -->
<!DOCTYPE svg PUBLIC "-//W3C//DTD SVG 1.1//EN" "http://www.w3.org/Graphics/SVG/1.1/DTD/svg11.dtd">
<svg version="1.1" id="图层_1" xmlns="http://www.w3.org/2000/svg" xmlns:xlink="http://www.w3.org/1999/xlink" x="0px" y="0px"
	 width="141.732px" height="141.732px" viewBox="0 0 141.732 141.732" enable-background="new 0 0 141.732 141.732"
	 xml:space="preserve">
<path fill="#2980C4" d="M71.359,140.195c38.255,0,69.45-31.199,69.45-69.452c0-38.25-31.194-69.449-69.45-69.449
	c-38.25,0-69.448,31.199-69.448,69.449C1.911,108.996,33.109,140.195,71.359,140.195z"/>
<path fill="#377DFF" d="M71.359,140.195c38.255,0,69.45-31.199,69.45-69.452c0-38.25-31.194-69.449-69.45-69.449
	c-38.25,0-69.448,31.199-69.448,69.449C1.911,108.996,33.109,140.195,71.359,140.195z"/>
<path fill="#FFFFFF" d="M62.886,29.853l-29.723,71.466c-0.126,0.546,0.13,0.832,0.726,0.909l80.394-0.854
	c6.983-0.077,15.68-2.319,21.906-5.682c2.981-7.744,4.612-16.153,4.612-24.949c0-4.146-0.363-8.209-1.058-12.155
	c-0.154-0.077-0.303-0.148-0.464-0.209c-8.646-3.243-11.776,1.295-12.647,2.594c0,0-4.1-6.807-11.991-6.484
	c-7.893,0.325-11.782,8.214-11.782,8.214s-6.493-0.106-9.512,5.514c-3.032,5.621-1.081,12.32-1.081,12.32s-9.558,2.248-14.887-1.918
	c-5.329-4.174-5.264-11.634-3.938-14.777l14.366-34.084c0.05-0.303-0.056-0.631-0.313-0.711L64.236,28.96
	C63.583,29.016,63.145,29.33,62.886,29.853L62.886,29.853z M111.973,71.195c0,0-1.189,10.107,7.782,9.028
	c7.494-0.903,8.751-4.438,7.863-6.126c-0.611-1.155-1.868-1.171-2.673-0.956c-0.628,0.168-1.29,0.667-2.661,1.062
	c-1.373,0.395-3.544,0.465-4.128-1.447c-0.48-1.57,1.14-3.854,4.629-3.854c3.482-0.002,9.077,2.783,5.781,10.568
	c-3.296,7.78-15.834,7.043-18.646,6.479c-2.82-0.562-6.745-1.764-9.489-4.354c-2.788-2.624-3.423-7.133-1.378-9.912
	C103.111,66.169,109.328,69.195,111.973,71.195z"/>
</svg>
