<?xml version="1.0" encoding="utf-8"?>
<!-- Generator: Adobe Illustrator 16.0.0, SVG Export Plug-In . SVG Version: 6.00 Build 0)  -->
<!DOCTYPE svg PUBLIC "-//W3C//DTD SVG 1.1//EN" "http://www.w3.org/Graphics/SVG/1.1/DTD/svg11.dtd">
<svg version="1.1" id="图层_1" xmlns="http://www.w3.org/2000/svg" xmlns:xlink="http://www.w3.org/1999/xlink" x="0px" y="0px"
	 width="496.367px" height="141.732px" viewBox="0 0 496.367 141.732" enable-background="new 0 0 496.367 141.732"
	 xml:space="preserve">
<path fill="#5E5E5E" stroke="#377DFF" stroke-miterlimit="10" d="M71.359,134.525c35.132,0,63.78-28.652,63.78-63.782
	c0-35.127-28.647-63.779-63.78-63.779c-35.127,0-63.778,28.652-63.778,63.779C7.581,105.873,36.232,134.525,71.359,134.525z"/>
<path fill="#0371EC" stroke="#FFFFFF" stroke-width="7" stroke-miterlimit="10" d="M71.359,134.525
	c35.132,0,63.78-28.652,63.78-63.782c0-35.127-28.647-63.779-63.78-63.779c-35.127,0-63.778,28.652-63.778,63.779
	C7.581,105.873,36.232,134.525,71.359,134.525z"/>
<path fill="#FFFFFF" d="M63.578,33.192L36.281,98.823c-0.116,0.501,0.12,0.764,0.667,0.835l73.831-0.785
	c6.413-0.068,14.399-2.129,20.117-5.218c2.736-7.111,4.234-14.834,4.234-22.912c0-3.807-0.333-7.539-0.972-11.163
	c-0.142-0.068-0.277-0.136-0.426-0.19c-7.94-2.979-10.814,1.188-11.615,2.383c0,0-3.765-6.252-11.011-5.955
	c-7.249,0.298-10.82,7.543-10.82,7.543s-5.963-0.097-8.735,5.063c-2.784,5.161-0.992,11.313-0.992,11.313s-8.778,2.063-13.672-1.761
	c-4.896-3.833-4.834-10.686-3.616-13.57l13.192-31.302c0.046-0.278-0.052-0.58-0.288-0.653l-21.358-0.08
	C64.218,32.423,63.816,32.711,63.578,33.192L63.578,33.192z M108.658,71.158c0,0-1.093,9.282,7.146,8.292
	c6.883-0.83,8.036-4.076,7.222-5.626c-0.563-1.062-1.716-1.075-2.455-0.878c-0.576,0.154-1.185,0.612-2.443,0.975
	c-1.261,0.363-3.255,0.429-3.791-1.329c-0.44-1.439,1.047-3.537,4.251-3.537c3.198-0.002,8.336,2.556,5.311,9.704
	c-3.027,7.146-14.542,6.47-17.124,5.949c-2.59-0.516-6.195-1.62-8.714-3.998c-2.562-2.41-3.146-6.552-1.267-9.103
	C100.519,66.542,106.228,69.322,108.658,71.158z"/>
<rect x="324.457" y="34.759" fill="#0371EC" width="68.025" height="5.999"/>
<rect x="439.511" y="78.599" fill="#0371EC" width="8.293" height="27.202"/>
<path fill="#0371EC" d="M475.16,78.629h7.6v19.699c0,0,0.018,0.229,0,0.61v0.524h-0.037c-0.256,2.557-1.885,8.489-11.561,7.958
	v-5.392c0,0,2.773,0.388,3.998-3.702V78.629z"/>
<rect x="439.511" y="102.03" fill="#0371EC" width="34.025" height="5.392"/>
<rect x="440.794" y="78.599" fill="#0371EC" width="37.057" height="5.999"/>
<rect x="389.71" y="34.844" fill="#0371EC" width="7.314" height="63.912"/>
<path fill="#0371EC" d="M389.71,98.756h7.314c0,0,0.828,7.912-6.273,8.782l-3.818,0.01h-4.25v-5.362h4.25
	C386.933,102.184,389.71,101.75,389.71,98.756z"/>
<rect x="324.474" y="34.628" fill="#0371EC" width="7.742" height="72.839"/>
<path fill="#0371EC" d="M371.132,67.379l0.186,6.387c0,0,18.336-10.16,24.971-32.802l-7.279-0.192
	C389.009,40.771,386.06,53.639,371.132,67.379z"/>
<path fill="#0371EC" d="M371.871,73.984l0.186-6.386c0,0,18.334,10.159,24.969,32.801l-7.279,0.192
	C389.746,100.594,386.796,87.723,371.871,73.984z"/>
<path fill="#0371EC" d="M350.367,73.984l-0.186-6.386c0,0-18.336,10.159-24.969,32.801l7.279,0.192
	C332.492,100.594,335.441,87.723,350.367,73.984z"/>
<path fill="#0371EC" d="M349.628,67.379l-0.184,6.387c0,0-18.334-10.16-24.971-32.802l7.279-0.192
	C331.755,40.771,334.705,53.639,349.628,67.379z"/>
<path fill="#0371EC" d="M361.15,63.208l-0.277-5.952c0,0,12.48,10.16,15.313,13.142l-4.078,3.805
	C372.105,74.202,363.5,64.95,361.15,63.208z"/>
<path fill="#0371EC" d="M369.968,69.419l4.619,2.055c0,0-9.564,11.255-12.682,13.098l-5.172-4.755
	C356.734,79.815,368.343,72.178,369.968,69.419z"/>
<path fill="#0371EC" d="M361.001,78.077l0.277,5.953c0,0-12.482-10.16-15.314-13.141l4.08-3.805
	C350.044,67.085,358.652,76.337,361.001,78.077z"/>
<path fill="#0371EC" d="M352.181,71.866l-4.621-2.053c0,0,9.566-11.255,12.686-13.099l5.172,4.756
	C365.417,61.471,353.806,69.107,352.181,71.866z"/>
<path fill="#0371EC" d="M424.654,33.156l-7.555,0.032c0,0-0.654,19.628-8.84,30.73l0.742,4.678
	C409.003,68.595,422.611,60.196,424.654,33.156z"/>
<rect x="409.003" y="63.951" fill="#0371EC" width="16.83" height="4.645"/>
<rect x="411.337" y="88.721" fill="#0371EC" width="21.104" height="4.645"/>
<path fill="#0371EC" d="M436.996,70.11l-0.725,6.969c0,0,34.715-5.654,47.229-37.049l-9.33-0.001
	C474.169,40.029,467.835,59.442,436.996,70.11z"/>
<path fill="#0371EC" d="M485.343,69.616l0.816,6.959c0,0-18.592-1.501-37.811-20.729l4.469-6.057
	C452.818,49.791,467.955,64.828,485.343,69.616z"/>
<rect x="445.517" y="40.019" fill="#0371EC" width="33.09" height="5.999"/>
<path fill="#0371EC" d="M455.373,33.087l-7.682,0.021c0,0-1.922,11.435-11.791,17.918l-0.098,5.031
	C435.802,56.056,453.435,49.44,455.373,33.087z"/>
<path fill="#0371EC" d="M159.227,60.405l7.633-0.244c0,0-5.437-14.894-9.693-19.054l-7.935,0.097
	C149.232,41.203,154.776,49.375,159.227,60.405z"/>
<path fill="#0371EC" d="M159.936,67.142l7.42,0.097c0,0-4.512,22.484-10.612,36.188h-6.871
	C149.873,103.427,158.582,80.786,159.936,67.142z"/>
<g>
	<path fill="#0371EC" d="M183.514,60.17l-7.451-0.193c0,0-1.742,10.063-3.386,11.901h6.966
		C179.643,71.878,183.514,65.395,183.514,60.17z"/>
	<path fill="#0371EC" d="M212.616,60.17l7.451-0.193c0,0,1.742,10.063,3.387,11.901h-6.967
		C216.487,71.878,212.616,65.395,212.616,60.17z"/>
</g>
<path fill="#0371EC" d="M433.779,57.878l-7.549,0.425c0,0-5.426,19.658-15.172,28.535l0.691,6.544
	C411.751,93.382,430.667,78.915,433.779,57.878z"/>
<rect x="409.035" y="101.52" fill="#0371EC" width="23.439" height="5.9"/>
<g>
	<polygon fill="#0371EC" points="254.787,81.46 246.678,102.352 246.678,102.352 246.519,102.76 246.36,103.175 245.842,103.101 
		240.57,102.028 239.867,101.88 240.128,101.212 254.73,63.869 254.951,63.308 255.511,63.521 260.376,65.365 260.951,65.582 
		260.73,66.153 	"/>
	<path fill="#0371EC" d="M247.853,96.928c9.475,2.188,33.1,3.992,43.729,3.545c3.181-0.136,5.719-0.541,7.42-1.264l0.037-0.016
		l0.027-0.009c1.271-0.38,2.508,0.143,3.332,1.002c0.322,0.339,0.586,0.731,0.762,1.145c0.184,0.425,0.275,0.876,0.254,1.313
		c-0.041,0.853-0.49,1.63-1.506,2.079c-3.164,1.402-7.546,1.898-11.812,1.992c-13.104,0.282-31.558-1.519-44.23-3.697
		c0,0-0.351-0.095-0.385-0.105l-0.096-0.026v-0.009c-0.538-0.201-1.006-0.534-1.359-0.976c-0.432-0.538-0.69-1.229-0.69-2.026
		c0-0.789,0.426-1.529,0.995-2.099l0.003-0.002c0.668-0.669,1.578-1.12,2.224-1.12c0.863,0,0.994,0.083,1.231,0.234l0.001-0.002
		L247.853,96.928z"/>
	<path fill="#0371EC" d="M297.678,81.671c3.288,0,6.271,1.335,8.431,3.495c2.158,2.158,3.494,5.142,3.494,8.431
		c0,3.284-1.34,6.268-3.496,8.426c-2.16,2.16-5.143,3.498-8.43,3.498c-1.166,0-2.301-0.17-3.375-0.487
		c-1.106-0.327-2.149-0.813-3.1-1.429l-1.35-0.874l1.591-0.238c0.567-0.084,1.138-0.185,1.675-0.323v-0.001
		c0.533-0.137,1.057-0.315,1.545-0.56l0.221-0.109c0.188-0.098,0.38-0.204,0.572-0.326c0.235-0.15,0.455-0.314,0.623-0.498
		l0.035-0.033c0.078-0.071,0.149-0.154,0.223-0.236c0.133-0.152,0.268-0.307,0.457-0.455l0.092-0.07l0.119-0.034
		c0.611-0.166,1.393-0.394,2.205-0.765c0.791-0.362,1.619-0.869,2.352-1.6c1.063-1.065,1.594-2.476,1.594-3.883
		c-0.002-1.407-0.535-2.814-1.6-3.879l-0.217-0.217c-0.455-0.407-0.982-0.739-1.557-0.979c-0.646-0.265-1.357-0.411-2.105-0.411
		c-0.914,0-1.812,0.191-2.588,0.578c-0.709,0.351-1.32,0.869-1.754,1.551c-0.326,0.512-0.559,0.928-0.754,1.276v0.001
		c-0.545,0.977-0.869,1.558-1.615,1.715c-0.594,0.126-1.047-0.175-1.629-0.565c-0.483-0.322-1.094-0.729-1.918-0.876
		c-0.979-0.174-1.869-0.055-2.567,0.355c-0.66,0.386-1.17,1.045-1.448,1.974l-0.201,0.675l-0.636-0.296l-4.713-2.191l-0.459-0.215
		l0.127-0.491c0.108-0.415,0.244-0.813,0.405-1.192c0.82-1.932,2.31-3.406,4.093-4.269c1.78-0.86,3.858-1.108,5.866-0.587
		c0.261,0.065,0.519,0.146,0.775,0.24c1.078-1.247,2.393-2.245,3.857-2.947C294.106,82.083,295.865,81.671,297.678,81.671z"/>
</g>
<path fill="#0371EC" d="M304.054,38.929c0,0-0.348,5.416-3.924,6l-1.359-0.002h-53.356V38.93h53.356l0,0L304.054,38.929
	L304.054,38.929z"/>
<path fill="#0371EC" d="M313.632,62.558c0,0-0.348,5.415-3.924,5.998l-1.359-0.002v-0.003h-72.511v-5.995h72.511v0.002H313.632z"/>
<path fill="#0371EC" d="M221.171,38.259c0,0-0.349,5.416-3.924,5.998l-1.359-0.002h-40.927v-5.997h40.927l0,0L221.171,38.259z"/>
<path fill="#0371EC" d="M226.91,54.605c0,0-0.348,5.414-3.923,5.998l-1.36-0.002V60.6H169.22v-5.997h52.407v0.002H226.91z"/>
<rect x="194.292" y="33.18" fill="#0371EC" width="7.547" height="26.861"/>
<path fill="#0371EC" d="M222.686,81.21c-23.136,19.663-53.282,25.83-53.282,25.83l1.152-6.276
	c23.27-6.473,44.397-23.091,47.937-26.644L222.686,81.21z"/>
<path fill="#0371EC" d="M178.585,81.491c23.134,19.661,48.346,25.773,48.346,25.773l-1.153-6.278
	c-23.269-6.472-39.688-23.308-43.229-26.862L178.585,81.491z"/>
<path fill="#0371EC" d="M213.213,74.124h-30.665l-0.692,5.903h31.357l1.352,0.097c3.575-0.58,3.929-6.004,3.929-6.004
	L213.213,74.124z"/>
<path fill="#0371EC" d="M182.286,70.249l7.633,0.244c0,0-3.997,11.546-8.254,15.707l-7.935-0.097
	C173.73,86.103,177.835,81.28,182.286,70.249z"/>
</svg>
