<?xml version="1.0" encoding="utf-8"?>
<!-- Generator: Adobe Illustrator 16.0.0, SVG Export Plug-In . SVG Version: 6.00 Build 0)  -->
<!DOCTYPE svg PUBLIC "-//W3C//DTD SVG 1.1//EN" "http://www.w3.org/Graphics/SVG/1.1/DTD/svg11.dtd">
<svg version="1.1" id="图层_1" xmlns="http://www.w3.org/2000/svg" xmlns:xlink="http://www.w3.org/1999/xlink" x="0px" y="0px"
	 width="496.366px" height="141.732px" viewBox="0 0 496.366 141.732" enable-background="new 0 0 496.366 141.732"
	 xml:space="preserve">
<path fill="none" stroke="#377DFF" stroke-miterlimit="10" d="M71.359,134.525c35.132,0,63.78-28.652,63.78-63.782
	c0-35.127-28.647-63.779-63.78-63.779c-35.127,0-63.778,28.652-63.778,63.779C7.581,105.873,36.232,134.525,71.359,134.525z"/>
<path fill="none" stroke="#FFFFFF" stroke-width="7" stroke-miterlimit="10" d="M71.359,134.525c35.132,0,63.78-28.652,63.78-63.782
	c0-35.127-28.647-63.779-63.78-63.779c-35.127,0-63.778,28.652-63.778,63.779C7.581,105.873,36.232,134.525,71.359,134.525z"/>
<path fill="#FFFFFF" d="M63.578,33.192L36.281,98.823c-0.116,0.501,0.12,0.764,0.667,0.835l73.831-0.785
	c6.413-0.069,14.399-2.129,20.117-5.218c2.736-7.111,4.234-14.834,4.234-22.912c0-3.807-0.333-7.539-0.972-11.163
	c-0.142-0.069-0.277-0.136-0.426-0.191c-7.94-2.978-10.814,1.188-11.615,2.383c0,0-3.765-6.252-11.011-5.955
	c-7.249,0.298-10.82,7.543-10.82,7.543s-5.963-0.097-8.735,5.063c-2.784,5.161-0.992,11.313-0.992,11.313s-8.778,2.063-13.672-1.761
	c-4.896-3.833-4.834-10.685-3.616-13.57l13.192-31.302c0.046-0.278-0.052-0.58-0.288-0.653l-21.358-0.08
	C64.218,32.423,63.816,32.711,63.578,33.192L63.578,33.192z M108.658,71.158c0,0-1.093,9.282,7.146,8.292
	c6.883-0.83,8.036-4.076,7.222-5.626c-0.563-1.062-1.716-1.075-2.455-0.878c-0.576,0.154-1.185,0.612-2.443,0.975
	c-1.261,0.363-3.255,0.428-3.791-1.329c-0.44-1.44,1.047-3.538,4.251-3.538c3.198-0.002,8.336,2.556,5.311,9.705
	c-3.027,7.145-14.542,6.469-17.124,5.949c-2.59-0.516-6.195-1.62-8.714-3.998c-2.562-2.41-3.146-6.552-1.267-9.103
	C100.519,66.542,106.228,69.322,108.658,71.158z"/>
<rect x="324.456" y="34.759" fill-rule="evenodd" clip-rule="evenodd" fill="#FFFFFF" width="68.026" height="5.999"/>
<rect x="439.512" y="78.599" fill-rule="evenodd" clip-rule="evenodd" fill="#FFFFFF" width="8.292" height="27.202"/>
<path fill-rule="evenodd" clip-rule="evenodd" fill="#FFFFFF" d="M475.159,78.629h7.601v19.699c0,0,0.016,0.228,0,0.61v0.525h-0.038
	c-0.255,2.556-1.885,8.489-11.561,7.958v-5.392c0,0,2.775,0.388,3.998-3.702V78.629z"/>
<rect x="439.512" y="102.03" fill-rule="evenodd" clip-rule="evenodd" fill="#FFFFFF" width="34.025" height="5.392"/>
<rect x="440.794" y="78.599" fill-rule="evenodd" clip-rule="evenodd" fill="#FFFFFF" width="37.057" height="5.999"/>
<rect x="389.71" y="34.843" fill-rule="evenodd" clip-rule="evenodd" fill="#FFFFFF" width="7.314" height="63.913"/>
<path fill-rule="evenodd" clip-rule="evenodd" fill="#FFFFFF" d="M389.71,98.756h7.314c0,0,0.829,7.912-6.272,8.782l-3.818,0.01
	h-4.251v-5.363h4.251C386.933,102.184,389.71,101.75,389.71,98.756z"/>
<rect x="324.475" y="34.628" fill-rule="evenodd" clip-rule="evenodd" fill="#FFFFFF" width="7.741" height="72.839"/>
<path fill-rule="evenodd" clip-rule="evenodd" fill="#FFFFFF" d="M371.133,67.379l0.185,6.386c0,0,18.336-10.16,24.971-32.801
	l-7.279-0.193C389.009,40.771,386.06,53.639,371.133,67.379z"/>
<path fill-rule="evenodd" clip-rule="evenodd" fill="#FFFFFF" d="M371.871,73.984l0.185-6.386c0,0,18.335,10.16,24.969,32.801
	l-7.279,0.193C389.745,100.593,386.796,87.723,371.871,73.984z"/>
<path fill-rule="evenodd" clip-rule="evenodd" fill="#FFFFFF" d="M350.366,73.984l-0.184-6.386c0,0-18.336,10.16-24.97,32.801
	l7.279,0.193C332.492,100.593,335.44,87.723,350.366,73.984z"/>
<path fill-rule="evenodd" clip-rule="evenodd" fill="#FFFFFF" d="M349.629,67.379l-0.184,6.386c0,0-18.335-10.16-24.97-32.801
	l7.279-0.193C331.755,40.771,334.704,53.639,349.629,67.379z"/>
<path fill-rule="evenodd" clip-rule="evenodd" fill="#FFFFFF" d="M361.15,63.208l-0.277-5.952c0,0,12.481,10.16,15.312,13.141
	l-4.079,3.805C372.105,74.202,363.5,64.95,361.15,63.208z"/>
<path fill-rule="evenodd" clip-rule="evenodd" fill="#FFFFFF" d="M369.969,69.419l4.619,2.054c0,0-9.565,11.255-12.683,13.098
	l-5.172-4.755C356.733,79.815,368.344,72.178,369.969,69.419z"/>
<path fill-rule="evenodd" clip-rule="evenodd" fill="#FFFFFF" d="M361.001,78.077l0.277,5.953c0,0-12.482-10.16-15.313-13.141
	l4.079-3.804C350.044,67.085,358.651,76.337,361.001,78.077z"/>
<path fill-rule="evenodd" clip-rule="evenodd" fill="#FFFFFF" d="M352.181,71.866l-4.62-2.053c0,0,9.565-11.255,12.685-13.098
	l5.171,4.755C365.417,61.471,353.806,69.107,352.181,71.866z"/>
<path fill-rule="evenodd" clip-rule="evenodd" fill="#FFFFFF" d="M424.653,33.156l-7.553,0.032c0,0-0.655,19.628-8.84,30.731
	l0.742,4.677C409.003,68.595,422.61,60.196,424.653,33.156z"/>
<rect x="409.003" y="63.951" fill-rule="evenodd" clip-rule="evenodd" fill="#FFFFFF" width="16.831" height="4.644"/>
<rect x="411.338" y="88.721" fill-rule="evenodd" clip-rule="evenodd" fill="#FFFFFF" width="21.103" height="4.645"/>
<path fill-rule="evenodd" clip-rule="evenodd" fill="#FFFFFF" d="M436.995,70.11l-0.724,6.969c0,0,34.714-5.654,47.229-37.049
	l-9.331-0.001C474.169,40.029,467.836,59.442,436.995,70.11z"/>
<path fill-rule="evenodd" clip-rule="evenodd" fill="#FFFFFF" d="M485.344,69.616l0.816,6.959c0,0-18.592-1.501-37.81-20.729
	l4.467-6.056C452.817,49.791,467.955,64.828,485.344,69.616z"/>
<rect x="445.518" y="40.019" fill-rule="evenodd" clip-rule="evenodd" fill="#FFFFFF" width="33.088" height="5.999"/>
<path fill-rule="evenodd" clip-rule="evenodd" fill="#FFFFFF" d="M455.372,33.087l-7.682,0.02c0,0-1.921,11.435-11.79,17.918
	l-0.097,5.031C435.803,56.056,453.436,49.44,455.372,33.087z"/>
<path fill-rule="evenodd" clip-rule="evenodd" fill="#FFFFFF" d="M159.227,60.405l7.633-0.244c0,0-5.437-14.894-9.693-19.054
	l-7.935,0.097C149.232,41.203,154.776,49.375,159.227,60.405z"/>
<path fill-rule="evenodd" clip-rule="evenodd" fill="#FFFFFF" d="M159.936,67.142l7.42,0.097c0,0-4.512,22.484-10.612,36.188h-6.871
	C149.873,103.427,158.582,80.786,159.936,67.142z"/>
<g>
	<path fill-rule="evenodd" clip-rule="evenodd" fill="#FFFFFF" d="M183.514,60.17l-7.451-0.194c0,0-1.742,10.063-3.386,11.902h6.966
		C179.643,71.878,183.514,65.395,183.514,60.17z"/>
	<path fill-rule="evenodd" clip-rule="evenodd" fill="#FFFFFF" d="M212.616,60.17l7.451-0.194c0,0,1.742,10.063,3.387,11.902h-6.967
		C216.487,71.878,212.616,65.395,212.616,60.17z"/>
</g>
<path fill-rule="evenodd" clip-rule="evenodd" fill="#FFFFFF" d="M433.779,57.878l-7.549,0.424c0,0-5.425,19.659-15.172,28.536
	l0.692,6.544C411.751,93.382,430.667,78.915,433.779,57.878z"/>
<rect x="409.035" y="101.52" fill-rule="evenodd" clip-rule="evenodd" fill="#FFFFFF" width="23.44" height="5.901"/>
<g>
	<polygon fill-rule="evenodd" clip-rule="evenodd" fill="#FFFFFF" points="254.787,81.46 246.678,102.352 246.678,102.352 
		246.519,102.76 246.36,103.175 245.842,103.101 240.57,102.028 239.867,101.88 240.128,101.212 254.73,63.869 254.951,63.308 
		255.511,63.521 260.377,65.365 260.951,65.582 260.73,66.153 	"/>
	<path fill-rule="evenodd" clip-rule="evenodd" fill="#FFFFFF" d="M247.853,96.928c9.475,2.189,33.099,3.993,43.728,3.545
		c3.181-0.135,5.72-0.541,7.42-1.263l0.037-0.016l0.027-0.009c1.273-0.38,2.508,0.143,3.332,1.002
		c0.323,0.339,0.586,0.732,0.762,1.145c0.184,0.425,0.277,0.876,0.255,1.313c-0.042,0.853-0.491,1.63-1.506,2.079
		c-3.165,1.403-7.546,1.899-11.812,1.993c-13.104,0.282-31.558-1.519-44.23-3.698c0,0-0.351-0.094-0.385-0.105l-0.096-0.027v-0.008
		c-0.538-0.202-1.006-0.535-1.359-0.976c-0.432-0.538-0.69-1.229-0.69-2.026c0-0.789,0.426-1.53,0.995-2.099l0.003-0.002
		c0.668-0.669,1.578-1.12,2.224-1.12c0.863,0,0.994,0.083,1.231,0.234l0.001-0.002L247.853,96.928z"/>
	<path fill-rule="evenodd" clip-rule="evenodd" fill="#FFFFFF" d="M297.678,81.671c3.289,0,6.271,1.335,8.43,3.495
		c2.159,2.158,3.495,5.141,3.495,8.43c0,3.285-1.339,6.268-3.497,8.426c-2.16,2.16-5.142,3.498-8.428,3.498
		c-1.167,0-2.302-0.17-3.376-0.487c-1.106-0.327-2.149-0.813-3.099-1.429l-1.35-0.874l1.591-0.238
		c0.567-0.084,1.137-0.185,1.675-0.323v-0.001c0.533-0.137,1.057-0.316,1.545-0.56l0.22-0.109c0.188-0.098,0.38-0.204,0.572-0.326
		c0.236-0.151,0.455-0.315,0.624-0.498l0.035-0.034c0.078-0.071,0.149-0.154,0.222-0.236c0.134-0.152,0.268-0.307,0.457-0.455
		l0.093-0.07l0.119-0.035c0.611-0.166,1.393-0.393,2.204-0.764c0.791-0.363,1.619-0.869,2.353-1.6
		c1.062-1.065,1.592-2.475,1.592-3.883c-0.001-1.407-0.534-2.814-1.599-3.879l-0.216-0.216c-0.456-0.408-0.983-0.74-1.558-0.979
		c-0.645-0.265-1.356-0.411-2.104-0.411c-0.914,0-1.812,0.191-2.589,0.578c-0.708,0.351-1.32,0.869-1.754,1.551
		c-0.326,0.512-0.558,0.928-0.753,1.276v0.001c-0.546,0.977-0.87,1.558-1.616,1.715c-0.594,0.126-1.046-0.175-1.628-0.565
		c-0.484-0.323-1.095-0.729-1.918-0.876c-0.979-0.174-1.869-0.055-2.568,0.355c-0.66,0.386-1.17,1.045-1.448,1.974l-0.202,0.675
		l-0.635-0.296l-4.713-2.192l-0.459-0.215l0.127-0.491c0.108-0.415,0.244-0.813,0.405-1.192c0.821-1.932,2.31-3.406,4.093-4.269
		c1.78-0.86,3.858-1.108,5.866-0.587c0.261,0.066,0.519,0.147,0.775,0.241c1.079-1.247,2.394-2.246,3.858-2.948
		C294.106,82.083,295.864,81.671,297.678,81.671z"/>
</g>
<path fill-rule="evenodd" clip-rule="evenodd" fill="#FFFFFF" d="M304.054,38.929c0,0-0.348,5.416-3.923,6l-1.36-0.002h-53.356
	v-5.997h53.356l0,0H304.054z"/>
<path fill-rule="evenodd" clip-rule="evenodd" fill="#FFFFFF" d="M313.633,62.558c0,0-0.349,5.415-3.925,5.998l-1.359-0.002v-0.003
	h-72.511v-5.995h72.512v0.002H313.633z"/>
<path fill-rule="evenodd" clip-rule="evenodd" fill="#FFFFFF" d="M221.171,38.259c0,0-0.349,5.416-3.924,5.998l-1.359-0.002h-40.927
	v-5.997h40.927l0,0L221.171,38.259z"/>
<path fill-rule="evenodd" clip-rule="evenodd" fill="#FFFFFF" d="M226.91,54.605c0,0-0.348,5.414-3.923,5.998l-1.36-0.002v-0.001
	H169.22v-5.997h52.407v0.002H226.91z"/>
<rect x="194.292" y="33.18" fill-rule="evenodd" clip-rule="evenodd" fill="#FFFFFF" width="7.547" height="26.862"/>
<path fill-rule="evenodd" clip-rule="evenodd" fill="#FFFFFF" d="M222.686,81.21c-23.136,19.663-53.282,25.83-53.282,25.83
	l1.152-6.277c23.27-6.472,44.397-23.09,47.937-26.643L222.686,81.21z"/>
<path fill-rule="evenodd" clip-rule="evenodd" fill="#FFFFFF" d="M178.585,81.491c23.134,19.661,48.346,25.773,48.346,25.773
	l-1.153-6.278c-23.269-6.472-39.688-23.308-43.229-26.862L178.585,81.491z"/>
<path fill-rule="evenodd" clip-rule="evenodd" fill="#FFFFFF" d="M213.213,74.124h-30.665l-0.692,5.903h31.357l1.352,0.097
	c3.575-0.58,3.929-6.004,3.929-6.004L213.213,74.124z"/>
<path fill-rule="evenodd" clip-rule="evenodd" fill="#FFFFFF" d="M182.286,70.249l7.633,0.244c0,0-3.997,11.546-8.254,15.707
	l-7.935-0.097C173.73,86.103,177.835,81.28,182.286,70.249z"/>
</svg>
