<?xml version="1.0" encoding="utf-8"?>
<!-- Generator: Adobe Illustrator 16.0.0, SVG Export Plug-In . SVG Version: 6.00 Build 0)  -->
<!DOCTYPE svg PUBLIC "-//W3C//DTD SVG 1.1//EN" "http://www.w3.org/Graphics/SVG/1.1/DTD/svg11.dtd">
<svg version="1.1" id="图层_1" xmlns="http://www.w3.org/2000/svg" xmlns:xlink="http://www.w3.org/1999/xlink" x="0px" y="0px"
	 width="200px" height="200px" viewBox="0 0 200 200" enable-background="new 0 0 200 200" xml:space="preserve">
<path fill="#7F7F7F" d="M122.513,101.564H78.241c-1.174,0-1.958-0.784-1.958-1.958c0-1.174,0.784-1.959,1.958-1.959h44.272
	c1.177,0,1.959,0.785,1.959,1.959C124.472,100.78,123.492,101.564,122.513,101.564z"/>
<path fill="#7F7F7F" d="M100.377,123.504c-1.175,0-1.959-0.781-1.959-1.959V77.471c0-1.175,0.784-1.959,1.959-1.959
	c1.174,0,1.959,0.785,1.959,1.959v44.272C102.336,122.723,101.551,123.504,100.377,123.504z"/>
<path fill="#7F7F7F" d="M154.074,146.497l-21.358-18.948c2.645-3.304,4.793-6.978,6.403-10.963
	c2.166-5.36,3.265-11.052,3.265-16.914c0-5.863-1.099-11.554-3.265-16.914c-2.095-5.185-5.097-9.843-8.921-13.845
	c-3.834-4.013-8.304-7.165-13.283-9.369c-5.168-2.288-10.657-3.448-16.315-3.448c-5.659,0-11.148,1.16-16.316,3.447
	C79.303,61.749,74.834,64.9,71,68.913c-3.825,4.003-6.826,8.661-8.922,13.846c-2.166,5.359-3.265,11.05-3.265,16.914
	c0,5.862,1.099,11.553,3.265,16.914c2.096,5.184,5.097,9.843,8.922,13.845c3.834,4.013,8.303,7.164,13.283,9.369
	c5.168,2.287,10.657,3.447,16.316,3.447c5.658,0,11.148-1.16,16.315-3.447c4.136-1.832,7.919-4.318,11.278-7.407l21.485,19.061
	c0.63,0.559,1.415,0.834,2.196,0.834c0.914,0,1.825-0.376,2.479-1.114C155.568,149.805,155.443,147.711,154.074,146.497z
	 M100.6,136.622c-19.388,0-35.162-16.576-35.162-36.95c0-20.375,15.773-36.951,35.162-36.951c19.388,0,35.16,16.576,35.16,36.951
	C135.76,120.047,119.987,136.622,100.6,136.622z"/>
</svg>
