<?xml version="1.0" encoding="utf-8"?>
<!-- Generator: Adobe Illustrator 16.0.0, SVG Export Plug-In . SVG Version: 6.00 Build 0)  -->
<!DOCTYPE svg PUBLIC "-//W3C//DTD SVG 1.1//EN" "http://www.w3.org/Graphics/SVG/1.1/DTD/svg11.dtd">
<svg version="1.1" id="图层_1" xmlns="http://www.w3.org/2000/svg" xmlns:xlink="http://www.w3.org/1999/xlink" x="0px" y="0px"
	 width="200px" height="200px" viewBox="0 0 200 200" enable-background="new 0 0 200 200" xml:space="preserve">
<path fill="#FFFFFF" d="M100,8.5C49.479,8.5,8.5,49.479,8.5,100c0,50.521,40.979,91.5,91.5,91.5c50.521,0,91.5-40.979,91.5-91.5
	C191.5,49.479,150.521,8.5,100,8.5z M151.776,130.509c1.634-7.726,2.666-15.907,2.993-24.404h24.286
	c-0.627,8.418-2.574,16.601-5.829,24.404H151.776z M48.224,69.492c-1.634,7.725-2.666,15.908-2.993,24.404h-24.3
	c0.64-8.418,2.588-16.601,5.843-24.404H48.224z M139.267,69.492c1.843,7.816,2.954,15.986,3.308,24.404h-36.47V69.492H139.267
	L139.267,69.492z M106.104,57.296V21.598c2.784,0.797,5.542,2.157,8.247,4.065c5.06,3.568,9.896,9.071,14.014,15.908
	c2.837,4.731,5.28,10,7.333,15.725H106.104L106.104,57.296z M71.635,41.571c4.104-6.836,8.954-12.339,14.013-15.908
	c2.706-1.909,5.464-3.268,8.248-4.065v35.698H64.315C66.354,51.57,68.799,46.316,71.635,41.571z M93.896,69.492v24.404H57.426
	c0.353-8.431,1.464-16.601,3.307-24.404H93.896z M26.774,130.509c-3.255-7.804-5.203-15.986-5.843-24.404h24.3
	c0.327,8.497,1.359,16.679,2.993,24.404H26.774z M57.426,106.104h36.469v24.404H60.733C58.89,122.692,57.792,114.522,57.426,106.104
	L57.426,106.104z M93.896,142.705v35.697c-2.784-0.797-5.542-2.157-8.248-4.064c-5.072-3.569-9.908-9.072-14.013-15.922
	c-2.836-4.731-5.28-10-7.333-15.725h29.594V142.705z M128.365,158.43c-4.104,6.836-8.954,12.339-14.014,15.92
	c-2.705,1.909-5.463,3.269-8.247,4.065v-35.698h29.594C133.646,148.43,131.202,153.685,128.365,158.43z M106.104,130.509v-24.404
	h36.47c-0.354,8.432-1.465,16.601-3.308,24.404H106.104L106.104,130.509z M154.77,93.896c-0.327-8.496-1.359-16.679-2.993-24.404
	h21.45c3.255,7.803,5.202,15.986,5.843,24.404H154.77z M166.847,57.296h-18.286c-3.543-11.202-8.444-21.019-14.365-28.862
	c8.104,3.882,15.463,9.059,21.868,15.503C160.181,48.015,163.762,52.499,166.847,57.296z M43.937,43.937
	c6.405-6.432,13.764-11.621,21.868-15.503c-5.908,7.843-10.81,17.66-14.366,28.862H33.153
	C36.237,52.499,39.819,48.015,43.937,43.937L43.937,43.937z M33.153,142.705h18.287c3.543,11.201,8.444,21.019,14.366,28.861
	c-8.104-3.883-15.463-9.059-21.868-15.503C39.819,151.985,36.237,147.501,33.153,142.705z M156.063,156.063
	c-6.405,6.432-13.764,11.62-21.868,15.503c5.907-7.843,10.81-17.66,14.365-28.861h18.286
	C163.762,147.501,160.181,151.985,156.063,156.063z"/>
</svg>
