<?xml version="1.0" encoding="utf-8"?>
<!-- Generator: Adobe Illustrator 16.0.0, SVG Export Plug-In . SVG Version: 6.00 Build 0)  -->
<!DOCTYPE svg PUBLIC "-//W3C//DTD SVG 1.1//EN" "http://www.w3.org/Graphics/SVG/1.1/DTD/svg11.dtd">
<svg version="1.1" id="图层_1" xmlns="http://www.w3.org/2000/svg" xmlns:xlink="http://www.w3.org/1999/xlink" x="0px" y="0px"
	 width="200px" height="200px" viewBox="0 0 200 200" enable-background="new 0 0 200 200" xml:space="preserve">
<path fill="#FFFFFF" d="M139.197,3.5H60.803c-9.994,0-18.094,8.1-18.094,18.094v156.813c0,9.991,8.1,18.094,18.094,18.094h78.394
	c9.99,0,18.094-8.103,18.094-18.094V21.594C157.291,11.6,149.188,3.5,139.197,3.5z M145.229,178.406
	c0,3.323-2.705,6.031-6.031,6.031H60.803c-3.326,0-6.031-2.708-6.031-6.031v-24.121h90.457V178.406L145.229,178.406z
	 M145.229,148.254H54.772V39.688h90.457V148.254L145.229,148.254z M145.229,33.656H54.772V21.594c0-3.326,2.705-6.031,6.031-6.031
	h78.394c3.326,0,6.031,2.705,6.031,6.031V33.656L145.229,33.656z"/>
<path fill="#FFFFFF" d="M106.031,21.594H93.969c-1.667,0-3.016,1.351-3.016,3.016s1.348,3.016,3.016,3.016h12.063
	c1.668,0,3.016-1.351,3.016-3.016S107.699,21.594,106.031,21.594z M100.006,178.386c4.996,0,9.047-4.054,9.047-9.051
	s-4.051-9.047-9.047-9.047c-5,0-9.047,4.05-9.047,9.047S95.006,178.386,100.006,178.386z M100.006,166.32
	c1.664,0,3.016,1.351,3.016,3.016c0,1.664-1.352,3.019-3.016,3.019c-1.665,0-3.016-1.354-3.016-3.019
	C96.99,167.671,98.341,166.32,100.006,166.32z"/>
</svg>
