<?xml version="1.0" encoding="utf-8"?>
<!-- Generator: Adobe Illustrator 16.0.0, SVG Export Plug-In . SVG Version: 6.00 Build 0)  -->
<!DOCTYPE svg PUBLIC "-//W3C//DTD SVG 1.1//EN" "http://www.w3.org/Graphics/SVG/1.1/DTD/svg11.dtd">
<svg version="1.1" id="图层_1" xmlns="http://www.w3.org/2000/svg" xmlns:xlink="http://www.w3.org/1999/xlink" x="0px" y="0px"
	 width="300px" height="300px" viewBox="0 0 300 300" enable-background="new 0 0 300 300" xml:space="preserve">


<g>
	<circle fill="#CCCCCC" cx="258.563" cy="207.895" r="2.284"/>
	<path fill="#CCCCCC" d="M274.974,179.607c0,1.262-1.025,2.286-2.284,2.286c-1.262,0-2.287-1.024-2.287-2.286
	c0-1.261,1.025-2.285,2.287-2.285C273.948,177.322,274.974,178.347,274.974,179.607z"/>
	<circle fill="#CCCCCC" cx="26.071" cy="180.913" r="2.285"/>
	<circle fill="#CCCCCC" cx="206.341" cy="78.648" r="2.285"/>
	<circle fill="#CCCCCC" cx="259.433" cy="96.49" r="2.284"/>
	<circle fill="#CCCCCC" cx="41.194" cy="171.34" r="2.285"/>
	<circle fill="#CCCCCC" cx="66.542" cy="161.33" r="2.285"/>
	<circle fill="#CCCCCC" cx="52.906" cy="202.815" r="2.285"/>
	<circle fill="#CCCCCC" cx="62.48" cy="61.532" r="2.284"/>
	<ellipse fill="#CCCCCC" cx="186.214" cy="24.727" rx="2.284" ry="2.571"/>
	<polygon fill="none" stroke="#C4C4C4" stroke-miterlimit="10" points="63.061,60.371 114.847,24.687 187.52,25.122 235.824,58.195 
		272.814,119.554 272.38,179.607 242.787,236.18 184.474,270.994 113.541,270.994 69.588,245.754 26.071,180.913 26.942,112.156 	
		"/>
	<polyline fill="none" stroke="#C4C4C4" stroke-miterlimit="10" points="27.377,179.173 40.867,171.774 43.914,119.554 
		63.496,62.111 91.347,55.148 114.122,25.557 207.539,49.492 234.084,58.195 201.011,110.851 258.599,97.505 227.99,70.815 
		208.408,51.232 186.649,24.977 175.626,81.839 207.539,49.492 202.315,109.545 215.807,197.885 229.296,135.655 258.599,97.505 
		260.629,164.813 258.019,207.895 207.104,248.801 184.474,270.994 149.66,260.984 80.903,243.143 70.604,245.463 51.746,202.671 
		41.302,170.47 70.894,146.535 81.773,114.767 99.905,76.617 62.48,61.532 66.107,159.59 52.907,202.815 102.227,178.303 
		149.225,262.726 114.122,270.122 97.004,247.494 103.967,176.126 114.411,111.721 91.347,55.148 150.966,25.267 156.188,62.546 
		125.291,97.36 114.847,24.687 99.18,78.212 	"/>
	<polyline fill="none" stroke="#C4C4C4" stroke-miterlimit="10" points="125.291,98.666 70.894,146.535 66.542,161.33 
		146.179,149.581 125.291,97.36 172.29,102.583 186.649,183.96 242.787,236.18 207.104,248.801 155.317,208.909 149.225,262.726 
		230.166,137.396 146.904,148.856 170.112,104.758 235.099,57.18 	"/>
	<polyline fill="none" stroke="#C4C4C4" stroke-miterlimit="10" points="156.188,62.546 230.166,137.396 261.934,166.988 
		272.38,179.607 215.807,197.885 207.104,248.801 156.188,209.635 146.179,149.581 125.726,216.163 113.541,270.994 
		204.056,248.364 	"/>
	<polyline fill="none" stroke="#C4C4C4" stroke-miterlimit="10" points="70.604,245.463 102.227,178.303 144.003,150.016 
		186.649,183.96 156.188,209.635 	"/>
	<circle fill="#CCCCCC" cx="91.782" cy="55.257" r="2.284"/>
	<circle fill="#CCCCCC" cx="115.282" cy="25.992" r="2.285"/>
	<circle fill="#CCCCCC" cx="152.126" cy="24.251" r="2.284"/>
	<circle fill="#CCCCCC" cx="100.051" cy="75.167" r="2.285"/>
	<circle fill="#CCCCCC" cx="113.976" cy="110.416" r="2.284"/>
	<circle fill="#CCCCCC" cx="126.596" cy="97.36" r="2.285"/>
	<circle fill="#CCCCCC" cx="155.752" cy="62.546" r="2.285"/>
	<circle fill="#CCCCCC" cx="175.625" cy="81.839" r="2.284"/>
	<circle fill="#CCCCCC" cx="207.537" cy="49.492" r="2.285"/>
	<circle fill="#CCCCCC" cx="234.083" cy="58.195" r="2.284"/>
	<circle fill="#CCCCCC" cx="202.315" cy="109.545" r="2.284"/>
	<circle fill="#CCCCCC" cx="228.862" cy="138.267" r="2.285"/>
	<circle fill="#CCCCCC" cx="242.787" cy="236.18" r="2.284"/>
	<circle fill="#CCCCCC" cx="184.474" cy="270.994" r="2.284"/>
	<circle fill="#CCCCCC" cx="207.103" cy="248.801" r="2.285"/>
	<circle fill="#CCCCCC" cx="217.112" cy="196.579" r="2.284"/>
	<circle fill="#CCCCCC" cx="194.482" cy="190.923" r="2.284"/>
	<circle fill="#CCCCCC" cx="180.122" cy="143.924" r="2.285"/>
	<circle fill="#CCCCCC" cx="173.268" cy="101.712" r="2.285"/>
	<circle fill="#CCCCCC" cx="146.179" cy="149.581" r="2.284"/>
	<ellipse fill="#CCCCCC" cx="102.227" cy="180.043" rx="2.285" ry="2.57"/>
	<ellipse fill="#CCCCCC" cx="114.847" cy="270.518" rx="2.285" ry="2.571"/>
	<ellipse fill="#CCCCCC" cx="149.66" cy="260.984" rx="2.284" ry="2.57"/>
	<ellipse fill="#CCCCCC" cx="155.426" cy="209.199" rx="2.285" ry="2.57"/>
	<ellipse fill="#CCCCCC" cx="125.726" cy="216.163" rx="2.285" ry="2.57"/>
	<ellipse fill="#CCCCCC" cx="97.004" cy="247.494" rx="2.285" ry="2.57"/>
	<ellipse fill="#CCCCCC" cx="71.329" cy="244.448" rx="2.285" ry="2.57"/>
	<ellipse fill="#CCCCCC" cx="107.448" cy="156.068" rx="2.285" ry="2.569"/>
	<circle fill="#CCCCCC" cx="186.65" cy="183.96" r="2.285"/>
	<circle fill="#CCCCCC" cx="201.011" cy="106.934" r="2.284"/>
	<path fill="#DEB957" d="M148.723,164.788l0.122,0.124c2.113,2.113,5.567,2.113,7.68,0l0.082-0.08
	c-0.529-1.668-2.093-2.866-3.962-2.866C150.836,161.945,149.272,163.145,148.723,164.788z"/>
	<path fill="#FFD479" d="M152.686,152.375c1.016,0,1.848,2.783,1.848,7.741c0,4.96-0.832,7.133-1.868,7.111
		c-1.018,0-1.871-2.154-1.871-7.111C150.815,155.139,151.629,152.375,152.686,152.375z"/>
	<rect x="85.545" y="93.008" fill="none" stroke="#FFFFFF" stroke-miterlimit="10" width="0" height="0"/>
</g>
	<g id="ai">
	<circle fill="#AEE9FF" cx="146.946" cy="25.221" r="19.584"/>
	<path fill="#FFFFFF" d="M152.794,21.677c-0.14-3.26-2.821-5.862-6.116-5.862c-3.294,0-5.974,2.602-6.116,5.862H152.794z"/>
	<path fill="#FFFFFF" d="M140.818,22.291v4.929c0,3.237,2.624,5.862,5.86,5.862s5.862-2.625,5.862-5.862v-4.929H140.818z"/>
	<path fill="#FFFFFF" d="M140.617,29.95c0,0.663-0.537,1.199-1.2,1.199l0,0c-0.662,0-1.198-0.536-1.198-1.199v-5.995
		c0-0.662,0.536-1.199,1.198-1.199l0,0c0.663,0,1.2,0.537,1.2,1.199V29.95z"/>
	<path fill="#FFFFFF" d="M145.674,35.251c0,0.663-0.537,1.199-1.198,1.199l0,0c-0.663,0-1.199-0.537-1.199-1.199v-5.995
		c0-0.662,0.536-1.199,1.199-1.199l0,0c0.662,0,1.198,0.537,1.198,1.199V35.251z"/>
	<path fill="#FFFFFF" d="M150.614,35.251c0,0.663-0.537,1.199-1.2,1.199l0,0c-0.662,0-1.199-0.537-1.199-1.199v-5.995
		c0-0.662,0.537-1.199,1.199-1.199l0,0c0.663,0,1.2,0.537,1.2,1.199V35.251z"/>
	<path fill="#FFFFFF" d="M155.204,30.083c0,0.662-0.537,1.199-1.199,1.199l0,0c-0.662,0-1.199-0.537-1.199-1.199v-5.995
		c0-0.662,0.537-1.199,1.199-1.199l0,0c0.662,0,1.199,0.537,1.199,1.199V30.083z"/>
	<path fill="#FFFFFF" d="M144.801,18.207c0.168,0.241,0.111,0.573-0.13,0.742l0,0c-0.242,0.169-0.574,0.111-0.742-0.13l-2.833-4.033
		c-0.169-0.241-0.111-0.573,0.13-0.743l0,0c0.242-0.169,0.574-0.111,0.742,0.129L144.801,18.207z"/>
	<path fill="#FFFFFF" d="M148.981,18.719c-0.161,0.248-0.491,0.318-0.737,0.158l0,0c-0.248-0.161-0.317-0.49-0.157-0.738
		l2.686-4.134c0.158-0.247,0.489-0.317,0.736-0.157l0,0c0.247,0.161,0.318,0.49,0.157,0.737L148.981,18.719z"/>
	<path fill="#AEE9FF" d="M163.953,53.53c0,2.924-2.369,5.294-5.293,5.294h-24.516c-2.924,0-5.294-2.37-5.294-5.294l0,0
		c0-2.924,2.371-5.294,5.294-5.294h24.516C161.584,48.235,163.953,50.606,163.953,53.53L163.953,53.53z"/>
	<text transform="matrix(1 0 0 1 142.5137 56.1172)" fill="#FFFFFF" font-family="'PingFang-SC-Medium'" font-size="8.7034">AI</text>
</g>
	<g id="mobile">
	<circle fill="#A0A09E" cx="31.036" cy="115.363" r="19.583"/>
	<g>
		<path fill="#FFFFFF" d="M37.943,123.32c0,1.174-0.953,2.127-2.128,2.127h-9.558c-1.175,0-2.128-0.953-2.128-2.127v-15.396
			c0-1.174,0.954-2.127,2.128-2.127h9.558c1.175,0,2.128,0.953,2.128,2.127V123.32L37.943,123.32z M36.714,107.925
			c0-0.496-0.401-0.899-0.899-0.899h-9.558c-0.498,0-0.9,0.403-0.9,0.899v15.396c0,0.497,0.403,0.899,0.9,0.899h9.558
			c0.498,0,0.899-0.402,0.899-0.899V107.925L36.714,107.925z"/>
		<path fill="#FFFFFF" d="M37.314,121.458H24.729c-0.17,0-0.306-0.138-0.306-0.308c0-0.17,0.136-0.308,0.306-0.308h12.585
			c0.17,0,0.308,0.138,0.308,0.308C37.622,121.319,37.484,121.458,37.314,121.458z"/>
		<path fill="#FFFFFF" d="M37.314,109.174H24.729c-0.17,0-0.306-0.136-0.306-0.307c0-0.169,0.136-0.306,0.306-0.306h12.585
			c0.17,0,0.308,0.137,0.308,0.306C37.622,109.038,37.484,109.174,37.314,109.174z"/>
		<path fill="#FFFFFF" d="M31.804,122.761c0,0.297-0.242,0.537-0.538,0.537h-0.153c-0.297,0-0.538-0.24-0.538-0.537v-0.153
			c0-0.297,0.24-0.537,0.538-0.537h0.153c0.296,0,0.538,0.24,0.538,0.537V122.761z"/>
		<path fill="#FFFFFF" d="M32.423,114.629c-0.033,0-0.068-0.006-0.101-0.018c-0.16-0.056-0.244-0.231-0.189-0.392l0.083-0.237
			c0.057-0.159,0.231-0.245,0.393-0.188c0.159,0.056,0.244,0.232,0.188,0.393l-0.083,0.236
			C32.669,114.55,32.55,114.629,32.423,114.629z"/>
		<path fill="#FFFFFF" d="M31.252,117.963c-0.033,0-0.068-0.004-0.102-0.016c-0.16-0.056-0.243-0.232-0.187-0.391l0.87-2.481
			c0.057-0.159,0.231-0.245,0.391-0.188c0.16,0.056,0.245,0.231,0.189,0.391l-0.871,2.481
			C31.499,117.885,31.38,117.963,31.252,117.963z"/>
		<path fill="#FFFFFF" d="M30.008,115.647c-0.033,0-0.068-0.004-0.102-0.016c-0.16-0.056-0.244-0.233-0.187-0.393l1.273-3.625
			c0.055-0.161,0.231-0.246,0.391-0.188c0.159,0.056,0.243,0.231,0.188,0.391l-1.273,3.626
			C30.255,115.568,30.136,115.647,30.008,115.647z"/>
		<path fill="#FFFFFF" d="M29.411,117.349c-0.034,0-0.069-0.006-0.101-0.018c-0.16-0.056-0.246-0.231-0.189-0.391l0.188-0.534
			c0.056-0.161,0.23-0.244,0.391-0.188c0.161,0.056,0.244,0.231,0.188,0.392l-0.187,0.533
			C29.656,117.271,29.538,117.349,29.411,117.349z"/>
	</g>
	<path fill="#A0A09E" d="M49.681,144.917c0,3.079-2.723,5.576-6.084,5.576H15.428c-3.359,0-6.084-2.497-6.084-5.576l0,0
		c0-3.08,2.725-5.578,6.084-5.578h28.168C46.958,139.339,49.681,141.836,49.681,144.917L49.681,144.917z"/>
	<text transform="matrix(1 0 0 1 13.0308 147.5)" fill="#FFFFFF" font-family="'PingFang-SC-Medium'" font-size="8.7034">MOBILE</text>
</g>
	<g id="web">
	<circle fill="#B8D567" cx="76.309" cy="233.011" r="19.583"/>
	<polygon fill="#FFFFFF" points="84.039,233.042 84.039,223.188 74.62,224.515 74.62,233.042 	"/>
	<polygon fill="#FFFFFF" points="73.771,224.515 65.471,225.683 66.015,233.042 73.771,233.042 	"/>
	<polygon fill="#FFFFFF" points="84.039,233.891 74.62,233.891 74.62,240.882 84.039,242.007 	"/>
	<polygon fill="#FFFFFF" points="66.015,233.891 66.468,240.011 73.771,240.882 73.771,233.891 	"/>
	<path fill="#B8D567" d="M93.86,262.746c0,2.924-2.37,5.295-5.293,5.295H64.051c-2.924,0-5.293-2.371-5.293-5.295l0,0
		c0-2.924,2.37-5.294,5.293-5.294h24.516C91.491,257.452,93.86,259.822,93.86,262.746L93.86,262.746z"/>
	<text transform="matrix(1 0 0 1 66.5425 265.334)" fill="#FFFFFF" font-family="'PingFang-SC-Medium'" font-size="8.7034">WEB</text>
</g>
	<g id = "kotlin">
	<circle fill="#9ED0E9" cx="239.078" cy="222.619" r="19.583"/>
	<path fill="#FFFFFF" d="M249.076,214.994c-1.388-0.785-3.116-1.251-4.996-1.251c-1.883,0-3.618,0.473-5.001,1.26
		c0,0-0.002,0-0.002,0.001c-1.385-0.788-3.12-1.261-5.001-1.261c-1.878,0-3.608,0.463-4.993,1.25
		c-0.145,0.081-0.232,0.239-0.232,0.408v14.85c0,0.27,0.216,0.463,0.455,0.463c0.065,0,0.133-0.016,0.198-0.047
		c1.308-0.649,2.878-1.026,4.572-1.026c1.68,0,3.241,0.377,4.544,1.014c0.082,0.04,0.162,0.08,0.239,0.122
		c0.138,0.072,0.302,0.072,0.438,0c0.003,0,0.003-0.002,0.008-0.002c0.009-0.006,0.019-0.013,0.031-0.02
		c0.067-0.034,0.133-0.067,0.203-0.103c1.3-0.635,2.863-1.014,4.541-1.014c1.694,0,3.268,0.377,4.575,1.025
		c0.065,0.031,0.131,0.047,0.198,0.047c0.236,0,0.452-0.193,0.452-0.463v-14.845C249.306,215.234,249.219,215.077,249.076,214.994
		L249.076,214.994z M244.08,228.743c-0.87,0-1.729,0.099-2.55,0.288c-0.691,0.152-1.36,0.37-1.991,0.646v-0.799
		c0.063-0.032,0.125-0.066,0.193-0.096c1.295-0.633,2.803-0.967,4.348-0.967c0.867,0,1.721,0.104,2.533,0.306
		c0.638,0.16,1.242,0.38,1.801,0.654v0.811c-0.585-0.241-1.204-0.431-1.842-0.567C245.771,228.837,244.934,228.743,244.08,228.743z
		 M229.745,229.586v-0.811c0.559-0.274,1.163-0.494,1.801-0.651c0.813-0.205,1.663-0.309,2.53-0.309c1.55,0,3.053,0.334,4.351,0.969
		c0.065,0.034,0.128,0.066,0.193,0.099v0.794c-0.677-0.296-1.396-0.521-2.142-0.678c-0.778-0.167-1.583-0.254-2.402-0.254
		c-0.766,0-1.522,0.075-2.25,0.221C231.102,229.106,230.402,229.314,229.745,229.586z M244.08,214.634
		c0.844,0,1.675,0.103,2.463,0.304c0.667,0.171,1.298,0.409,1.871,0.71v12.638c-1.257-0.58-2.741-0.914-4.334-0.914
		c-1.678,0-3.238,0.377-4.541,1.014v-12.617c0.631-0.356,1.329-0.634,2.078-0.828C242.407,214.736,243.234,214.634,244.08,214.634z
		 M231.618,214.938c0.786-0.203,1.614-0.304,2.458-0.304c0.846,0,1.675,0.103,2.468,0.306c0.747,0.192,1.445,0.469,2.076,0.825
		v12.62c-1.305-0.637-2.866-1.014-4.544-1.014c-1.588,0-3.071,0.334-4.331,0.914v-12.638
		C230.32,215.347,230.949,215.106,231.618,214.938z"/>
	<g>
		<path fill="#9ED0E9" d="M263.341,251.247c0,2.944-2.389,5.331-5.332,5.331h-37.861c-2.943,0-5.329-2.387-5.329-5.331l0,0
			c0-2.944,2.386-5.331,5.329-5.331h37.861C260.952,245.916,263.341,248.303,263.341,251.247L263.341,251.247z"/>
		<text transform="matrix(1 0 0 1 223.3252 253.8359)" fill="#FFFFFF" font-family="'PingFang-SC-Medium'" font-size="8.7034">KOTLIN</text>
	</g>
</g>
	<g id="stachk">
	<circle fill="#F39E5D" cx="258.548" cy="97.094" r="19.582"/>
	<path fill="#FFFFFF" d="M249.475,99.75c-0.431,0-0.814-0.304-0.899-0.743c-0.12-0.627-0.181-1.272-0.181-1.914
		c0-5.556,4.517-10.072,10.068-10.072c4.455,0,8.433,2.982,9.673,7.253c0.143,0.484-0.138,0.993-0.624,1.134
		c-0.485,0.143-0.993-0.138-1.133-0.622c-1.018-3.495-4.271-5.934-7.916-5.934c-4.541,0-8.236,3.697-8.236,8.241
		c0,0.527,0.048,1.054,0.149,1.567c0.095,0.498-0.231,0.977-0.728,1.072C249.588,99.746,249.532,99.75,249.475,99.75z"/>
	<path fill="#FFFFFF" d="M258.463,107.166c-3.633,0-6.999-1.972-8.783-5.144c-0.246-0.44-0.092-0.998,0.351-1.248
		c0.44-0.247,0.998-0.09,1.247,0.352c1.46,2.594,4.213,4.208,7.186,4.208c4.409,0,8.024-3.444,8.232-7.842
		c0.024-0.506,0.449-0.896,0.959-0.87c0.506,0.021,0.895,0.452,0.87,0.957C268.271,102.953,263.851,107.166,258.463,107.166z"/>
	<path fill="#FFFFFF" d="M250.492,101.968c-2.574,0-4.641-0.464-4.957-1.829c-0.174-0.743,0.205-1.511,1.126-2.287
		c0.324-0.272,0.805-0.229,1.076,0.094c0.271,0.321,0.229,0.802-0.093,1.074c-0.616,0.517-0.626,0.773-0.626,0.775
		c0.235,0.583,4.29,1.329,12.042-0.471c7.751-1.802,11.064-4.259,11.016-4.889l0,0c-0.002,0-0.104-0.189-0.72-0.369
		c-0.404-0.117-0.636-0.542-0.518-0.947c0.118-0.404,0.544-0.636,0.947-0.517c1.018,0.299,1.615,0.801,1.776,1.489
		c0.68,2.922-7.654,5.673-12.156,6.719C257.008,101.367,253.424,101.968,250.492,101.968z"/>
	<path fill="#FFFFFF" d="M257.675,96.223c-0.072,0-0.147-0.009-0.227-0.032c-0.329-0.088-0.561-0.366-0.604-0.721
		c-0.02-0.143-0.043-0.297-0.072-0.457c-0.059-0.364-0.126-0.775-0.126-1.146c0-0.238-0.102-0.863-0.188-1.312
		c-0.162-0.223-0.396-0.438-0.5-0.459c-0.003,0-0.005,0-0.005,0c-0.65,0-1.039-0.156-1.414-0.306
		c-0.067-0.028-0.143-0.059-0.22-0.086c-0.791-0.297-1.047-1.402-1.117-1.862c-0.067-0.418,0.218-0.809,0.634-0.874
		c0.418-0.064,0.807,0.219,0.872,0.634c0.044,0.262,0.147,0.58,0.225,0.702c0.063,0.022,0.121,0.047,0.177,0.07
		c0.316,0.127,0.49,0.197,0.86,0.197c1.006,0,1.721,1.066,1.856,1.28c0.048,0.078,0.082,0.163,0.099,0.255
		c0.039,0.189,0.218,1.108,0.244,1.646c0.129-0.16,0.218-0.257,0.317-0.33c0.069-0.05,0.166-0.112,0.28-0.182
		c0.099-0.061,0.292-0.176,0.379-0.259c0.008-0.171,0-0.525-0.005-0.771c-0.021-0.93-0.02-1.338,0.092-1.62
		c0.059-0.146,0.213-0.535,1.542-1.292c0.056-0.031,0.111-0.056,0.172-0.073l1.668-0.468c0.406-0.113,0.826,0.123,0.939,0.529
		c0.114,0.405-0.123,0.827-0.529,0.94l-1.573,0.444c-0.312,0.182-0.638,0.401-0.792,0.53c-0.01,0.233,0,0.686,0.007,0.974
		c0.012,0.537,0.017,0.877-0.015,1.1c-0.097,0.667-0.723,1.046-1.095,1.272c-0.049,0.03-0.095,0.056-0.131,0.078
		c-0.063,0.071-0.2,0.252-0.305,0.389C258.572,95.723,258.188,96.223,257.675,96.223z"/>
	<path fill="#FFFFFF" d="M261.61,106.545c-0.059,0-0.119-0.007-0.179-0.022c-0.411-0.099-0.663-0.51-0.563-0.919l0.338-1.404
		l-0.259-0.534l-0.275,0.517c-0.118,0.221-0.338,0.371-0.587,0.401l-1.271,0.146l-1.493,1.236c-0.326,0.27-0.808,0.226-1.076-0.099
		c-0.271-0.324-0.225-0.805,0.1-1.074l1.67-1.382c0.116-0.094,0.254-0.153,0.401-0.17l1.097-0.127l0.791-1.488
		c0.133-0.253,0.398-0.414,0.687-0.406c0.287,0.005,0.548,0.171,0.674,0.43l1.034,2.13c0.08,0.158,0.1,0.34,0.059,0.513
		l-0.404,1.667C262.268,106.311,261.956,106.545,261.61,106.545z"/>
	<path fill="#F39E5D" d="M282.482,126.031c0,2.885-2.34,5.222-5.223,5.222h-37.424c-2.886,0-5.223-2.337-5.223-5.222l0,0
		c0-2.883,2.337-5.222,5.223-5.222h37.424C280.143,120.809,282.482,123.148,282.482,126.031L282.482,126.031z"/>
	<text transform="matrix(1 0 0 1 240.9414 128.6182)" fill="#FFFFFF" font-family="'PingFang-SC-Medium'" font-size="8.7034">STACHK</text>
</g>
	<g id="fireArrow">
	<path fill="#A87EBD" d="M181.559,172.766c0,3.846-3.115,6.962-6.963,6.962H129.92c-3.846,0-6.963-3.116-6.963-6.962v-44.1
		c0-3.845,3.117-6.962,6.963-6.962h44.675c3.848,0,6.963,3.118,6.963,6.962V172.766z"/>
	<path fill="#FFFFFF" d="M123.638,173.345c0,0,4.555-6.878,11.953-0.204c0,0,4.643-4.496,10.589,1.451c0,0,3.771-3.191,11.024-0.146
		c0,0,3.19-5.221,9.138-1.014c0,0,0.436-3.917,5.658-1.741c0,0,4.206-4.642,8.413-1.596l0,0c0,0,4.061,7.892-6.527,9.139
		l-45.113,0.145C128.773,179.378,122.825,179.003,123.638,173.345z"/>
	<g>
		<path fill="#EFC75E" d="M152.665,163.08c2.276,0,4.145,1.869,4.145,4.145s-1.868,7.112-4.145,7.112s-4.146-4.837-4.146-7.112
			S150.368,163.101,152.665,163.08z"/>
		<path fill="#EDB53E" d="M152.259,150.725c6.948,0,12.577,4.249,12.577,10.831v3.13c0,6.584-5.629-3.596-12.577-3.599
			c-6.949,0-12.578,10.224-12.578,3.599v-3.13C139.681,154.974,145.31,150.725,152.259,150.725z"/>
		<path fill="#FFD479" d="M152.259,127.723c2.112,0,8.351,7.173,8.372,20.157c-0.021,8.433-1.201,12.579-1.201,12.579
			c-0.912,4.734-3.574,4.795-7.151,4.795c-3.576,0-6.258-0.04-7.152-4.795c0,0-1.178-4.186-1.199-12.62
			C143.927,134.875,150.125,127.704,152.259,127.723z"/>
		<path fill="#E8E4C8" d="M159.634,158.426c-0.975,4.917-3.737,5.001-7.437,5.001c-3.738,0-6.502-0.041-7.437-5.001l-0.183-0.791
			c0.285,1.869,0.548,2.824,0.548,2.824c0.894,4.755,3.576,4.795,7.152,4.795c3.577,0.001,6.219-0.082,7.151-4.795
			c0,0,0.549-1.972,0.916-5.954C160,157.127,159.634,158.426,159.634,158.426z"/>
		<path fill="#EDB53E" d="M146.549,134.449c1.544,1.179,3.718,1.89,6.116,1.89c2.093-0.02,4.002-0.548,5.486-1.463
			c-1.992-4.673-4.654-7.131-5.893-7.152C151.06,127.704,148.52,130.04,146.549,134.449z"/>
		<rect x="148.935" y="142.011" fill="none" stroke="#FBFBF9" stroke-miterlimit="10" width="6.963" height="6.963"/>
		<line fill="none" stroke="#FBFBF9" stroke-miterlimit="10" x1="149.081" y1="145.493" x2="155.898" y2="145.493"/>
		<line fill="none" stroke="#FBFBF9" stroke-miterlimit="10" x1="152.563" y1="141.722" x2="152.563" y2="149.265"/>
	</g>
</g>

</svg>

