<?xml version="1.0" encoding="utf-8"?>
<!-- Generator: Adobe Illustrator 16.0.0, SVG Export Plug-In . SVG Version: 6.00 Build 0)  -->
<!DOCTYPE svg PUBLIC "-//W3C//DTD SVG 1.1//EN" "http://www.w3.org/Graphics/SVG/1.1/DTD/svg11.dtd">
<svg version="1.1" id="图层_1" xmlns="http://www.w3.org/2000/svg" xmlns:xlink="http://www.w3.org/1999/xlink" x="0px" y="0px"
	 width="200px" height="200px" viewBox="0 0 200 200" enable-background="new 0 0 200 200" xml:space="preserve">
<path fill="#FFFFFF" d="M118.227,16.252c-0.432-0.092-0.859-0.142-1.288-0.16c-3.858-0.147-7.233,2.49-8.011,6.28
	c-0.43,2.056-0.029,4.158,1.13,5.918c1.155,1.758,2.927,2.96,4.985,3.38c16.567,3.419,30.832,13.104,40.16,27.269
	c9.326,14.171,12.577,31.098,9.168,47.665c-0.429,2.063-0.029,4.16,1.131,5.916c1.155,1.76,2.927,2.959,4.984,3.385
	c0.433,0.085,0.869,0.137,1.293,0.158c1.65,0.063,3.247-0.387,4.628-1.293c1.759-1.158,2.96-2.932,3.384-4.987
	C188.596,67.025,160.982,25.063,118.227,16.252L118.227,16.252z M131.781,134.507c0.465,0.304,10.854,6.974,18.837,15.173
	c3.006,3.102,8.04,8.289,7.907,14.31c-0.111,4.112-2.432,8.235-7.096,12.589c-1.16,1.139-11.551,10.843-28.172,10.843
	c-4.553,0-9.229-0.724-13.902-2.146c-4.91-1.488-9.903-3.787-14.826-6.822c-19.436-11.479-34.436-26.259-48.679-47.938
	c-24.483-37.26-25.186-69.17-25.074-75.184c0.042-27.755,23.157-38.672,25.793-39.828c3.625-1.682,6.793-2.491,9.711-2.491
	c1.397,0,2.736,0.189,3.975,0.568c2.548,0.773,6.087,2.777,8.465,7.928c3.243,6.988,6.311,17.008,8.406,27.497
	c2.204,10.887-3.9,13.942-9.803,16.896l-0.233,0.102c0,0-10.444,4.357-12.281,5.114c-1.804,0.752-2.744,2.785-2.128,4.644
	c4.211,12.759,10.643,25.991,18.592,38.263c7.82,12.075,17.12,23.22,26.89,32.241c0.698,0.637,1.596,0.994,2.544,0.994l0.32-0.018
	c1.026-0.082,1.995-0.603,2.64-1.43c1.588-2.041,4.024-4.982,6.594-7.43c4.873-4.633,9.279-6.883,13.471-6.883
	c1.146,0,2.287,0.169,3.384,0.504C128.168,132.326,129.868,133.24,131.781,134.507L131.781,134.507z M98.721,80.798
	c-2.063-0.428-3.833-1.625-4.989-3.382c-1.164-1.759-1.563-3.862-1.139-5.924c0.79-3.786,4.158-6.426,8.011-6.272
	c0.429,0.013,0.861,0.064,1.293,0.154c18.272,3.767,30.076,21.707,26.313,39.987c-0.42,2.049-1.617,3.818-3.375,4.984
	c-1.385,0.904-2.99,1.352-4.628,1.293c-0.424-0.022-0.856-0.07-1.288-0.162c-2.066-0.418-3.842-1.623-4.998-3.385
	c-1.156-1.752-1.555-3.85-1.131-5.911c0.973-4.731,0.051-9.563-2.619-13.607C107.51,84.536,103.447,81.771,98.721,80.798
	L98.721,80.798z M106.902,56.136c-4.249-0.881-6.993-5.049-6.12-9.296c0.782-3.794,4.149-6.436,8.008-6.286
	c0.423,0.019,0.86,0.069,1.292,0.16c14.789,3.049,27.511,11.688,35.842,24.337c8.319,12.641,11.226,27.747,8.174,42.535
	c-0.424,2.062-1.625,3.837-3.385,4.987c-1.384,0.912-2.977,1.359-4.622,1.295c-0.429-0.02-0.865-0.071-1.298-0.162
	c-4.24-0.871-6.988-5.041-6.115-9.297c2.199-10.669,0.104-21.579-5.908-30.711C126.758,64.572,117.578,58.334,106.902,56.136z"/>
</svg>
